<ttFont>
          <CharString index="0">
            46 callgsubr
            42 -40 -60 21 -73 hhcurveto
            -74 -56 -20 -45 -42 hvcurveto
            -48 -51 -26 -84 -6 callgsubr
            -76 45 -49 vhcurveto
            -43 40 58 -20 73 -10 callsubr
            51 30 -19 -34 22 hvcurveto
            23 -38 13 -60 -80 vvcurveto
            38 callsubr
            -51 -52 callsubr
            38 -13 60 81 vvcurveto
            return
          </CharString>
          <CharString index="1">
            rmoveto
            -39 23 -23 39 39 24 24 38 38 -25 25 -38 -38 -24 -24 -39 vhcurveto
            endchar
          </CharString>
          <CharString index="2">
            rmoveto
            -36 22 -22 36 37 22 22 36 36 -23 23 -36 -36 -22 -18 callgsubr
            230 hmoveto
            -36 22 -22 36 37 22 22 36 36 -23 23 -36 -36 -22 -18 callgsubr
            endchar
          </CharString>
          <CharString index="3">
            22 10 34 15 37 hhcurveto
            39 35 -17 -34 19 hvcurveto
            15 -27 8 -40 6 -78 rrcurveto
            -225 -34 -90 -55 -104 vvcurveto
            177 -69 rmoveto
            -47 -27 33 57 76 49 33 162 33 hvcurveto
            2 -20 2 -23 -22 vvcurveto
            -50 -10 -36 -21 -26 vhcurveto
            -35 -28 -45 -20 -37 hhcurveto
            return
          </CharString>
          <CharString index="4">
            232 60 rmoveto
            600 145 vlineto
            77 -1 callsubr
            37 -51 18 -78 -103 vvcurveto
            -105 -18 -76 -37 -47 -29 callgsubr
            -339 660 rmoveto
            -43 vlineto
            84 -71 callgsubr
            -84 -67 callgsubr
            327 vlineto
            106 76 28 59 56 hvcurveto
            63 66 37 103 112 vvcurveto
            106 -35 98 -62 64 vhcurveto
            57 -56 -75 27 -101 hhcurveto
            return
          </CharString>
          <CharString index="5">
            532 64 rmoveto
            -82 -67 callgsubr
            275 43 vlineto
            -80 21 -237 666 rlineto
            -93 hlineto
            -240 -666 -82 -67 callgsubr
            234 43 vlineto
            -83 21 61 178 rlineto
            268 hlineto
            -131 399 rmoveto
            4 hlineto
            108 -341 rlineto
            -229 hlineto
            return
          </CharString>
          <CharString index="6">
            25 -21 -26 10 -42 hhcurveto
            -43 -25 -10 -25 -21 hvcurveto
            -24 -29 -13 -46 -55 vvcurveto
            194 -1 rmoveto
            -48 -7 -35 -14 -24 vhcurveto
            -20 -13 -12 -7 -22 hhcurveto
            -23 -13 7 20 -11 hvcurveto
            -14 24 -7 35 48 vvcurveto
            48 7 35 14 24 vhcurveto
            20 11 13 7 23 hhcurveto
            22 12 -7 -20 13 hvcurveto
            14 -24 7 -35 -48 vvcurveto
            return
          </CharString>
          <CharString index="7">
            132 64 rmoveto
            -84 -67 callgsubr
            233 43 vlineto
            -84 21 rlineto
            535 vlineto
            410 -599 rlineto
            71 656 hlineto
            -47 callgsubr
            -233 -43 vlineto
            -46 callgsubr
            -489 vlineto
            -374 553 rlineto
            -191 50 callgsubr
            return
          </CharString>
          <CharString index="8">
            rmoveto
            53 hlineto
            47 29 rlineto
            51 31 22 14 21 vvcurveto
            19 -14 11 -23 -25 -22 -12 -36 -28 vhcurveto
            return
          </CharString>
          <CharString index="9">
            55 -51 -44 18 -83 hhcurveto
            -85 -64 -20 -43 -52 hvcurveto
            -80 -66 -46 -114 -134 vvcurveto
            -119 36 -100 65 -64 vhcurveto
            -53 54 74 -27 92 hhcurveto
            155 89 76 157 30 hvcurveto
            -55 hlineto
            -111 -19 -72 -58 -118 hhcurveto
            -77 -49 25 56 -36 hvcurveto
            -36 56 -21 86 95 vvcurveto
            101 24 89 40 52 vhcurveto
            42 32 45 20 65 hhcurveto
            return
          </CharString>
          <CharString index="10">
            237 656 rmoveto
            94 -62 callsubr
            -288 -43 vlineto
            94 -21 rlineto
            -592 27 callsubr
            288 43 vlineto
            -94 21 rlineto
            return
          </CharString>
          <CharString index="11">
            52 27 -56 67 hhcurveto
            63 37 39 82 12 hvcurveto
            -45 hlineto
            -32 -7 -18 -18 -40 hhcurveto
            return
          </CharString>
          <CharString index="12">
            -20 hstemhm
            44 102 -82 82 183 107 -65 87 hintmask 1010110100000000
            -54 callsubr
            hintmask 0101110010000000
            -88 callgsubr
            hintmask 1010101100000000
            -83 callsubr
            hintmask 1010110010000000
            -39 callgsubr
            vhcurveto
            return
          </CharString>
          <CharString index="13">
            168 480 rmoveto
            69 19 rlineto
            41 -224 -41 vlineto
            53 -19 153 -490 rlineto
            103 hlineto
            116 390 119 -390 rlineto
            103 hlineto
            149 490 54 19 rlineto
            41 -190 -41 vlineto
            65 -19 -100 -360 -12 -59 rlineto
            -4 hlineto
            -12 59 rlineto
            return
          </CharString>
          <CharString index="14">
            rmoveto
            -255 hlineto
            328 428 rlineto
            56 -426 -187 57 vlineto
            24 131 rlineto
            234 hlineto
            -328 -428 rlineto
            return
          </CharString>
          <CharString index="15">
            -210 rmoveto
            45 37 20 36 23 hvcurveto
            -15 22 rlineto
            -13 -16 -28 -7 -24 hhcurveto
            -32 -18 16 31 return
          </CharString>
          <CharString index="16">
            35 -18 20 -31 -32 -21 -22 -35 -55 52 -40 71 63 51 32 57 25 vhcurveto
            16 36 6 51 99 vvcurveto
            return
          </CharString>
          <CharString index="17">
            76 42 -54 -96 hvcurveto
            -33 -250 vlineto
            121 8 44 62 80 hhcurveto
            return
          </CharString>
          <CharString index="18">
            -91 -101 -47 -83 -39 23 -22 32 32 25 21 33 19 -9 23 -18 14 hvcurveto
            return
          </CharString>
          <CharString index="19">
            rmoveto
            -53 hlineto
            -113 -61 -113 61 rlineto
            -53 hlineto
            118 -121 rlineto
            95 hlineto
            endchar
          </CharString>
          <CharString index="20">
            38 -42 -54 18 -65 hhcurveto
            -133 -86 -75 -126 -116 69 -41 127 -51 hvcurveto
            112 -45 68 -39 -85 vvcurveto
            -72 -49 -37 -94 vhcurveto
            return
          </CharString>
          <CharString index="21">
            rmoveto
            -58 13 -47 24 -28 vhcurveto
            -24 20 28 -11 41 hhcurveto
            40 29 11 24 20 hvcurveto
            24 28 13 47 58 vvcurveto
            55 -13 46 -24 29 vhcurveto
            return
          </CharString>
          <CharString index="22">
            9 490 rmoveto
            97 -376 hlineto
            -50 2 -21 6 -16 vhcurveto
            -25 9 19 -12 30 hhcurveto
            29 50 11 24 64 hvcurveto
            29 -70 vlineto
            -24 -9 2 10 -4 hvcurveto
            -4 10 -1 12 45 vvcurveto
            357 -53 callgsubr
            return
          </CharString>
          <CharString index="23">
            237 656 rmoveto
            104 -62 callsubr
            -298 -43 vlineto
            94 -21 rlineto
            -592 27 callsubr
            555 233 -55 vlineto
            -34 -173 rlineto
            -272 hlineto
            return
          </CharString>
          <CharString index="24">
            -21 -9 -15 -23 -25 vvcurveto
            -29 22 -21 31 34 20 26 42 77 -67 48 -106 -125 -74 -63 -96 -102 83 -34 82 -25 vhcurveto
            return
          </CharString>
          <CharString index="25">
            23 11 20 36 31 vvcurveto
            35 -25 23 -38 -44 -22 -29 -55 -110 86 -76 125 142 94 91 138 vhcurveto
            438 vlineto
            79 -62 callsubr
            -278 -43 vlineto
            99 -21 rlineto
            return
          </CharString>
          <CharString index="26">
            34 19 19 29 34 vvcurveto
            -118 -100 rmoveto
            64 -37 17 -16 -29 vvcurveto
            -32 -23 -17 -41 -43 -19 18 38 33 16 22 29 20 vhcurveto
            44 32 rmoveto
            return
          </CharString>
          <CharString index="27">
            -40 23 -23 40 39 25 24 39 39 -25 26 -39 -39 -24 -25 -40 vhcurveto
            return
          </CharString>
          <CharString index="28">
            709 17 callsubr
            -1 -1 1 1 hvcurveto
            58 82 rlineto
            -71 hlineto
            -32 -46 rlineto
            31 -49 -61 15 -75 29 callsubr
            -108 31 -96 56 -64 vhcurveto
            -67 -94 rlineto
            71 hlineto
            38 54 rlineto
            -36 50 67 -18 81 hhcurveto
            100 76 28 59 55 hvcurveto
            63 68 37 107 116 vvcurveto
            -115 -14 rmoveto
            31 callsubr
            -72 -50 21 43 -34 hvcurveto
            329 463 rlineto
            25 -52 13 -75 -91 vvcurveto
            -428 18 rmoveto
            110 18 79 37 49 vhcurveto
            44 34 51 22 71 hhcurveto
            61 49 -17 -36 34 hvcurveto
            -325 -457 rlineto
            -20 53 -10 70 83 vvcurveto
            return
          </CharString>
          <CharString index="29">
            5 callgsubr
            -54 213 -170 44 callsubr
            hintmask 1001000101000000
            -82 callgsubr
            hintmask 1000011010000000
            -22 callgsubr
            hintmask 1001001010000000
            -87 callsubr
            hintmask 0101001010000000
            -38 callgsubr
            hintmask 0011001010000000
            -4 callgsubr
            hintmask 1000101010000000
            15 callgsubr
            return
          </CharString>
          <CharString index="30">
            17 -11 11 -17 -21 -10 -13 -26 -51 41 -33 62 67 45 38 56 42 -25 26 -48 9 vhcurveto
            4 vlineto
            42 7 26 27 40 vvcurveto
            return
          </CharString>
          <CharString index="31">
            -22 132 -42 callsubr
            282 25 callgsubr
            187 vlineto
            57 11 56 19 45 vhcurveto
            return
          </CharString>
          <CharString index="32">
            rmoveto
            -53 hlineto
            -83 -91 -80 91 rlineto
            -56 hlineto
            83 -141 rlineto
            106 hlineto
            endchar
          </CharString>
          <CharString index="33">
            337 482 rmoveto
            -4 -14 -1 -5 -8 vvcurveto
            -36 21 -24 35 35 22 25 40 54 -39 36 -52 -63 -55 -52 -90 -30 vhcurveto
            -4 hlineto
            return
          </CharString>
          <CharString index="34">
            507 -10 rmoveto
            88 -57 39 -109 vhcurveto
            -116 hlineto
            -69 -19 9 31 31 25 20 54 8 hvcurveto
            -1 13 13 -1 14 hhcurveto
            return
          </CharString>
          <CharString index="35">
            -10 rmoveto
            54 hlineto
            386 740 rlineto
            -54 hlineto
            return
          </CharString>
          <CharString index="36">
            -77 -50 callsubr
            -67 19 rlineto
            267 vlineto
            3 55 13 return
          </CharString>
          <CharString index="37">
            375 55 rmoveto
            -67 -43 20 47 -34 hvcurveto
            -43 58 -24 87 99 vvcurveto
            96 23 90 38 56 vhcurveto
            47 33 44 21 67 hhcurveto
            return
          </CharString>
          <CharString index="38">
            18 11 10 18 17 -11 10 -19 hvcurveto
            24 6 22 12 36 hhcurveto
            39 22 -16 -28 hvcurveto
            -90 -160 -39 -94 vvcurveto
            -30 217 100 -28 vlineto
            -11 -52 rlineto
            endchar
          </CharString>
          <CharString index="39">
            -52 -39 21 51 -2 hvcurveto
            -48 hlineto
            -84 51 -57 90 87 63 52 89 3 vhcurveto
            endchar
          </CharString>
          <CharString index="40">
            rmoveto
            50 -42 34 -62 -61 -41 -32 -46 -25 12 -15 21 17 12 11 17 17 -12 10 -18 vhcurveto
            return
          </CharString>
          <CharString index="41">
            -50 callgsubr
            hintmask 11100100
            -64 callgsubr
            hintmask 11101000
            -81 callsubr
            hintmask 11011000
            -64 callsubr
            endchar
          </CharString>
          <CharString index="42">
            844 -36 callsubr
            -640 -43 hlineto
            84 -11 -337 -602 -94 -67 callgsubr
            247 43 vlineto
            -79 21 98 178 rlineto
            252 -178 hlineto
            -94 -67 callgsubr
            585 223 -58 vlineto
            -81 callgsubr
            -284 418 rmoveto
            -356 -220 vlineto
            197 359 rlineto
            return
          </CharString>
          <CharString index="43">
            -51 22 -17 18 28 vvcurveto
            28 18 14 34 36 19 -16 -31 -28 -16 -23 -23 -12 vhcurveto
            return
          </CharString>
          <CharString index="44">
            29 -20 18 -30 -35 -23 -28 -37 -51 51 -37 63 88 29 59 155 57 vhcurveto
            return
          </CharString>
          <CharString index="45">
            21 rlineto
            43 return
          </CharString>
          <CharString index="46">
            22 10 34 15 37 hhcurveto
            39 35 -17 -34 19 hvcurveto
            15 -27 8 -40 6 -78 rrcurveto
            -225 -34 -90 -55 -104 vvcurveto
            535 379 -37 callsubr
            -358 -448 rmoveto
            -47 -27 33 57 76 49 33 162 33 hvcurveto
            2 -20 2 -23 -22 vvcurveto
            -50 -10 -36 -21 -26 vhcurveto
            -35 -28 -45 -20 -37 hhcurveto
            return
          </CharString>
          <CharString index="47">
            92 -72 callsubr
            -370 -303 rmoveto
            -60 -9 rlineto
            -26 160 26 vlineto
            -48 9 rlineto
            return
          </CharString>
          <CharString index="48">
            38 117 rmoveto
            -79 51 -48 84 78 73 41 68 41 vhcurveto
            7 hlineto
            -72 38 72 -37 89 -7 callgsubr
            349 hlineto
            3 26 0 8 13 vvcurveto
            149 -77 90 -136 -76 -66 -35 -68 -27 vhcurveto
            -5 hlineto
            69 -19 -63 34 -66 hhcurveto
            return
          </CharString>
          <CharString index="49">
            21 -33 callgsubr
            return
          </CharString>
          <CharString index="50">
            rmoveto
            -47 37 -37 47 48 38 37 47 48 -38 38 -48 -47 -37 -38 -48 vhcurveto
            42 hmoveto
            25 18 19 24 25 19 -19 -25 -24 -19 -18 -25 -24 -18 18 24 vhcurveto
            endchar
          </CharString>
          <CharString index="51">
            25 -79 rlineto
            52 293 hlineto
            84 21 rlineto
            45 -268 -45 vlineto
            -46 callgsubr
            -70 vlineto
            return
          </CharString>
          <CharString index="52">
            rmoveto
            88 46 110 59 70 vhcurveto
            27 -209 -95 29 vlineto
            8 44 rlineto
            122 hlineto
            -61 -67 -48 -115 -62 vvcurveto
            -22 7 -11 20 19 8 13 20 vhcurveto
            endchar
          </CharString>
          <CharString index="53">
            244 36 rmoveto
            -57 -49 18 26 -17 hvcurveto
            20 10 16 26 25 vvcurveto
            return
          </CharString>
          <CharString index="54">
            31 150 rlineto
            165 -593 hlineto
            -106 -24 rlineto
            -43 312 43 vlineto
            -106 24 rlineto
            593 164 vlineto
            return
          </CharString>
          <CharString index="55">
            -29 19 34 -22 hvcurveto
            -23 return
          </CharString>
          <CharString index="56">
            -19 callsubr
            vlineto
            return
          </CharString>
          <CharString index="57">
            -65 callgsubr
            241 41 vlineto
            return
          </CharString>
          <CharString index="58">
            -100 -10 59 310 191 -44 44 return
          </CharString>
          <CharString index="59">
            -93 -10 67 207 49 183 54 return
          </CharString>
          <CharString index="60">
            113 480 rmoveto
            -420 vlineto
            return
          </CharString>
          <CharString index="61">
            rmoveto
            63 164 23 108 vvcurveto
            53 -42 34 -63 -62 -41 -34 -52 -25 10 -12 21 vhcurveto
            return
          </CharString>
          <CharString index="62">
            128 77 65 105 38 -10 32 -19 26 hvcurveto
            34 hlineto
            70 -8 rlineto
            return
          </CharString>
          <CharString index="63">
            -36 23 -23 38 41 21 27 50 94 -75 62 -115 return
          </CharString>
          <CharString index="64">
            19 -14 11 -23 -25 -22 -12 -36 -28 vhcurveto
            endchar
          </CharString>
          <CharString index="65">
            -63 callgsubr
            -14 callgsubr
            return
          </CharString>
          <CharString index="66">
            -60 -117 19 hvcurveto
            61 hlineto
            return
          </CharString>
          <CharString index="67">
            -77 -184 50 174 77 97 46 244 46 10 -20 return
          </CharString>
          <CharString index="68">
            55 -55 238 -206 -21 677 54 return
          </CharString>
          <CharString index="69">
            46 51 28 82 87 vvcurveto
            return
          </CharString>
          <CharString index="70">
            rmoveto
            -90 callsubr
            return
          </CharString>
          <CharString index="71">
            238 -34 callgsubr
            -18 -102 rlineto
            -166 262 285 hlineto
            32 -154 rlineto
            52 212 return
          </CharString>
          <CharString index="72">
            13 -22 rlineto
            4 14 13 2 15 hhcurveto
            return
          </CharString>
          <CharString index="73">
            174 -97 97 return
          </CharString>
          <CharString index="74">
            -72 callgsubr
            -75 -71 -39 -65 -40 hvcurveto
            334 18 callgsubr
            return
          </CharString>
          <CharString index="75">
            48 21 31 35 25 hhcurveto
            6 8 -2 -4 6 hvcurveto
            return
          </CharString>
          <CharString index="76">
            -47 -190 39 -39 153 577 -20 return
          </CharString>
          <CharString index="77">
            -325 21 -7 callsubr
            return
          </CharString>
          <CharString index="78">
            135 -11 35 callgsubr
            return
          </CharString>
          <CharString index="79">
            -190 125 return
          </CharString>
          <CharString index="80">
            -214 -21 96 95 return
          </CharString>
          <CharString index="81">
            9 callgsubr
            -20 -25 -43 -35 rlinecurve
            22 -27 rlineto
            61 37 32 47 52 vvcurveto
            41 -20 24 -34 vhcurveto
            endchar
          </CharString>
          <CharString index="82">
            rmoveto
            34 -33 199 215 rlineto
            34 vlineto
            -199 215 -33 -27 132 -203 rlineto
            return
          </CharString>
          <CharString index="83">
            45 -37 -50 17 -68 hhcurveto
            -128 -76 -77 -133 hvcurveto
            -27 callgsubr
            411 14 rmoveto
            -217 50 hlineto
            87 39 45 74 74 30 -45 -114 vhcurveto
            endchar
          </CharString>
          <CharString index="84">
            -3 callgsubr
            -51 callsubr
            return
          </CharString>
          <CharString index="85">
            -20 callsubr
            37 -12 61 81 vvcurveto
            -314 316 rmoveto
            108 39 54 75 65 38 -39 -68 vhcurveto
            -105 -217 vlineto
            return
          </CharString>
          <CharString index="86">
            44 callgsubr
            430 -20 return
          </CharString>
          <CharString index="87">
            -30 -21 -35 -17 -45 hhcurveto
            -50 -29 19 34 -21 hvcurveto
            -23 return
          </CharString>
          <CharString index="88">
            -174 -41 return
          </CharString>
          <CharString index="89">
            -430 vlineto
            -69 callgsubr
            return
          </CharString>
          <CharString index="90">
            hstemhm
            38 103 -76 112 return
          </CharString>
          <CharString index="91">
            137 100 return
          </CharString>
          <CharString index="92">
            -35 callgsubr
            59 -21 return
          </CharString>
          <CharString index="93">
            21 -1 callgsubr
            return
          </CharString>
          <CharString index="94">
            125 -111 97 return
          </CharString>
          <CharString index="95">
            -33 -7 -25 -18 hvcurveto
            -42 19 -34 -66 vvcurveto
            endchar
          </CharString>
          <CharString index="96">
            -107 -43 -53 -94 -73 -51 33 43 vhcurveto
            return
          </CharString>
          <CharString index="97">
            hhcurveto
            75 59 21 44 40 hvcurveto
            3 callsubr
            return
          </CharString>
          <CharString index="98">
            -17 callsubr
            176 100 -84 84 return
          </CharString>
          <CharString index="99">
            29 callgsubr
            hintmask 10111000
            -43 callsubr
          </CharString>
          <CharString index="100">
            -21 540 -20 return
          </CharString>
          <CharString index="101">
            -12 -10 -9 -13 -12 -9 9 12 vhcurveto
            endchar
          </CharString>
          <CharString index="102">
            221 -55 vlineto
            -20 -63 rlineto
            return
          </CharString>
          <CharString index="103">
            40 -25 46 105 37 -37 52 return
          </CharString>
          <CharString index="104">
            89 26 92 38 vvcurveto
            34 -12 22 -37 -38 -12 -23 -33 vhcurveto
            return
          </CharString>
          <CharString index="105">
            -55 18 callsubr
            return
          </CharString>
          <CharString index="106">
            54 -24 -50 35 hvcurveto
            return
          </CharString>
          <CharString index="107">
            770 -99 callsubr
            return
          </CharString>
          <CharString index="108">
            -10 33 268 32 73 33 268 32 1 -20 hstemhm
            36 58 136 58 102 58 136 58 return
          </CharString>
          <CharString index="109">
            -16 11 -11 18 20 11 13 25 45 -38 30 -55 -78 -42 -61 -115 -107 37 -50 79 vhcurveto
            return
          </CharString>
          <CharString index="110">
            -38 callsubr
            -383 -1 rmoveto
            81 13 61 23 36 vhcurveto
            30 20 34 16 47 hhcurveto
            return
          </CharString>
          <CharString index="111">
            -179 21 -21 395 155 -62 62 -10 -20 return
          </CharString>
          <CharString index="112">
            -36 callgsubr
            hstemhm
            return
          </CharString>
          <CharString index="113">
            29 -29 116 62 31 70 49 14 -20 hstemhm
            52 61 94 56 hintmask 10101110
            249 return
          </CharString>
          <CharString index="114">
            vhcurveto
            7 12 13 3 15 hhcurveto
            19 15 -5 -13 12 hvcurveto
            -10 -16 -6 -18 -18 vvcurveto
            return
          </CharString>
          <CharString index="115">
            53 14 callgsubr
            return
          </CharString>
          <CharString index="116">
            -33 17 -17 32 35 19 20 36 68 -67 44 -108 -96 -53 -30 -62 -42 vhcurveto
            return
          </CharString>
          <CharString index="117">
            86 -86 129 218 100 return
          </CharString>
          <CharString index="118">
            221 -55 vlineto
            -22 -69 rlineto
            return
          </CharString>
          <CharString index="119">
            -111 -57 -57 -113 vhcurveto
            return
          </CharString>
          <CharString index="120">
            720 rmoveto
            -210 52 vlineto
            return
          </CharString>
          <CharString index="121">
            hstem
            52 callgsubr
            107 vstem
            46 callgsubr
            return
          </CharString>
          <CharString index="122">
            48 158 123 -32 32 hstemhm
            48 49 -49 65 95 53 hintmask 11010100
            97 return
          </CharString>
          <CharString index="123">
            -17 -32 16 hvcurveto
            12 -24 4 -37 -86 vvcurveto
            -223 vlineto
            -67 -65 callgsubr
            return
          </CharString>
          <CharString index="124">
            368 rmoveto
            -49 callgsubr
            return
          </CharString>
          <CharString index="125">
            -10 -16 callgsubr
            return
          </CharString>
          <CharString index="126">
            -30 callgsubr
            hstemhm
            44 102 -82 82 return
          </CharString>
          <CharString index="127">
            -180 232 -52 52 446 52 return
          </CharString>
          <CharString index="128">
            -20 30 -20 hstemhm
            108 52 return
          </CharString>
          <CharString index="129">
            164 -58 callsubr
            return
          </CharString>
          <CharString index="130">
            77 -19 rlineto
            -660 vlineto
            return
          </CharString>
          <CharString index="131">
            -21 140 127 hstem
            return
          </CharString>
          <CharString index="132">
            -51 -39 -21 -66 vhcurveto
            return
          </CharString>
          <CharString index="133">
            -58 -39 -24 -66 vhcurveto
            return
          </CharString>
          <CharString index="134">
            vlineto
            -94 -67 callgsubr
            return
          </CharString>
          <CharString index="135">
            71 479 -20 return
          </CharString>
          <CharString index="136">
            hhcurveto
            -101 -72 -27 -60 -56 hvcurveto
            -63 -68 -37 -107 -116 vvcurveto
            return
          </CharString>
          <CharString index="137">
            33 -28 -47 17 -61 hhcurveto
            -140 -87 -91 -149 hvcurveto
            return
          </CharString>
          <CharString index="138">
            -111 -19 -83 -36 -49 -29 callgsubr
            return
          </CharString>
          <CharString index="139">
            0 56 428 56 return
          </CharString>
          <CharString index="140">
            69 -69 151 hstemhm
            return
          </CharString>
          <CharString index="141">
            0 60 600 60 return
          </CharString>
          <CharString index="142">
            -21 479 71 return
          </CharString>
          <CharString index="143">
            199 -10 67 207 49 46 191 -44 44 return
          </CharString>
          <CharString index="144">
            -233 -150 60 417 59 409 60 hstemhm
            return
          </CharString>
          <CharString index="145">
            -80 -11 -64 -24 -34 vhcurveto
            -30 -22 -35 -17 -46 hhcurveto
            return
          </CharString>
          <CharString index="146">
            18 490 rmoveto
            97 -430 hlineto
            -77 -65 callgsubr
            return
          </CharString>
          <CharString index="147">
            hstemhm
            25 -34 callsubr
            return
          </CharString>
          <CharString index="148">
            11 -21 740 -20 hstem
            return
          </CharString>
          <CharString index="149">
            60 262 58 return
          </CharString>
          <CharString index="150">
            55 631 54 return
          </CharString>
          <CharString index="151">
            -20 hstemhm
            69 58 -58 101 286 57 -57 90 return
          </CharString>
          <CharString index="152">
            -21 328 -20 hstem
            128 52 vstem
            128 return
          </CharString>
          <CharString index="153">
            hlineto
            43 216 rlineto
            -57 hlineto
            -43 -216 rlineto
            return
          </CharString>
          <CharString index="154">
            -45 -19 -23 -37 -36 -19 23 45 vhcurveto
            endchar
          </CharString>
          <CharString index="155">
            -51 callsubr
            77 -19 rlineto
            return
          </CharString>
          <CharString index="156">
            -210 58 142 return
          </CharString>
          <CharString index="157">
            -41 219 41 vlineto
            return
          </CharString>
          <CharString index="158">
            46 105 270 97 return
          </CharString>
          <CharString index="159">
            48 198 48 return
          </CharString>
          <CharString index="160">
            -158 -21 169 28 callsubr
            hstem
            return
          </CharString>
          <CharString index="161">
            67 207 49 183 54 hstem
            47 102 return
          </CharString>
          <CharString index="162">
            -21 277 51 hstem
            91 54 vstem
            145 return
          </CharString>
          <CharString index="163">
            21 -21 490 return
          </CharString>
        <CharString name=".notdef">
          3 -240 70 1000 70 hstem
          80 97 286 97 vstem
          80 -240 rmoveto
          480 1140 -480 hlineto
          97 -70 rmoveto
          286 -1000 -286 hlineto
          endchar
        </CharString>
        <CharString name="A">
          -40 callgsubr
          hstem
          -102 callsubr
          endchar
        </CharString>
        <CharString name="AE">
          420 0 60 182 58 40 42 callsubr
          hstem
          509 100 vstem
          -65 callsubr
          endchar
        </CharString>
        <CharString name="AEacute">
          420 0 60 182 58 40 42 callsubr
          -58 233 hstemhm
          509 100 hintmask 11110100
          -65 callsubr
          118 111 rmoveto
          53 hlineto
          47 29 rlineto
          51 31 22 14 21 vvcurveto
          hintmask 11101100
          -43 callsubr
        </CharString>
        <CharString name="Aacute">
          -40 callgsubr
          185 -20 hstem
          -102 callsubr
          110 470 -99 callsubr
          endchar
        </CharString>
        <CharString name="Abreve">
          -40 callgsubr
          39 33 callgsubr
          221 52 callsubr
          hintmask 11101110
          -102 callsubr
          242 590 rmoveto
          hintmask 11110110
          25 callsubr
          hintmask 11101110
          -68 callsubr
        </CharString>
        <CharString name="Acircumflex">
          -40 callgsubr
          180 -20 hstem
          -102 callsubr
          184 590 -93 callgsubr
        </CharString>
        <CharString name="Adieresis">
          -40 callgsubr
          63 117 hstem
          189 -37 callgsubr
          vstem
          -102 callsubr
          -36 531 -105 callsubr
        </CharString>
        <CharString name="Agrave">
          -40 callgsubr
          185 -20 hstem
          -102 callsubr
          122 547 rmoveto
          -77 callgsubr
        </CharString>
        <CharString name="Amacron">
          -40 callgsubr
          86 65 hstem
          -102 callsubr
          -3 496 -51 callgsubr
        </CharString>
        <CharString name="Aogonek">
          84 -210 58 173 -21 callsubr
          hstem
          478 72 vstem
          578 -92 callsubr
          35 22 37 42 33 hvcurveto
          111 43 hlineto
          -80 21 -237 666 rlineto
          -93 hlineto
          -240 -666 -82 -67 callgsubr
          234 43 vlineto
          -83 21 61 178 rlineto
          268 hlineto
          59 -178 -82 -67 callgsubr
          118 vlineto
          -60 -38 -30 -42 -45 -28 callgsubr
          -236 851 rmoveto
          4 hlineto
          108 -341 rlineto
          -229 hlineto
          endchar
        </CharString>
        <CharString name="Aring">
          -40 callgsubr
          40 150 -97 -20 hstemhm
          287 151 hintmask 11110100
          -102 callsubr
          62 524 -42 callgsubr
          hintmask 11101100
          -6 callsubr
        </CharString>
        <CharString name="Aringacute">
          84 21 44 callgsubr
          450 136 -136 150 -97 -20 hstemhm
          281 186 hintmask 11100100
          532 64 rmoveto
          -82 -67 callgsubr
          275 43 vlineto
          -80 21 -237 641 rlineto
          -93 hlineto
          -240 -641 -82 -67 callgsubr
          234 43 vlineto
          -83 21 61 178 rlineto
          268 hlineto
          -131 384 rmoveto
          4 hlineto
          108 -326 rlineto
          -229 hlineto
          56 524 rmoveto
          -8 1 -8 3 -7 vhcurveto
          -36 -31 rlineto
          36 hlineto
          13 6 rlineto
          -16 14 21 -10 23 hhcurveto
          42 34 33 41 hvcurveto
          5 vlineto
          25 12 10 10 14 vvcurveto
          14 -11 7 -22 -9 -10 -2 -2 -10 vhcurveto
          hintmask 11010100
          11 -13 -17 7 -19 hhcurveto
          -41 -34 -34 -42 hvcurveto
          54 hmoveto
          13 9 10 12 13 10 -10 -13 vhcurveto
          hintmask 11001100
          -6 callsubr
        </CharString>
        <CharString name="Atilde">
          -40 callgsubr
          49 71 -15 70 hstemhm
          hintmask 11101000
          -102 callsubr
          -47 470 -70 callgsubr
          hintmask 11110000
          -96 callsubr
          hintmask 11101000
          -80 callgsubr
        </CharString>
        <CharString name="B">
          47 0 60 287 58 257 58 hstemhm
          132 100 265 104 -77 111 hintmask 11111000
          601 547 rmoveto
          45 -20 45 -35 32 vhcurveto
          35 -39 -52 16 -71 hhcurveto
          -336 -43 hlineto
          84 -71 callgsubr
          -84 -67 callgsubr
          299 vlineto
          99 48 8 19 37 hvcurveto
          hintmask 11110100
          60 30 44 69 75 vvcurveto
          97 -64 70 -104 22 vhcurveto
          4 vlineto
          hintmask 11111000
          77 10 57 66 77 vvcurveto
          -241 -200 rmoveto
          58 36 -9 -20 24 hvcurveto
          hintmask 11110100
          27 -23 19 -39 -50 vvcurveto
          -60 -25 -44 -36 -21 vhcurveto
          -15 -25 -35 -6 -61 hhcurveto
          -110 287 hlineto
          315 vmoveto
          129 hlineto
          46 33 -10 -20 20 hvcurveto
          hintmask 11111000
          20 -20 17 -34 -41 vvcurveto
          -42 -17 -34 -20 -21 vhcurveto
          -23 -22 -35 -12 -46 hhcurveto
          -125 hlineto
          endchar
        </CharString>
        <CharString name="C">
          47 -10 64 445 43 callgsubr
          -10 -20 hstemhm
          53 112 hintmask 10101000
          371 676 rmoveto
          hintmask 11001000
          114 68 -41 callsubr
          hintmask 10011000
          -5 callsubr
          hintmask 10101000
          -98 callsubr
          endchar
        </CharString>
        <CharString name="CR">
          -367 endchar
        </CharString>
        <CharString name="Cacute">
          47 -10 64 445 43 callgsubr
          -54 219 -175 -20 hstemhm
          53 112 hintmask 10100100
          371 676 rmoveto
          hintmask 11000100
          114 68 -41 callsubr
          hintmask 10001100
          -5 callsubr
          hintmask 10100100
          -98 callsubr
          -16 94 rmoveto
          53 hlineto
          47 29 rlineto
          51 31 22 14 21 vvcurveto
          hintmask 10010100
          -43 callsubr
        </CharString>
        <CharString name="Ccaron">
          47 -10 64 445 43 callgsubr
          -54 214 -170 -20 hstemhm
          53 112 hintmask 10100100
          371 676 rmoveto
          hintmask 11000100
          114 68 -41 callsubr
          hintmask 10001100
          -5 callsubr
          hintmask 10100100
          -98 callsubr
          hintmask 10010100
          177 214 -88 callsubr
        </CharString>
        <CharString name="Ccedilla">
          47 27 callgsubr
          53 63 445 43 callgsubr
          -10 -20 hstemhm
          53 112 231 71 hintmask 11101011
          354 -55 callgsubr
          30 50 144 5 83 76 29 151 rlinecurve
          -55 hlineto
          -111 -19 -72 -58 -118 hhcurveto
          -77 -49 25 56 -36 hvcurveto
          -36 56 -21 86 95 vvcurveto
          101 24 89 40 52 vhcurveto
          42 32 45 20 65 hhcurveto
          hintmask 11110011
          114 68 -41 callsubr
          hintmask 11100111
          -5 callsubr
          hintmask 11110011
          55 -51 -44 18 -83 hhcurveto
          -85 -64 -20 -43 -52 hvcurveto
          -80 -66 -46 -114 -134 vvcurveto
          -119 36 -100 65 -64 vhcurveto
          48 -47 64 -26 78 -6 -57 -74 rcurveline
          -35 callsubr
          -76 callgsubr
        </CharString>
        <CharString name="Ccircumflex">
          47 -10 64 445 43 callgsubr
          -54 214 -170 -20 hstemhm
          53 112 hintmask 10100100
          371 676 rmoveto
          hintmask 11000100
          114 68 -41 callsubr
          hintmask 10001100
          -5 callsubr
          hintmask 10100100
          -98 callsubr
          hintmask 10010100
          58 214 -93 callgsubr
        </CharString>
        <CharString name="Cdotaccent">
          47 -10 64 445 43 callgsubr
          -10 -20 70 125 hstemhm
          53 112 155 125 hintmask 10101110
          371 676 rmoveto
          hintmask 11001110
          114 68 -41 callsubr
          hintmask 10011110
          -5 callsubr
          hintmask 10101110
          -98 callsubr
          -51 156 -106 callsubr
        </CharString>
        <CharString name="D">
          129 0 60 600 -85 callgsubr
          endchar
        </CharString>
        <CharString name="Dcaron">
          129 34 callsubr
          -60 230 hstemhm
          132 100 366 115 hintmask 11011000
          -103 callsubr
          hintmask 10111000
          144 170 -88 callsubr
        </CharString>
        <CharString name="Dcroat">
          134 0 60 272 65 31 callgsubr
          332 rmoveto
          84 -268 hlineto
          -84 -67 callgsubr
          327 vlineto
          106 76 28 59 56 hvcurveto
          63 66 37 103 112 vvcurveto
          106 -35 98 -62 64 vhcurveto
          57 -56 -75 27 -101 hhcurveto
          -336 50 callgsubr
          -259 -84 vlineto
          184 -337 rmoveto
          272 145 65 -145 263 145 vlineto
          77 -1 callsubr
          37 -51 18 -78 -103 vvcurveto
          -105 -18 -76 -37 -47 -29 callgsubr
          endchar
        </CharString>
        <CharString name="Ddotbelow">
          129 -28 callsubr
          65 60 600 60 57 callgsubr
          33 125 208 115 vstem
          -103 callsubr
          -119 -848 -106 callsubr
        </CharString>
        <CharString name="E">
          -48 callgsubr
          hstem
          -16 callsubr
          vstem
          -105 callgsubr
          endchar
        </CharString>
        <CharString name="Eacute">
          -48 callgsubr
          -58 233 28 callgsubr
          hintmask 11101000
          -105 callgsubr
          -102 532 rmoveto
          53 hlineto
          47 29 rlineto
          51 31 22 14 21 vvcurveto
          hintmask 11011000
          -43 callsubr
        </CharString>
        <CharString name="Ebreve">
          -48 callgsubr
          29 33 callgsubr
          137 100 -32 52 callsubr
          hintmask 11101101
          -105 callgsubr
          30 652 rmoveto
          hintmask 11110101
          25 callsubr
          hintmask 11101011
          -68 callsubr
        </CharString>
        <CharString name="Ecaron">
          -48 callgsubr
          -58 228 28 callgsubr
          hintmask 11101000
          -105 callgsubr
          hintmask 11011000
          110 652 -88 callsubr
        </CharString>
        <CharString name="Ecircumflex">
          -48 callgsubr
          -58 228 28 callgsubr
          hintmask 11101000
          -105 callgsubr
          hintmask 11011000
          -28 652 -93 callgsubr
        </CharString>
        <CharString name="Edieresis">
          -48 callgsubr
          53 117 28 callgsubr
          -64 -37 callgsubr
          hintmask 11111010
          -105 callgsubr
          hintmask 11110110
          -248 593 -105 callsubr
        </CharString>
        <CharString name="Edotaccent">
          -48 callgsubr
          50 125 hstem
          -16 callsubr
          49 125 vstem
          -105 callgsubr
          -135 594 -106 callsubr
        </CharString>
        <CharString name="Edotbelow">
          48 -28 callsubr
          65 -41 callgsubr
          hstem
          -16 callsubr
          54 125 vstem
          -105 callgsubr
          -130 -366 -106 callsubr
        </CharString>
        <CharString name="Egrave">
          -48 callgsubr
          -58 233 28 callgsubr
          hintmask 11101000
          -105 callgsubr
          -67 609 rmoveto
          hintmask 11011000
          -77 callgsubr
        </CharString>
        <CharString name="Emacron">
          -48 callgsubr
          76 65 hstem
          -16 callsubr
          vstem
          -105 callgsubr
          -215 558 -51 callgsubr
        </CharString>
        <CharString name="Eng">
          164 -15 callsubr
          720 -20 hstemhm
          132 65 197 102 116 66 hintmask 10111110
          132 64 rmoveto
          -84 -67 callgsubr
          233 43 vlineto
          -84 21 rlineto
          535 vlineto
          415 -606 rlineto
          -17 vlineto
          -87 -33 -42 -49 -28 -20 6 9 -2 vhcurveto
          11 11 5 15 19 vvcurveto
          hintmask 01111110
          35 -18 20 -31 -32 -21 -22 -35 -55 65 -40 71 63 38 32 57 25 vhcurveto
          16 36 6 51 99 vvcurveto
          571 vlineto
          -47 callgsubr
          -233 -43 vlineto
          83 -21 rlineto
          -489 vlineto
          -373 553 rlineto
          -191 50 callgsubr
          endchar
        </CharString>
        <CharString name="Eogonek">
          48 -210 58 152 -41 callgsubr
          28 callgsubr
          -2 72 hintmask 11110100
          335 -92 callsubr
          35 22 37 42 33 hvcurveto
          257 223 -58 hlineto
          -31 -163 rlineto
          hintmask 11111000
          -302 280 166 hlineto
          18 -102 rlineto
          51 264 -51 hlineto
          -18 -102 rlineto
          -166 262 285 hlineto
          32 -154 rlineto
          52 212 -563 -43 hlineto
          94 -21 rlineto
          -592 27 callsubr
          282 vlineto
          hintmask 11110100
          -60 -38 -30 -42 -45 40 callgsubr
        </CharString>
        <CharString name="Eth">
          134 0 60 270 67 31 callgsubr
          330 rmoveto
          84 -266 hlineto
          -84 -67 callgsubr
          327 vlineto
          106 76 28 59 56 hvcurveto
          63 66 37 103 112 vvcurveto
          106 -35 98 -62 64 vhcurveto
          57 -56 -75 27 -101 hhcurveto
          -336 50 callgsubr
          -259 -84 vlineto
          184 -337 rmoveto
          270 127 67 -127 263 145 vlineto
          77 -1 callsubr
          37 -51 18 -78 -103 vvcurveto
          -105 -18 -76 -37 -47 -29 callgsubr
          endchar
        </CharString>
        <CharString name="Etilde">
          -48 callgsubr
          39 71 -15 70 28 callgsubr
          hintmask 11101100
          -105 callgsubr
          -259 532 -70 callgsubr
          hintmask 11110100
          -96 callsubr
          hintmask 11101100
          -80 callgsubr
        </CharString>
        <CharString name="Euro">
          90 -10 68 189 61 95 60 30 237 -55 55 hstemhm
          142 109 308 117 hintmask 11101110
          43 403 rmoveto
          100 hlineto
          -1 -17 0 -17 -18 vvcurveto
          -15 0 -14 1 -14 vhcurveto
          -100 -61 106 hlineto
          -170 25 93 -87 158 hhcurveto
          140 80 69 146 27 hvcurveto
          -55 hlineto
          -93 -13 -65 -54 -100 hhcurveto
          -104 -58 59 130 -19 hvcurveto
          193 61 -199 hlineto
          -1 15 0 17 17 vvcurveto
          16 0 15 1 15 vhcurveto
          199 60 -194 hlineto
          142 18 61 70 105 hhcurveto
          66 61 -27 -42 27 hvcurveto
          -22 -11 -14 -22 -25 vvcurveto
          hintmask 11110110
          -32 23 -23 34 37 23 28 44 93 -107 72 -138 -156 -97 -93 -174 -28 vhcurveto
          -107 hlineto
          endchar
        </CharString>
        <CharString name="F">
          -1 21 -21 329 60 273 58 hstem
          -16 callsubr
          vstem
          472 227 -34 callgsubr
          -17 -102 rlineto
          -167 273 283 hlineto
          32 -156 rlineto
          54 214 -563 -43 hlineto
          94 -21 rlineto
          -589 vlineto
          -94 -24 rlineto
          -43 311 48 vlineto
          -117 19 rlineto
          262 167 vlineto
          17 -102 rlineto
          endchar
        </CharString>
        <CharString name="G">
          -15 callgsubr
          -10 -20 hstemhm
          53 111 381 100 hintmask 10010110
          -70 callsubr
          hintmask 10100110
          115 69 -41 callsubr
          hintmask 10001110
          11 callsubr
          hintmask 10100110
          -78 callgsubr
          hintmask 01100110
          -56 callsubr
          hintmask 10100110
          12 callsubr
          endchar
        </CharString>
        <CharString name="Gbreve">
          -15 callgsubr
          -10 -20 49 33 callgsubr
          53 111 69 52 callsubr
          18 100 hintmask 1001010111100000
          -70 callsubr
          hintmask 1010010111100000
          115 69 -41 callsubr
          hintmask 1000110111100000
          11 callsubr
          hintmask 1010010111100000
          -78 callgsubr
          hintmask 0110010111100000
          -56 callsubr
          hintmask 1010001111100000
          12 callsubr
          104 835 rmoveto
          hintmask 1010010111100000
          25 callsubr
          hintmask 1010001111100000
          -68 callsubr
        </CharString>
        <CharString name="Gcircumflex">
          -15 callgsubr
          -54 214 -170 -20 hstemhm
          53 111 381 100 hintmask 10010011
          -70 callsubr
          hintmask 10100011
          115 69 -41 callsubr
          hintmask 10000111
          11 callsubr
          hintmask 10100011
          -78 callgsubr
          hintmask 01100011
          -56 callsubr
          hintmask 10001011
          12 callsubr
          46 835 -93 callgsubr
        </CharString>
        <CharString name="Gcommaaccent">
          116 -27 callsubr
          34 65 -34 -21 499 43 callgsubr
          -10 -20 hstemhm
          53 111 154 110 117 100 hintmask 1110010111000000
          -70 callsubr
          hintmask 1110100111000000
          115 69 -41 callsubr
          hintmask 1110001111000000
          11 callsubr
          hintmask 1110100111000000
          -78 callgsubr
          hintmask 1101100111000000
          -56 callsubr
          hintmask 1110100111000000
          12 callsubr
          -1 -99 rmoveto
          -103 callgsubr
        </CharString>
        <CharString name="Gdotaccent">
          -15 callgsubr
          -10 -20 70 125 hstemhm
          53 111 148 125 108 100 hintmask 1001011110000000
          -70 callsubr
          hintmask 1010011110000000
          115 69 -41 callsubr
          hintmask 1000111110000000
          11 callsubr
          hintmask 1010011110000000
          -78 callgsubr
          hintmask 0110011110000000
          -56 callsubr
          hintmask 1010011110000000
          12 callsubr
          -63 777 -106 callsubr
        </CharString>
        <CharString name="H">
          166 21 -21 341 58 321 -20 57 callgsubr
          339 100 vstem
          671 656 rmoveto
          -47 callgsubr
          -268 -43 vlineto
          -46 callgsubr
          -257 -339 257 vlineto
          -47 callgsubr
          -268 -43 vlineto
          84 -71 callgsubr
          -84 -67 callgsubr
          268 43 vlineto
          -84 21 rlineto
          277 339 -277 vlineto
          -84 -67 callgsubr
          268 43 vlineto
          -84 21 rlineto
          endchar
        </CharString>
        <CharString name="Hbar">
          176 21 -21 341 58 97 65 -65 224 28 callgsubr
          339 100 hintmask 11011100
          676 656 rmoveto
          -47 callgsubr
          -268 -43 vlineto
          -46 callgsubr
          hintmask 11101100
          -95 -339 95 vlineto
          84 21 rlineto
          hintmask 11011100
          43 -268 -43 vlineto
          -46 callgsubr
          hintmask 11101100
          -95 -83 -65 83 -432 vlineto
          -84 -67 callgsubr
          268 43 vlineto
          -84 21 rlineto
          277 339 -277 vlineto
          -84 -67 callgsubr
          268 43 vlineto
          -84 21 rlineto
          432 84 65 -84 vlineto
          -439 -162 rmoveto
          97 339 -97 vlineto
          endchar
        </CharString>
        <CharString name="Hcircumflex">
          166 21 -21 341 58 321 -20 190 -20 57 callgsubr
          339 100 vstem
          671 656 rmoveto
          -47 callgsubr
          -268 -43 vlineto
          -46 callgsubr
          -257 -339 257 vlineto
          -47 callgsubr
          -268 -43 vlineto
          84 -71 callgsubr
          -84 -67 callgsubr
          268 43 vlineto
          -84 21 rlineto
          277 339 -277 vlineto
          -84 -67 callgsubr
          268 43 vlineto
          -84 21 rlineto
          -219 826 -93 callgsubr
        </CharString>
        <CharString name="Hdotbelow">
          166 -28 callsubr
          86 -21 341 58 321 -20 57 callgsubr
          110 125 104 100 vstem
          671 656 rmoveto
          -47 callgsubr
          -268 -43 vlineto
          -46 callgsubr
          -257 -339 257 vlineto
          -47 callgsubr
          -268 -43 vlineto
          84 -71 callgsubr
          -84 -67 callgsubr
          268 43 vlineto
          -84 21 rlineto
          277 339 -277 vlineto
          -84 -67 callgsubr
          268 43 vlineto
          -84 21 rlineto
          -329 -192 -106 callsubr
        </CharString>
        <CharString name="I">
          -20 callgsubr
          hstem
          -16 callsubr
          vstem
          -97 callsubr
          endchar
        </CharString>
        <CharString name="IJ">
          320 0 47 -37 -21 731 -20 28 callgsubr
          155 10 callsubr
          hintmask 10111010
          -97 callsubr
          502 143 rmoveto
          -11 callsubr
          hintmask 01110110
          -82 callsubr
          endchar
        </CharString>
        <CharString name="Iacute">
          -20 callgsubr
          195 -20 hstem
          -16 callsubr
          vstem
          -97 callsubr
          -77 706 -99 callsubr
          endchar
        </CharString>
        <CharString name="Ibreve">
          -20 callgsubr
          49 33 callgsubr
          31 48 58 100 40 48 hintmask 11011110
          -97 callsubr
          40 826 rmoveto
          hintmask 11101110
          25 callsubr
          hintmask 11011110
          -68 callsubr
        </CharString>
        <CharString name="Icircumflex">
          -20 callgsubr
          190 -20 hstem
          -16 callsubr
          vstem
          -97 callsubr
          -3 826 -93 callgsubr
        </CharString>
        <CharString name="Idieresis">
          -20 callgsubr
          73 117 hstem
          14 117 6 100 7 117 vstem
          -97 callsubr
          -223 767 -105 callsubr
        </CharString>
        <CharString name="Idotaccent">
          -20 callgsubr
          70 125 hstemhm
          125 125 -113 100 hintmask 11101000
          -97 callsubr
          hintmask 11110000
          -112 768 -106 callsubr
        </CharString>
        <CharString name="Idotbelow">
          -263 -28 callsubr
          86 -33 callgsubr
          28 callgsubr
          -100 114 hintmask 11110000
          -97 callsubr
          -111 -192 rmoveto
          -39 23 -23 39 vhcurveto
          hintmask 11101000
          39 24 24 38 38 -25 25 -38 -38 -24 -24 -39 hvcurveto
          endchar
        </CharString>
        <CharString name="Igrave">
          -20 callgsubr
          195 -20 hstem
          -16 callsubr
          vstem
          -97 callsubr
          -43 783 rmoveto
          -77 callgsubr
        </CharString>
        <CharString name="Imacron">
          -20 callgsubr
          96 65 hstem
          -16 callsubr
          vstem
          -97 callsubr
          -190 732 -51 callgsubr
        </CharString>
        <CharString name="Iogonek">
          -263 -210 58 173 -33 callgsubr
          hstemhm
          70 72 -5 100 hintmask 11110000
          170 -92 callsubr
          35 22 37 42 33 hvcurveto
          125 43 hlineto
          hintmask 11101000
          -94 21 rlineto
          592 vlineto
          94 -62 callsubr
          -288 -43 vlineto
          94 -21 rlineto
          -592 27 callsubr
          117 vlineto
          hintmask 11110000
          -60 -38 -30 -42 -45 40 callgsubr
        </CharString>
        <CharString name="Itilde">
          -20 callgsubr
          59 71 -15 70 28 callgsubr
          hintmask 11011000
          -97 callsubr
          -234 706 -70 callgsubr
          hintmask 11101000
          -96 callsubr
          hintmask 11011000
          -80 callgsubr
        </CharString>
        <CharString name="J">
          -54 -11 58 673 -20 hstemhm
          18 10 callsubr
          hintmask 11101000
          365 207 rmoveto
          -11 callsubr
          hintmask 11011000
          -82 callsubr
          endchar
        </CharString>
        <CharString name="Jcircumflex">
          -54 -11 58 673 -20 190 -20 hstemhm
          18 10 callsubr
          hintmask 11110100
          365 207 rmoveto
          -11 callsubr
          hintmask 11101100
          -82 callsubr
          99 234 -93 callgsubr
        </CharString>
        <CharString name="K">
          104 41 callgsubr
          -16 callsubr
          vstem
          237 656 rmoveto
          -47 callgsubr
          -278 -43 vlineto
          94 -21 rlineto
          -592 27 callsubr
          278 43 vlineto
          -84 21 rlineto
          232 vlineto
          63 60 237 -293 -66 -20 rlineto
          -43 279 43 vlineto
          -84 19 -299 362 234 232 88 -62 callsubr
          -263 -43 vlineto
          91 -21 -280 -290 rlineto
          endchar
        </CharString>
        <CharString name="Kcommaaccent">
          104 -27 callsubr
          65 -33 callgsubr
          hstem
          -16 callsubr
          93 110 vstem
          237 656 rmoveto
          -47 callgsubr
          -278 -43 vlineto
          94 -21 rlineto
          -592 27 callsubr
          278 43 vlineto
          -84 21 rlineto
          232 vlineto
          63 60 237 -293 -66 -20 rlineto
          -43 279 43 vlineto
          -84 19 -299 362 234 232 88 -62 callsubr
          -263 -43 vlineto
          91 -21 -280 -290 rlineto
          149 -410 rmoveto
          -103 callgsubr
        </CharString>
        <CharString name="L">
          -8 0 60 660 -20 hstem
          -16 callsubr
          vstem
          -84 callsubr
          endchar
        </CharString>
        <CharString name="Lacute">
          -8 0 60 660 -20 195 -20 hstem
          -16 callsubr
          vstem
          -84 callsubr
          -78 710 -99 callsubr
          endchar
        </CharString>
        <CharString name="Lcaron">
          -8 0 60 660 -20 190 -20 hstem
          -16 callsubr
          vstem
          -84 callsubr
          115 830 -88 callsubr
        </CharString>
        <CharString name="Lcommaaccent">
          -8 -27 callsubr
          44 60 660 -20 hstem
          -16 callsubr
          42 110 vstem
          -84 callsubr
          98 -104 rmoveto
          -103 callgsubr
        </CharString>
        <CharString name="Ldot">
          -8 0 60 237 128 295 -20 hstem
          -16 callsubr
          94 127 vstem
          -84 callsubr
          94 300 14 callgsubr
          endchar
        </CharString>
        <CharString name="Lslash">
          -8 0 60 660 -20 hstemhm
          57 180 -100 100 -100 208 hintmask 11010000
          237 656 rmoveto
          104 -62 callsubr
          -298 -43 vlineto
          94 -21 rlineto
          -282 vlineto
          hintmask 11100000
          -80 -47 rlineto
          -68 vlineto
          hintmask 11010000
          80 47 rlineto
          -242 27 callsubr
          555 233 -55 vlineto
          -34 -173 rlineto
          -272 304 hlineto
          hintmask 11001000
          108 64 rlineto
          69 vlineto
          hintmask 11010000
          -108 -64 rlineto
          endchar
        </CharString>
        <CharString name="M">
          324 41 callgsubr
          132 65 532 100 vstem
          486 91 rmoveto
          -4 hlineto
          -196 629 rlineto
          -238 -43 hlineto
          84 -71 callgsubr
          -84 -67 callgsubr
          222 43 vlineto
          -73 21 rlineto
          591 vlineto
          208 -655 rlineto
          118 hlineto
          206 655 rlineto
          -591 vlineto
          -73 -67 callgsubr
          257 43 vlineto
          -84 21 rlineto
          592 vlineto
          -47 callgsubr
          -234 vlineto
          endchar
        </CharString>
        <CharString name="N">
          22 callsubr
          hstem
          132 65 416 65 vstem
          -100 callsubr
          endchar
        </CharString>
        <CharString name="NULL">
          -637 endchar
        </CharString>
        <CharString name="Nacute">
          22 callsubr
          195 -20 hstem
          132 65 416 65 vstem
          -100 callsubr
          241 114 -99 callsubr
          endchar
        </CharString>
        <CharString name="Ncaron">
          22 callsubr
          190 -20 hstem
          132 65 416 65 vstem
          -100 callsubr
          434 234 -88 callsubr
        </CharString>
        <CharString name="Ncommaaccent">
          164 -27 callsubr
          65 -33 callgsubr
          hstem
          132 65 148 110 158 65 vstem
          -100 callsubr
          269 -700 rmoveto
          -103 callgsubr
        </CharString>
        <CharString name="Ndotaccent">
          22 callsubr
          70 125 hstem
          132 65 141 125 150 65 vstem
          -100 callsubr
          206 176 -106 callsubr
        </CharString>
        <CharString name="Ntilde">
          22 callsubr
          59 71 -15 70 hstemhm
          132 65 416 65 hintmask 11011100
          -100 callsubr
          84 114 -70 callgsubr
          hintmask 11101100
          -96 callsubr
          hintmask 11011100
          -80 callgsubr
        </CharString>
        <CharString name="O">
          -13 callgsubr
          hstem
          53 115 428 115 vstem
          711 17 callsubr
          57 -55 -76 27 -101 29 callsubr
          -113 35 -101 61 -64 vhcurveto
          -56 52 78 -28 101 hhcurveto
          100 76 28 59 55 hvcurveto
          63 68 37 107 116 vvcurveto
          -543 4 rmoveto
          110 18 79 37 49 vhcurveto
          44 34 51 22 71 hhcurveto
          73 -1 callsubr
          36 -52 19 -86 -110 vvcurveto
          31 callsubr
          -77 -52 24 50 -34 hvcurveto
          -35 54 -19 88 111 vvcurveto
          endchar
        </CharString>
        <CharString name="OE">
          435 0 -41 callgsubr
          hstem
          53 115 356 100 vstem
          859 -36 callsubr
          -611 hlineto
          -101 -75 -27 -57 -56 hvcurveto
          -62 -64 -35 -98 -106 vvcurveto
          -112 37 -103 63 -66 vhcurveto
          -59 56 76 -28 106 hhcurveto
          624 223 -58 hlineto
          -81 callgsubr
          -284 -178 rmoveto
          -145 hlineto
          -72 -50 21 45 -34 hvcurveto
          -37 47 -18 76 105 vvcurveto
          103 18 78 37 51 vhcurveto
          50 35 54 24 77 hhcurveto
          135 hlineto
          endchar
        </CharString>
        <CharString name="Oacute">
          -13 callgsubr
          -54 219 hstemhm
          53 115 428 115 hintmask 11011000
          711 17 callsubr
          57 -55 -76 27 -101 29 callsubr
          -113 35 -101 61 -64 vhcurveto
          -56 52 78 -28 101 hhcurveto
          100 76 28 59 55 hvcurveto
          63 68 37 107 116 vvcurveto
          -543 4 rmoveto
          110 18 79 37 49 vhcurveto
          44 34 51 22 71 hhcurveto
          73 -1 callsubr
          36 -52 19 -86 -110 vvcurveto
          31 callsubr
          -77 -52 24 50 -34 hvcurveto
          -35 54 -19 88 111 vvcurveto
          187 -8 callsubr
        </CharString>
        <CharString name="Obreve">
          -13 callgsubr
          19 33 callgsubr
          53 115 73 52 callsubr
          61 115 hintmask 11011111
          711 17 callsubr
          57 -55 -76 27 -101 29 callsubr
          -113 35 -101 61 -64 vhcurveto
          -56 52 78 -28 101 hhcurveto
          100 76 28 59 55 hvcurveto
          63 68 37 107 116 vvcurveto
          -543 4 rmoveto
          110 18 79 37 49 vhcurveto
          44 34 51 22 71 hhcurveto
          73 -1 callsubr
          36 -52 19 -86 -110 vvcurveto
          31 callsubr
          -77 -52 24 50 -34 hvcurveto
          -35 54 -19 88 111 vvcurveto
          319 518 rmoveto
          hintmask 11101111
          25 callsubr
          hintmask 11011111
          -68 callsubr
        </CharString>
        <CharString name="Ocircumflex">
          -13 callgsubr
          -54 214 hstemhm
          53 115 428 115 hintmask 11011000
          711 17 callsubr
          57 -55 -76 27 -101 29 callsubr
          -113 35 -101 61 -64 vhcurveto
          -56 52 78 -28 101 hhcurveto
          100 76 28 59 55 hvcurveto
          63 68 37 107 116 vvcurveto
          -543 4 rmoveto
          110 18 79 37 49 vhcurveto
          44 34 51 22 71 hhcurveto
          73 -1 callsubr
          36 -52 19 -86 -110 vvcurveto
          31 callsubr
          -77 -52 24 50 -34 hvcurveto
          -35 54 -19 88 111 vvcurveto
          hintmask 10111000
          261 518 -93 callgsubr
        </CharString>
        <CharString name="Odieresis">
          -13 callgsubr
          43 117 hstem
          53 115 41 -37 callgsubr
          40 115 vstem
          711 17 callsubr
          57 -55 -76 27 -101 29 callsubr
          -113 35 -101 61 -64 vhcurveto
          -56 52 78 -28 101 hhcurveto
          100 76 28 59 55 hvcurveto
          63 68 37 107 116 vvcurveto
          -543 4 rmoveto
          110 18 79 37 49 vhcurveto
          44 34 51 22 71 hhcurveto
          73 -1 callsubr
          36 -52 19 -86 -110 vvcurveto
          31 callsubr
          -77 -52 24 50 -34 hvcurveto
          -35 54 -19 88 111 vvcurveto
          41 459 -105 callsubr
        </CharString>
        <CharString name="Odotbelow">
          -28 callsubr
          55 43 callsubr
          hstem
          53 115 150 125 153 115 vstem
          711 17 callsubr
          57 -55 -76 27 -101 29 callsubr
          -113 35 -101 61 -64 vhcurveto
          -56 52 78 -28 101 hhcurveto
          100 76 28 59 55 hvcurveto
          63 68 37 107 116 vvcurveto
          -543 4 rmoveto
          110 18 79 37 49 vhcurveto
          44 34 51 22 71 hhcurveto
          73 -1 callsubr
          36 -52 19 -86 -110 vvcurveto
          31 callsubr
          -77 -52 24 50 -34 hvcurveto
          -35 54 -19 88 111 vvcurveto
          150 -500 -106 callsubr
        </CharString>
        <CharString name="Ograve">
          -13 callgsubr
          -54 219 hstemhm
          53 115 428 115 hintmask 11011000
          711 17 callsubr
          57 -55 -76 27 -101 29 callsubr
          -113 35 -101 61 -64 vhcurveto
          -56 52 78 -28 101 hhcurveto
          100 76 28 59 55 hvcurveto
          63 68 37 107 116 vvcurveto
          -543 4 rmoveto
          110 18 79 37 49 vhcurveto
          44 34 51 22 71 hhcurveto
          73 -1 callsubr
          36 -52 19 -86 -110 vvcurveto
          31 callsubr
          -77 -52 24 50 -34 hvcurveto
          -35 54 -19 88 111 vvcurveto
          224 475 rmoveto
          hintmask 10111000
          -77 callgsubr
        </CharString>
        <CharString name="Ohungarumlaut">
          -13 callgsubr
          40 125 hstem
          53 115 428 115 vstem
          711 17 callsubr
          57 -55 -76 27 -101 29 callsubr
          -113 35 -101 61 -64 vhcurveto
          -56 52 78 -28 101 hhcurveto
          100 76 28 59 55 hvcurveto
          63 68 37 107 116 vvcurveto
          -543 4 rmoveto
          110 18 79 37 49 vhcurveto
          44 34 51 22 71 hhcurveto
          73 -1 callsubr
          36 -52 19 -86 -110 vvcurveto
          31 callsubr
          -77 -52 24 50 -34 hvcurveto
          -35 54 -19 88 111 vvcurveto
          100 398 -99 callsubr
          119 -77 -99 callsubr
          endchar
        </CharString>
        <CharString name="Omacron">
          -13 callgsubr
          66 65 hstem
          53 115 428 115 vstem
          711 17 callsubr
          57 -55 -76 27 -101 29 callsubr
          -113 35 -101 61 -64 vhcurveto
          -56 52 78 -28 101 hhcurveto
          100 76 28 59 55 hvcurveto
          63 68 37 107 116 vvcurveto
          -543 4 rmoveto
          110 18 79 37 49 vhcurveto
          44 34 51 22 71 hhcurveto
          73 -1 callsubr
          36 -52 19 -86 -110 vvcurveto
          31 callsubr
          -77 -52 24 50 -34 hvcurveto
          -35 54 -19 88 111 vvcurveto
          74 424 -51 callgsubr
        </CharString>
        <CharString name="Oogonek">
          49 callsubr
          43 callsubr
          hstem
          53 115 94 72 262 115 vstem
          362 -92 callsubr
          32 18 33 34 30 hvcurveto
          97 1 74 28 54 58 rrcurveto
          63 68 37 107 116 vvcurveto
          -49 callgsubr
          57 -55 -76 27 -101 29 callsubr
          -113 35 -101 61 -64 vhcurveto
          45 -49 64 -27 82 -6 rrcurveto
          -52 -36 -26 -40 -41 -28 callgsubr
          -194 582 rmoveto
          110 18 79 37 49 vhcurveto
          44 34 51 22 71 hhcurveto
          73 -1 callsubr
          36 -52 19 -86 -110 vvcurveto
          31 callsubr
          -77 -52 24 50 -34 hvcurveto
          -35 54 -19 88 111 vvcurveto
          endchar
        </CharString>
        <CharString name="Oslash">
          124 -13 callgsubr
          hstem
          51 115 428 115 vstem
          -79 callsubr
          endchar
        </CharString>
        <CharString name="Oslashacute">
          124 -13 callgsubr
          -54 219 hstemhm
          51 115 428 115 hintmask 11011000
          -79 callsubr
          185 -8 callsubr
        </CharString>
        <CharString name="Otilde">
          -13 callgsubr
          29 71 -15 70 hstemhm
          53 115 428 115 hintmask 11011100
          711 17 callsubr
          57 -55 -76 27 -101 29 callsubr
          -113 35 -101 61 -64 vhcurveto
          -56 52 78 -28 101 hhcurveto
          100 76 28 59 55 hvcurveto
          63 68 37 107 116 vvcurveto
          -543 4 rmoveto
          110 18 79 37 49 vhcurveto
          44 34 51 22 71 hhcurveto
          73 -1 callsubr
          36 -52 19 -86 -110 vvcurveto
          31 callsubr
          -77 -52 24 50 -34 hvcurveto
          -35 54 -19 88 111 vvcurveto
          30 398 -70 callgsubr
          hintmask 11101100
          -96 callsubr
          hintmask 11011100
          -80 callgsubr
        </CharString>
        <CharString name="P">
          -6 21 -21 283 58 321 58 57 callgsubr
          263 110 vstem
          232 341 rmoveto
          321 120 vlineto
          38 35 -13 -23 22 hvcurveto
          28 -33 20 -43 -50 vvcurveto
          -52 -21 -48 -27 -28 vhcurveto
          -19 -19 -35 -12 -37 hhcurveto
          22 -58 rmoveto
          60 54 18 31 35 hvcurveto
          46 41 32 67 66 vvcurveto
          64 -30 60 -46 42 vhcurveto
          31 -34 -54 17 -62 hhcurveto
          -331 -43 hlineto
          84 -71 callgsubr
          -84 -67 callgsubr
          279 43 vlineto
          -95 21 rlineto
          219 vlineto
          endchar
        </CharString>
        <CharString name="Q">
          -185 67 109 54 631 54 hstem
          53 115 428 115 vstem
          711 17 callsubr
          57 -55 -76 27 -101 hhcurveto
          -102 -71 -27 -60 -56 hvcurveto
          -63 -68 -37 -107 -116 vvcurveto
          -113 35 -101 61 -64 vhcurveto
          47 -49 64 -27 81 -6 60 -101 rcurveline
          -51 30 59 -25 74 hhcurveto
          60 41 16 43 26 hvcurveto
          -16 27 rlineto
          -14 -20 -13 -5 -21 hhcurveto
          -28 -29 9 15 -24 hvcurveto
          -127 81 rlineto
          4 vlineto
          83 6 66 27 49 53 rrcurveto
          63 68 37 107 116 vvcurveto
          -543 6 rmoveto
          109 18 79 37 48 vhcurveto
          44 34 51 22 71 hhcurveto
          74 53 -24 -50 35 hvcurveto
          36 -52 19 -86 -110 vvcurveto
          -111 -19 -83 -36 -49 vhcurveto
          -44 -33 -52 -22 -72 hhcurveto
          -76 -53 24 50 -33 hvcurveto
          -35 52 -19 90 113 vvcurveto
          endchar
        </CharString>
        <CharString name="R">
          69 21 49 callgsubr
          57 callgsubr
          277 110 vstem
          -102 callgsubr
          endchar
        </CharString>
        <CharString name="Racute">
          69 21 49 callgsubr
          -58 233 hstemhm
          509 110 hintmask 11101000
          -102 callgsubr
          -93 389 rmoveto
          53 hlineto
          47 29 rlineto
          51 31 22 14 21 vvcurveto
          hintmask 11011000
          -43 callsubr
        </CharString>
        <CharString name="Rcaron">
          69 21 49 callgsubr
          170 -20 57 callgsubr
          277 110 vstem
          -102 callgsubr
          136 509 -88 callsubr
        </CharString>
        <CharString name="Rcommaaccent">
          69 -27 callsubr
          65 49 callgsubr
          57 callgsubr
          94 110 73 110 vstem
          -102 callgsubr
          7 -425 rmoveto
          -103 callgsubr
        </CharString>
        <CharString name="Rdotbelow">
          69 -28 callsubr
          86 49 callgsubr
          57 callgsubr
          87 125 65 110 vstem
          -102 callgsubr
          -56 -509 -106 callsubr
        </CharString>
        <CharString name="S">
          5 callgsubr
          -11 44 callsubr
          hintmask 1001001010000000
          -82 callgsubr
          hintmask 1000110100000000
          -22 callgsubr
          hintmask 1001010100000000
          -87 callsubr
          hintmask 0101010100000000
          -38 callgsubr
          hintmask 0011010100000000
          -4 callgsubr
          hintmask 1001010100000000
          15 callgsubr
          endchar
        </CharString>
        <CharString name="Sacute">
          5 callgsubr
          -54 218 -175 -20 hstemhm
          69 58 329 57 -57 90 hintmask 1001001010000000
          -82 callgsubr
          hintmask 1000011100000000
          -22 callgsubr
          hintmask 1001001100000000
          -87 callsubr
          hintmask 0101001100000000
          -38 callgsubr
          hintmask 0011001100000000
          -4 callgsubr
          hintmask 1000101100000000
          15 callgsubr
          -60 781 -99 callsubr
          endchar
        </CharString>
        <CharString name="Scaron">
          -78 callsubr
          151 901 -88 callsubr
        </CharString>
        <CharString name="Schwa">
          61 -10 54 259 65 308 54 hstem
          46 114 369 116 vstem
          50 368 rmoveto
          -3 -30 -1 -13 -19 vvcurveto
          -198 104 -118 176 195 124 145 227 82 -16 74 -31 59 vhcurveto
          101 -53 -95 52 -129 hhcurveto
          -112 -71 -39 -95 -65 hvcurveto
          33 -29 rlineto
          74 51 66 35 90 hhcurveto
          90 57 -35 -77 34 hvcurveto
          23 -52 13 -71 -73 vvcurveto
          -195 -324 rmoveto
          -107 -68 83 133 hvcurveto
          43 369 vlineto
          -168 -12 -69 -91 -113 hhcurveto
          endchar
        </CharString>
        <CharString name="Scircumflex">
          -78 callsubr
          14 901 -93 callgsubr
        </CharString>
        <CharString name="Sdotbelow">
          -38 -28 callsubr
          54 -39 callsubr
          -11 -20 hstemhm
          69 58 -58 101 89 125 72 57 -57 90 hintmask 1100100110100000
          -82 callgsubr
          hintmask 1100011011000000
          -22 callgsubr
          hintmask 1100101011000000
          -87 callsubr
          hintmask 1010101011000000
          -38 callgsubr
          hintmask 1001101011000000
          -4 callgsubr
          hintmask 1100101011000000
          15 callgsubr
          -62 -117 -106 callsubr
        </CharString>
        <CharString name="T">
          21 21 47 callgsubr
          hintmask 11010000
          31 13 callsubr
          hintmask 10110000
          -53 callsubr
          hintmask 11010000
          -5 callgsubr
          hlineto
          endchar
        </CharString>
        <CharString name="Tbar">
          27 21 -21 356 65 89 210 -60 60 hstemhm
          282 100 hintmask 11101000
          34 13 callsubr
          hintmask 11011000
          31 150 rlineto
          165 -239 -178 -65 178 -289 hlineto
          -106 -24 rlineto
          -43 312 43 vlineto
          -106 24 rlineto
          289 178 65 -178 239 164 vlineto
          hintmask 11101000
          -5 callgsubr
          hlineto
          endchar
        </CharString>
        <CharString name="Tcaron">
          21 21 48 callgsubr
          -60 230 hstemhm
          279 100 hintmask 11001000
          31 13 callsubr
          hintmask 10101000
          -53 callsubr
          hintmask 11001000
          -5 callgsubr
          hlineto
          hintmask 10011000
          -130 170 -88 callsubr
        </CharString>
        <CharString name="Tdotbelow">
          21 -28 callsubr
          86 48 callgsubr
          hstemhm
          265 114 -100 100 hintmask 11101000
          31 13 callsubr
          hintmask 11010100
          -53 callsubr
          hintmask 11101000
          -5 callgsubr
          hlineto
          -362 -848 -106 callsubr
        </CharString>
        <CharString name="Thorn">
          6 0 206 -58 58 311 58 -58 203 hstemhm
          135 100 263 110 hintmask 01101100
          386 148 rmoveto
          143 79 101 117 110 -75 99 -146 hvcurveto
          -152 81 hlineto
          84 21 rlineto
          hintmask 10011100
          43 -279 -43 vlineto
          95 -71 callgsubr
          -84 -67 callgsubr
          279 43 vlineto
          -95 21 rlineto
          hintmask 01101100
          84 vlineto
          58 vmoveto
          311 125 vlineto
          91 47 -73 -84 -90 -41 -64 -93 hvcurveto
          endchar
        </CharString>
        <CharString name="U">
          -29 callsubr
          hstem
          116 100 376 63 vstem
          592 259 rmoveto
          -151 -53 -64 -125 -133 -65 71 146 vhcurveto
          395 vlineto
          -47 callgsubr
          -268 -43 vlineto
          -46 callgsubr
          -412 vlineto
          -163 99 -92 177 172 91 88 166 vhcurveto
          413 vlineto
          -47 callgsubr
          -231 -43 vlineto
          -46 callgsubr
          endchar
        </CharString>
        <CharString name="Uacute">
          -29 callsubr
          195 -20 hstem
          116 100 376 63 vstem
          592 259 rmoveto
          -151 -53 -64 -125 -133 -65 71 146 vhcurveto
          395 vlineto
          -47 callgsubr
          -268 -43 vlineto
          -46 callgsubr
          -412 vlineto
          -163 99 -92 177 172 91 88 166 vhcurveto
          413 vlineto
          -47 callgsubr
          -231 -43 vlineto
          -46 callgsubr
          -214 114 -99 callsubr
          endchar
        </CharString>
        <CharString name="Ubreve">
          -29 callsubr
          49 33 callgsubr
          116 100 48 52 callsubr
          34 63 hintmask 11011111
          592 259 rmoveto
          -151 -53 -64 -125 -133 -65 71 146 vhcurveto
          395 vlineto
          -47 callgsubr
          -268 -43 vlineto
          -46 callgsubr
          -412 vlineto
          -163 99 -92 177 172 91 88 166 vhcurveto
          413 vlineto
          -47 callgsubr
          -231 -43 vlineto
          -46 callgsubr
          -82 234 rmoveto
          hintmask 11101111
          25 callsubr
          hintmask 11011111
          -68 callsubr
        </CharString>
        <CharString name="Ucircumflex">
          -29 callsubr
          190 -20 hstem
          116 100 376 63 vstem
          592 259 rmoveto
          -151 -53 -64 -125 -133 -65 71 146 vhcurveto
          395 vlineto
          -47 callgsubr
          -268 -43 vlineto
          -46 callgsubr
          -412 vlineto
          -163 99 -92 177 172 91 88 166 vhcurveto
          413 vlineto
          -47 callgsubr
          -231 -43 vlineto
          -46 callgsubr
          -140 234 -93 callgsubr
        </CharString>
        <CharString name="Udieresis">
          -29 callsubr
          73 117 hstem
          116 100 16 -37 callgsubr
          13 63 vstem
          592 259 rmoveto
          -151 -53 -64 -125 -133 -65 71 146 vhcurveto
          395 vlineto
          -47 callgsubr
          -268 -43 vlineto
          -46 callgsubr
          -412 vlineto
          -163 99 -92 177 172 91 88 166 vhcurveto
          413 vlineto
          -47 callgsubr
          -231 -43 vlineto
          -46 callgsubr
          -360 175 -105 callsubr
        </CharString>
        <CharString name="Udotbelow">
          135 -28 callsubr
          54 35 callgsubr
          hstem
          116 100 127 125 124 63 vstem
          592 259 rmoveto
          -151 -53 -64 -125 -133 -65 71 146 vhcurveto
          395 vlineto
          -47 callgsubr
          -268 -43 vlineto
          -46 callgsubr
          -412 vlineto
          -163 99 -92 177 172 91 88 166 vhcurveto
          413 vlineto
          -47 callgsubr
          -231 -43 vlineto
          -46 callgsubr
          -249 -784 -106 callsubr
        </CharString>
        <CharString name="Ugrave">
          -29 callsubr
          195 -20 hstem
          116 100 376 63 vstem
          592 259 rmoveto
          -151 -53 -64 -125 -133 -65 71 146 vhcurveto
          395 vlineto
          -47 callgsubr
          -268 -43 vlineto
          -46 callgsubr
          -412 vlineto
          -163 99 -92 177 172 91 88 166 vhcurveto
          413 vlineto
          -47 callgsubr
          -231 -43 vlineto
          -46 callgsubr
          -178 191 rmoveto
          -77 callgsubr
        </CharString>
        <CharString name="Uhungarumlaut">
          -29 callsubr
          70 125 hstem
          116 100 376 63 vstem
          592 259 rmoveto
          -151 -53 -64 -125 -133 -65 71 146 vhcurveto
          395 vlineto
          -47 callgsubr
          -268 -43 vlineto
          -46 callgsubr
          -412 vlineto
          -163 99 -92 177 172 91 88 166 vhcurveto
          413 vlineto
          -47 callgsubr
          -231 -43 vlineto
          -46 callgsubr
          -301 114 -99 callsubr
          119 -77 -99 callsubr
          endchar
        </CharString>
        <CharString name="Umacron">
          -29 callsubr
          96 65 hstem
          116 100 376 63 vstem
          592 259 rmoveto
          -151 -53 -64 -125 -133 -65 71 146 vhcurveto
          395 vlineto
          -47 callgsubr
          -268 -43 vlineto
          -46 callgsubr
          -412 vlineto
          -163 99 -92 177 172 91 88 166 vhcurveto
          413 vlineto
          -47 callgsubr
          -231 -43 vlineto
          -46 callgsubr
          -327 140 -51 callgsubr
        </CharString>
        <CharString name="Uogonek">
          135 -210 58 141 35 callgsubr
          hstem
          116 100 71 72 233 63 vstem
          387 -92 callsubr
          31 17 33 34 30 hvcurveto
          160 6 85 88 160 vvcurveto
          413 vlineto
          -47 callgsubr
          -231 -43 vlineto
          -46 callgsubr
          -397 vlineto
          -151 -53 -64 -125 -133 -65 71 146 vhcurveto
          395 vlineto
          -47 callgsubr
          -268 -43 vlineto
          -46 callgsubr
          -412 vlineto
          -154 88 -90 158 -10 vhcurveto
          -50 -35 -25 -39 -41 40 callgsubr
        </CharString>
        <CharString name="Uring">
          -29 callsubr
          50 150 -97 -20 hstemhm
          116 100 114 151 111 63 hintmask 11101110
          592 259 rmoveto
          -151 -53 -64 -125 -133 -65 71 146 vhcurveto
          395 vlineto
          -47 callgsubr
          -268 -43 vlineto
          -46 callgsubr
          -412 vlineto
          -163 99 -92 177 172 91 88 166 vhcurveto
          413 vlineto
          -47 callgsubr
          -231 -43 vlineto
          -46 callgsubr
          -262 168 -42 callgsubr
          hintmask 11011110
          -6 callsubr
        </CharString>
        <CharString name="Utilde">
          -29 callsubr
          59 71 -15 70 hstemhm
          116 100 376 63 hintmask 11011100
          592 259 rmoveto
          -151 -53 -64 -125 -133 -65 71 146 vhcurveto
          395 vlineto
          -47 callgsubr
          -268 -43 vlineto
          -46 callgsubr
          -412 vlineto
          -163 99 -92 177 172 91 88 166 vhcurveto
          413 vlineto
          -47 callgsubr
          -231 -43 vlineto
          -46 callgsubr
          -371 114 -70 callgsubr
          hintmask 11101100
          -96 callsubr
          hintmask 11011100
          -80 callgsubr
        </CharString>
        <CharString name="V">
          79 41 callgsubr
          179 656 rmoveto
          82 -62 callsubr
          -270 -43 vlineto
          80 -21 243 -656 rlineto
          98 hlineto
          224 656 82 -62 callsubr
          -234 -43 vlineto
          83 -21 -186 -573 rlineto
          -4 hlineto
          endchar
        </CharString>
        <CharString name="W">
          404 41 callgsubr
          -98 callgsubr
          endchar
        </CharString>
        <CharString name="Wacute">
          404 -58 callsubr
          195 -20 hstem
          -98 callgsubr
          -396 113 -99 callsubr
          endchar
        </CharString>
        <CharString name="Wcircumflex">
          404 -58 callsubr
          190 -20 hstem
          -98 callgsubr
          -322 233 -93 callgsubr
        </CharString>
        <CharString name="Wdieresis">
          404 -58 callsubr
          73 117 hstem
          350 -37 callgsubr
          vstem
          -98 callgsubr
          -542 174 -105 callsubr
        </CharString>
        <CharString name="Wgrave">
          404 -58 callsubr
          195 -20 hstem
          -98 callgsubr
          -376 190 rmoveto
          -77 callgsubr
        </CharString>
        <CharString name="X">
          103 41 callgsubr
          331 677 rmoveto
          43 -317 -43 vlineto
          106 -21 195 -298 -211 -294 -93 -67 callgsubr
          272 43 vlineto
          -109 21 177 251 157 -251 -103 -21 2 -43 rlineto
          327 43 hlineto
          -106 21 -214 322 206 270 98 -62 callsubr
          -263 -43 vlineto
          91 -21 -168 -224 -141 224 rlineto
          endchar
        </CharString>
        <CharString name="Y">
          41 41 callgsubr
          293 100 vstem
          -96 callgsubr
          endchar
        </CharString>
        <CharString name="Yacute">
          23 callgsubr
          196 -20 hstem
          293 100 vstem
          -96 callgsubr
          -201 115 -99 callsubr
          endchar
        </CharString>
        <CharString name="Ycircumflex">
          23 callgsubr
          191 -20 hstem
          293 100 vstem
          -96 callgsubr
          -127 235 -93 callgsubr
        </CharString>
        <CharString name="Ydieresis">
          23 callgsubr
          74 117 hstemhm
          186 117 -10 100 23 117 hintmask 11101100
          -96 callgsubr
          hintmask 11110100
          -347 176 -105 callsubr
        </CharString>
        <CharString name="Ygrave">
          23 callgsubr
          196 -20 hstem
          293 100 vstem
          -96 callgsubr
          -177 192 rmoveto
          -77 callgsubr
        </CharString>
        <CharString name="Ytilde">
          23 callgsubr
          60 71 -15 70 hstemhm
          293 100 hintmask 11011000
          -96 callgsubr
          -358 115 -70 callgsubr
          hintmask 11101000
          -96 callsubr
          hintmask 11011000
          -80 callgsubr
        </CharString>
        <CharString name="Z">
          10 34 callsubr
          hstem
          511 60 -91 callgsubr
          endchar
        </CharString>
        <CharString name="Zacute">
          10 34 callsubr
          -60 235 hstemhm
          hintmask 11000000
          511 60 -91 callgsubr
          -241 547 rmoveto
          53 hlineto
          47 29 rlineto
          51 31 22 14 21 vvcurveto
          hintmask 10100000
          -43 callsubr
        </CharString>
        <CharString name="Zcaron">
          10 34 callsubr
          -60 230 hstemhm
          hintmask 11000000
          511 60 -91 callgsubr
          hintmask 10100000
          -48 667 -88 callsubr
        </CharString>
        <CharString name="Zdotaccent">
          10 34 callsubr
          50 125 hstem
          267 125 vstem
          511 60 -91 callgsubr
          -276 609 -106 callsubr
        </CharString>
        <CharString name="Zdotbelow">
          10 -28 callsubr
          65 60 600 60 hstem
          274 125 vstem
          511 60 -91 callgsubr
          -269 -351 -106 callsubr
        </CharString>
        <CharString name="a">
          -49 callsubr
          -9 callsubr
          hintmask 11010010
          -101 callgsubr
          hintmask 11001100
          -89 callsubr
          hintmask 10110100
          -104 callsubr
          endchar
        </CharString>
        <CharString name="aacute">
          -49 callsubr
          245 -20 -9 callsubr
          hintmask 11011001
          -101 callgsubr
          hintmask 11010110
          -89 callsubr
          hintmask 10111010
          -104 callsubr
          2 591 -100 callgsubr
          endchar
        </CharString>
        <CharString name="abreve">
          -49 callsubr
          79 69 -69 151 -17 callsubr
          -74 38 212 44 -28 84 hintmask 1101010001000000
          -101 callgsubr
          hintmask 1101001010000000
          -89 callsubr
          hintmask 1010110010000000
          -104 callsubr
          134 732 rmoveto
          hintmask 1101010010000000
          26 callsubr
          hintmask 1100100110000000
          -68 callgsubr
        </CharString>
        <CharString name="acircumflex">
          -49 callsubr
          240 -20 -9 callsubr
          hintmask 11011001
          -101 callgsubr
          hintmask 11010110
          -89 callsubr
          hintmask 10111010
          -104 callsubr
          86 742 -90 callgsubr
        </CharString>
        <CharString name="acute">
          -378 660 -21 156 -20 hstem
          40 639 -100 callgsubr
          endchar
        </CharString>
        <CharString name="acute.cap">
          -378 791 -21 125 -20 hstem
          40 0 callsubr
          endchar
        </CharString>
        <CharString name="adieresis">
          -49 callsubr
          97 117 -17 callsubr
          -86 -37 callgsubr
          -85 100 -84 84 hintmask 1101100001000000
          -101 callgsubr
          hintmask 1101010100000000
          -89 callsubr
          hintmask 1011100010000000
          -104 callsubr
          hintmask 1101001100000000
          -124 657 -105 callsubr
        </CharString>
        <CharString name="ae">
          36 callsubr
          39 callgsubr
          hintmask 11101011
          -59 callsubr
          hintmask 11100111
          -89 callsubr
          hintmask 11011011
          -61 callsubr
          endchar
        </CharString>
        <CharString name="aeacute">
          36 callsubr
          245 -20 39 callgsubr
          hintmask 1110110110000000
          -59 callsubr
          hintmask 1110101110000000
          -89 callsubr
          hintmask 1101110110000000
          -61 callsubr
          166 591 -100 callgsubr
          endchar
        </CharString>
        <CharString name="agrave">
          -49 callsubr
          245 -20 -17 callsubr
          192 84 hintmask 11011010
          -101 callgsubr
          hintmask 11010110
          -89 callsubr
          hintmask 10111010
          -104 callsubr
          40 667 -79 callgsubr
        </CharString>
        <CharString name="amacron">
          -49 callsubr
          115 65 -9 callsubr
          hintmask 11011001
          -101 callgsubr
          hintmask 11010110
          -89 callsubr
          hintmask 10111010
          -104 callsubr
          -92 617 -51 callgsubr
        </CharString>
        <CharString name="ampersand">
          130 -10 54 631 53 hstemhm
          66 100 -2 85 183 69 72 56 hintmask 11011100
          705 344 rmoveto
          41 -209 -41 vlineto
          77 -19 rlineto
          -69 -19 -65 -35 -50 vhcurveto
          -187 243 rlineto
          112 59 57 69 75 vvcurveto
          82 -69 59 -94 -103 -71 -71 -104 -53 18 -55 37 -59 vhcurveto
          hintmask 11101100
          -111 -61 -42 -55 -82 vvcurveto
          -123 98 -75 162 74 56 16 34 49 vhcurveto
          -33 39 44 -17 47 hhcurveto
          53 44 21 40 28 hvcurveto
          -26 37 rlineto
          -26 -20 -36 -18 -32 hhcurveto
          -36 -36 21 28 -13 hvcurveto
          42 62 26 89 81 vvcurveto
          -291 -277 rmoveto
          -110 -62 51 90 66 34 58 56 30 hvcurveto
          204 -261 rlineto
          -24 -35 -37 -10 -50 hhcurveto
          hintmask 11011100
          -89 528 rmoveto
          65 30 34 55 58 40 -38 -55 -55 -40 -45 -94 -52 vhcurveto
          -34 53 -15 46 47 vvcurveto
          endchar
        </CharString>
        <CharString name="aogonek">
          -100 49 callsubr
          59 310 191 -44 44 -17 callsubr
          127 72 -23 100 -84 84 hintmask 1110101000000000
          404 -92 callsubr
          32 18 33 34 30 hvcurveto
          26 2 36 9 43 18 rrcurveto
          30 -45 vlineto
          hintmask 1110010100000000
          -29 -6 21 66 hvcurveto
          145 vlineto
          105 -20 73 -42 42 vhcurveto
          32 -32 -47 17 -55 hhcurveto
          -89 callsubr
          hintmask 1101100100000000
          22 10 34 15 37 hhcurveto
          39 35 -17 -34 19 hvcurveto
          15 -27 8 -40 6 -78 rrcurveto
          -225 -34 -90 -55 -104 vvcurveto
          -79 51 -48 84 78 73 41 68 41 vhcurveto
          hintmask 1110100010000000
          4 hlineto
          -59 5 -30 17 -12 vhcurveto
          hintmask 1110101000000000
          -58 -37 -29 -42 -44 -28 callgsubr
          -189 258 rmoveto
          -47 -27 33 57 76 49 33 162 33 hvcurveto
          2 -20 2 -23 -22 vvcurveto
          -50 -10 -36 -21 -26 vhcurveto
          -35 -28 -45 -20 -37 hhcurveto
          endchar
        </CharString>
        <CharString name="apostrophe">
          -462 610 -21 106 95 hstem
          35 110 vstem
          91 790 -26 callsubr
        </CharString>
        <CharString name="aring">
          -49 callsubr
          79 42 86 42 -17 callsubr
          4 42 86 42 2 100 -84 84 hintmask 1101110110100000
          -101 callgsubr
          hintmask 1101101111000000
          -89 callsubr
          hintmask 1011110111000000
          -104 callsubr
          -34 665 -57 callsubr
        </CharString>
        <CharString name="aringacute">
          -49 callsubr
          47 42 86 42 -42 70 -17 callsubr
          -2 42 86 42 -42 64 -14 100 -84 84 hintmask 1101101011001000
          -101 callgsubr
          hintmask 1101100101010000
          -89 callsubr
          hintmask 1011101011010000
          -104 callsubr
          -40 633 rmoveto
          -17 5 -15 8 -13 vhcurveto
          -34 -46 rlineto
          53 hlineto
          16 15 rlineto
          -5 11 12 -3 13 hhcurveto
          48 38 37 47 12 -3 12 -4 11 hvcurveto
          hintmask 1101011010101000
          23 22 6 10 16 vvcurveto
          19 -12 12 -22 -18 -11 -6 -26 -21 vhcurveto
          hintmask 1101101011010000
          2 -8 -8 2 -8 hhcurveto
          -47 -37 -38 -48 hvcurveto
          42 hmoveto
          25 18 19 24 25 19 -19 -25 -24 -19 -18 -25 -24 -18 18 24 vhcurveto
          endchar
        </CharString>
        <CharString name="asciicircum">
          -255 660 -21 151 -20 hstem
          238 790 -90 callgsubr
        </CharString>
        <CharString name="asciitilde">
          -152 293 71 -15 70 hstemhm
          hintmask 01000000
          76 304 rmoveto
          45 hlineto
          28 6 20 17 28 hhcurveto
          hintmask 10000000
          48 27 -56 67 hhcurveto
          54 32 39 82 11 hvcurveto
          -45 hlineto
          -32 -6 -20 -18 -28 hhcurveto
          hintmask 01000000
          -48 -26 55 -68 hhcurveto
          -55 -32 -38 -77 -10 hvcurveto
          endchar
        </CharString>
        <CharString name="asterisk">
          -167 435 249 -227 -21 354 -20 hstemhm
          51 223 -80 80 -80 225 hintmask 10100100
          274 743 rmoveto
          29 -14 18 -26 -27 -13 -19 -28 -32 16 -45 6 -41 vhcurveto
          22 -44 -55 37 -28 hhcurveto
          hintmask 10110000
          -18 -20 -12 -30 -54 89 17 67 -11 hvcurveto
          -44 -44 -57 -45 -33 vvcurveto
          -18 20 -19 20 45 14 79 60 30 vhcurveto
          hintmask 01100100
          -57 29 17 -81 44 hhcurveto
          21 19 20 17 36 -60 42 -43 43 hvcurveto
          67 10 90 -15 55 vvcurveto
          30 -22 11 -17 -32 -50 -37 -24 -46 vhcurveto
          hintmask 10101000
          6 38 16 49 32 vvcurveto
          endchar
        </CharString>
        <CharString name="at">
          171 -136 37 133 42 334 39 109 36 hstem
          46 42 106 78 215 54 170 44 vstem
          409 449 rmoveto
          -122 -93 -109 -144 -104 51 -58 91 60 52 27 46 31 hvcurveto
          -42 8 36 -26 55 hhcurveto
          101 76 105 140 185 -132 125 -197 -214 -166 -173 -223 -207 133 -127 216 99 95 26 49 73 hvcurveto
          -19 31 rlineto
          -45 -70 -85 -24 -91 hhcurveto
          -195 -114 110 188 203 145 156 190 175 113 -109 -168 -114 -53 -91 -67 -34 -16 20 44 13 1 15 3 17 hvcurveto
          37 246 rlineto
          -40 hlineto
          -32 -37 rlineto
          36 -16 -34 19 -51 hhcurveto
          -1 -39 rmoveto
          56 23 -33 -81 -140 -51 -83 -85 -55 -24 34 79 136 54 88 82 hvcurveto
          endchar
        </CharString>
        <CharString name="atilde">
          -49 callsubr
          78 71 -15 70 -5 -20 -9 callsubr
          hintmask 1101011001000000
          -101 callgsubr
          hintmask 1101010110000000
          -89 callsubr
          hintmask 1010101010000000
          -104 callsubr
          -155 591 -70 callgsubr
          hintmask 1101011010000000
          -96 callsubr
          hintmask 1100101010000000
          -80 callgsubr
        </CharString>
        <CharString name="b">
          -36 -10 52 -21 -21 498 52 230 -20 hstemhm
          83 97 270 105 hintmask 01111100
          555 275 rmoveto
          85 -24 76 -41 51 vhcurveto
          44 -35 -57 19 -68 hhcurveto
          -61 -49 -17 -51 -40 hvcurveto
          298 48 callsubr
          -720 47 vlineto
          30 101 rlineto
          hintmask 10111100
          -85 41 53 -26 68 hhcurveto
          70 54 22 43 37 hvcurveto
          45 52 27 81 87 vvcurveto
          -375 -1 rmoveto
          81 13 60 22 37 vhcurveto
          31 18 35 15 46 26 callgsubr
          22 hvcurveto
          23 -38 12 -60 -80 vvcurveto
          -80 -10 -64 -24 -34 vhcurveto
          -20 callsubr
          37 -12 61 81 vvcurveto
          endchar
        </CharString>
        <CharString name="backslash">
          -327 41 callsubr
          110 730 rmoveto
          -57 hlineto
          146 -740 rlineto
          57 hlineto
          endchar
        </CharString>
        <CharString name="bar">
          -392 -149 -21 940 -20 hstem
          94 57 vstem
          94 -170 rmoveto
          57 940 -57 hlineto
          endchar
        </CharString>
        <CharString name="braceleft">
          37 callsubr
          145 87 -87 235 hintmask 11101000
          6 327 rmoveto
          34 hlineto
          74 31 -34 -79 hvcurveto
          -37 -7 -101 -37 vvcurveto
          -123 75 -58 167 -8 vhcurveto
          60 vlineto
          hintmask 11110000
          -107 5 -41 32 79 25 4 96 38 vvcurveto
          106 -31 48 -78 18 vhcurveto
          5 vlineto
          77 27 32 48 92 33 -4 93 24 vvcurveto
          hintmask 11101000
          78 40 31 108 7 vhcurveto
          60 vlineto
          -167 -8 -75 -59 -121 -37 7 -95 -37 vvcurveto
          -78 -32 -34 -73 vhcurveto
          -34 hlineto
          endchar
        </CharString>
        <CharString name="braceright">
          37 callsubr
          24 235 -87 87 hintmask 11110000
          398 386 rmoveto
          -34 hlineto
          -73 -32 34 78 hvcurveto
          37 7 95 37 vvcurveto
          121 -75 59 -167 8 vhcurveto
          -60 vlineto
          hintmask 11101000
          108 -7 40 -31 -78 -24 -4 -93 -33 vvcurveto
          -92 32 -48 77 -27 vhcurveto
          -5 vlineto
          -78 -18 -31 -48 -106 -38 4 -96 -25 vvcurveto
          hintmask 11110000
          -79 -41 -32 -107 -5 vhcurveto
          -60 vlineto
          167 8 75 58 123 37 -7 101 37 vvcurveto
          79 31 34 74 vhcurveto
          34 hlineto
          endchar
        </CharString>
        <CharString name="bracketleft">
          -269 -149 60 884 60 hstem
          93 89 vstem
          93 -149 rmoveto
          251 60 -162 884 162 60 -251 hlineto
          endchar
        </CharString>
        <CharString name="bracketright">
          -269 -149 60 884 60 hstem
          186 89 vstem
          275 855 rmoveto
          -251 -60 162 -884 -162 -60 251 hlineto
          endchar
        </CharString>
        <CharString name="breve">
          -273 629 33 callsubr
          35 52 callsubr
          hintmask 01110000
          281 780 rmoveto
          hintmask 10110000
          26 callsubr
          hintmask 01110000
          -68 callgsubr
        </CharString>
        <CharString name="breve.cap">
          -273 749 33 callgsubr
          35 52 callsubr
          hintmask 01110000
          281 890 rmoveto
          hintmask 10110000
          25 callsubr
          hintmask 01110000
          -68 callsubr
        </CharString>
        <CharString name="brokenbar">
          -388 -149 -21 940 -20 hstem
          96 57 vstem
          96 -170 rmoveto
          57 418 -57 hlineto
          120 vmoveto
          57 402 -57 hlineto
          endchar
        </CharString>
        <CharString name="bullet">
          -237 226 238 hstem
          82 237 vstem
          82 343 rmoveto
          -75 43 -42 75 73 46 44 73 73 -46 48 -73 -73 -45 -46 -75 vhcurveto
          endchar
        </CharString>
        <CharString name="c">
          24 callgsubr
          hstemhm
          46 105 218 -97 callgsubr
          hintmask 11110000
          -44 callsubr
          vhcurveto
          endchar
        </CharString>
        <CharString name="cacute">
          24 callgsubr
          245 -20 hstemhm
          46 105 218 -97 callgsubr
          hintmask 11111000
          -44 callsubr
          vhcurveto
          -27 89 -100 callgsubr
          endchar
        </CharString>
        <CharString name="caron">
          -285 660 -21 141 -20 hstem
          312 780 -75 callsubr
        </CharString>
        <CharString name="caron.alt">
          -518 626 -21 185 -20 hstemhm
          20 59 -40 60 hintmask 11100000
          79 605 rmoveto
          hintmask 11010000
          -2 callgsubr
          hintmask 11100000
          -12 callsubr
        </CharString>
        <CharString name="caron.cap">
          -285 790 -21 121 -20 hstem
          342 890 -88 callsubr
        </CharString>
        <CharString name="ccaron">
          24 callgsubr
          230 -20 hstemhm
          46 105 218 -97 callgsubr
          hintmask 11111000
          -44 callsubr
          vhcurveto
          136 230 -75 callsubr
        </CharString>
        <CharString name="ccedilla">
          -101 27 callgsubr
          53 66 260 233 -51 51 hstemhm
          46 105 152 71 -5 123 hintmask 11101110
          261 -55 callgsubr
          30 50 85 4 64 37 50 78 rlinecurve
          -30 24 rlineto
          -49 -40 -59 -28 -61 hhcurveto
          -60 -45 27 50 -26 hvcurveto
          -17 33 -9 47 65 vvcurveto
          151 48 69 109 55 36 -17 -38 20 vhcurveto
          hintmask 11110101
          -31 -9 -19 -26 -33 vvcurveto
          -44 callsubr
          -155 -101 -113 -173 -62 13 -57 23 -43 vhcurveto
          34 -64 58 -38 77 -8 -57 -75 rcurveline
          -35 callsubr
          hintmask 11110110
          -76 callgsubr
        </CharString>
        <CharString name="ccircumflex">
          24 callgsubr
          240 -20 hstemhm
          46 105 218 -97 callgsubr
          hintmask 11111000
          -44 callsubr
          vhcurveto
          47 240 -90 callgsubr
        </CharString>
        <CharString name="cdotaccent">
          24 callgsubr
          89 125 hstemhm
          46 105 89 125 4 -97 callgsubr
          hintmask 11111100
          -44 callsubr
          vhcurveto
          -62 151 -106 callsubr
        </CharString>
        <CharString name="cedilla">
          -383 27 callgsubr
          79 -20 hstem
          158 71 vstem
          116 -55 callgsubr
          46 76 rlineto
          -44 hlineto
          -77 -100 -35 callsubr
          -76 callgsubr
        </CharString>
        <CharString name="cent">
          -86 -87 -21 99 66 260 233 -51 51 102 -20 hstemhm
          51 105 110 47 71 123 hintmask 11011111
          266 -108 rmoveto
          47 99 hlineto
          81 6 60 38 49 75 -30 24 rcurveline
          -49 -40 -59 -28 -61 hhcurveto
          442 vlineto
          59 40 -17 -38 22 hvcurveto
          -31 -9 -19 -26 -33 vvcurveto
          hintmask 11101111
          -36 23 -23 38 41 21 27 49 94 -79 62 -115 1 vhcurveto
          102 -47 -105 vlineto
          -134 -19 -81 -108 -156 vvcurveto
          -62 13 -57 23 -43 vhcurveto
          35 -67 62 -38 82 -6 rrcurveto
          -84 143 rmoveto
          -17 33 -9 47 65 vvcurveto
          127 33 68 77 19 vhcurveto
          -430 vlineto
          -37 11 -29 23 -18 37 rrcurveto
          endchar
        </CharString>
        <CharString name="circumflex">
          -285 660 -21 151 -20 hstem
          223 790 -90 callgsubr
        </CharString>
        <CharString name="circumflex.cap">
          -285 790 -21 121 -20 hstem
          223 890 -93 callgsubr
        </CharString>
        <CharString name="colon">
          -372 -10 128 223 128 hstem
          69 127 vstem
          69 8 callsubr
          351 vmoveto
          -80 callsubr
          endchar
        </CharString>
        <CharString name="comma">
          -390 -128 24 callsubr
          56 134 vstem
          121 118 rmoveto
          -95 callgsubr
          endchar
        </CharString>
        <CharString name="commaaccent">
          -457 -27 callsubr
          hstem
          35 110 vstem
          91 -44 rmoveto
          -103 callgsubr
        </CharString>
        <CharString name="copyright">
          205 -10 40 139 38 318 34 -6 -20 157 40 hstemhm
          52 47 147 64 435 45 hintmask 11101111
          422 -10 rmoveto
          207 161 162 209 208 -160 161 -208 -209 -161 -161 -208 -209 162 -162 208 hvcurveto
          40 vmoveto
          -184 -139 142 189 188 139 141 184 184 139 -142 -187 -188 -139 -143 -184 hvcurveto
          -3 495 rmoveto
          60 36 -31 -62 10 hvcurveto
          32 hlineto
          hintmask 11011111
          121 -29 vlineto
          -10 -33 rlineto
          hintmask 11101111
          29 -28 -23 10 -43 hhcurveto
          -45 -34 -11 -22 -27 hvcurveto
          -45 -36 -27 -64 -66 vvcurveto
          -59 21 -54 38 -36 vhcurveto
          -28 29 38 -14 48 hhcurveto
          82 47 41 87 16 hvcurveto
          -29 hlineto
          -59 -11 -37 -31 -62 hhcurveto
          -40 -27 13 30 -19 hvcurveto
          -19 29 -11 43 47 vvcurveto
          51 12 45 22 28 vhcurveto
          22 16 24 10 35 hhcurveto
          endchar
        </CharString>
        <CharString name="d">
          -17 18 callsubr
          230 -20 hstem
          51 callsubr
          vstem
          -94 callgsubr
          endchar
        </CharString>
        <CharString name="dagger">
          -201 -49 -21 578 53 -36 36 -36 53 212 -20 hstemhm
          31 205 -58 58 -36 36 -36 58 -58 205 hintmask 1100100010000000
          200 520 rmoveto
          -237 vlineto
          hintmask 1100101000000000
          -171 -22 -93 -42 vvcurveto
          -28 13 -19 27 vhcurveto
          hintmask 1100100010000000
          26 14 18 29 hvcurveto
          hintmask 1001110000000000
          42 -22 93 171 vvcurveto
          237 vlineto
          5 5 rlineto
          hintmask 1100100001000000
          27 59 -17 31 hhcurveto
          29 18 12 23 hvcurveto
          hintmask 1001110000000000
          24 -19 11 -28 vhcurveto
          hintmask 1100101000000000
          -31 -59 -17 -27 hhcurveto
          -5 5 rlineto
          hintmask 1100100010000000
          41 22 104 32 vvcurveto
          29 -14 18 -26 vhcurveto
          hintmask 1100101000000000
          -27 -13 -19 -28 hvcurveto
          hintmask 1100100100000000
          -32 22 -104 -41 vvcurveto
          -5 -5 rlineto
          hintmask 1001110000000000
          56 callgsubr
          hintmask 1100110000000000
          -23 18 -12 29 vhcurveto
          hintmask 1010100100000000
          31 57 17 29 hhcurveto
          endchar
        </CharString>
        <CharString name="daggerdbl">
          -177 -49 -21 212 53 -36 36 -36 53 296 53 -36 36 -36 53 212 -20 hstemhm
          43 205 -58 80 -58 36 -36 205 hintmask 1100001110000000
          248 371 rmoveto
          50 1 49 4 50 vhcurveto
          5 5 rlineto
          hintmask 1100100100010000
          27 54 -17 31 hhcurveto
          29 18 12 23 hvcurveto
          hintmask 1100001110000000
          24 -19 11 -28 vhcurveto
          hintmask 1100100100100000
          -31 -59 -17 -27 hhcurveto
          -5 5 rlineto
          hintmask 1100100101000000
          41 22 104 32 vvcurveto
          29 -14 18 -26 -27 -13 -19 -28 vhcurveto
          hintmask 1100100100100000
          -32 22 -104 -41 vvcurveto
          -5 -5 rlineto
          hintmask 1100001110000000
          56 callgsubr
          hintmask 1100100110000000
          -23 18 -12 29 vhcurveto
          hintmask 1100010100100000
          31 52 17 29 hhcurveto
          5 -5 rlineto
          4 -50 1 -49 -50 vvcurveto
          -57 -1 -57 -4 -57 vhcurveto
          -5 -5 rlineto
          hintmask 1001100110000000
          -29 -52 17 -31 hhcurveto
          -29 -18 -12 -23 hvcurveto
          hintmask 1100100110000000
          -24 19 -11 28 vhcurveto
          hintmask 1010100100100000
          31 57 17 29 hhcurveto
          5 -5 rlineto
          hintmask 1100100101000000
          -41 -22 -104 -32 vvcurveto
          -28 13 -19 27 26 14 18 29 vhcurveto
          hintmask 1001100110000000
          32 -22 104 41 vvcurveto
          5 5 rlineto
          hintmask 1100100100010000
          27 59 -17 31 hhcurveto
          28 19 11 24 hvcurveto
          hintmask 1001100110000000
          23 -18 12 -29 vhcurveto
          hintmask 1100100110000000
          -31 -54 -17 -27 hhcurveto
          -5 5 rlineto
          -4 57 -1 57 57 vvcurveto
          endchar
        </CharString>
        <CharString name="dcaron">
          -17 18 callsubr
          230 -20 30 -20 hstemhm
          51 callsubr
          76 59 -40 60 hintmask 11101110
          -94 callgsubr
          232 339 rmoveto
          hintmask 11011101
          -2 callgsubr
          hintmask 11101110
          -12 callsubr
        </CharString>
        <CharString name="dcroat">
          -17 18 callsubr
          60 62 -62 170 hstemhm
          51 callsubr
          hintmask 11101100
          314 610 rmoveto
          107 -138 hlineto
          58 -39 -48 20 -59 hhcurveto
          -70 -53 -23 -42 -38 hvcurveto
          -45 -50 -23 -83 -87 vvcurveto
          -56 callgsubr
          155 10 rlineto
          -66 callgsubr
          550 77 62 -77 vlineto
          hintmask 11011100
          108 48 callsubr
          hintmask 11101100
          -48 -107 vlineto
          107 -406 rmoveto
          -81 -13 -60 -18 callgsubr
          -92 callgsubr
          endchar
        </CharString>
        <CharString name="ddotbelow">
          -17 -28 callsubr
          55 -16 callgsubr
          230 -20 hstem
          46 105 62 125 83 97 vstem
          -94 callgsubr
          -208 -394 -106 callsubr
        </CharString>
        <CharString name="degree">
          -276 458 36 199 37 hstem
          47 50 168 50 vstem
          181 458 rmoveto
          76 58 59 78 80 -55 55 -79 -77 -57 -59 -78 -80 54 -55 80 hvcurveto
          2 36 rmoveto
          -50 -36 42 58 58 34 41 48 51 35 -41 -59 -59 -33 -40 -49 hvcurveto
          endchar
        </CharString>
        <CharString name="dieresis">
          -230 647 117 hstem
          30 -37 callgsubr
          vstem
          30 705 -105 callsubr
        </CharString>
        <CharString name="dieresis.cap">
          -230 773 117 hstem
          30 -37 callgsubr
          vstem
          30 831 -105 callsubr
        </CharString>
        <CharString name="divide">
          -82 115 120 90 54 90 120 hstem
          222 119 cntrmask 11100000
          59 325 rmoveto
          438 54 -438 hlineto
          163 -205 rmoveto
          17 callgsubr
          354 vmoveto
          17 callgsubr
          endchar
        </CharString>
        <CharString name="dollar">
          -69 -109 -21 120 54 -54 243 618 -20 hstemhm
          41 122 -110 110 100 47 78 117 -82 108 hintmask 1101101010000000
          263 -130 rmoveto
          47 120 hlineto
          134 6 87 73 124 vvcurveto
          114 -74 36 -147 67 vhcurveto
          265 vlineto
          52 -5 37 -22 25 -42 rrcurveto
          hintmask 1101011100000000
          -21 -10 -15 -22 -26 vvcurveto
          -33 24 -22 33 37 23 28 43 76 -76 76 -119 13 vhcurveto
          122 -47 -120 vlineto
          -127 -5 -83 -76 -118 vvcurveto
          -128 98 -46 96 -40 vhcurveto
          5 -2 5 -3 6 -2 rrcurveto
          -267 vlineto
          -69 4 -45 29 -28 38 rrcurveto
          21 11 21 23 30 vvcurveto
          hintmask 1011101010000000
          31 -22 23 -36 -41 -23 -28 -43 -82 83 -80 139 -10 vhcurveto
          160 165 rmoveto
          -62 -41 -39 -72 -9 vhcurveto
          245 vlineto
          64 -30 49 -37 -68 vvcurveto
          -269 402 rmoveto
          69 35 42 74 7 vhcurveto
          -244 vlineto
          -75 35 -34 25 66 vvcurveto
          endchar
        </CharString>
        <CharString name="dotaccent">
          -452 639 125 hstem
          30 125 vstem
          30 701 -106 callsubr
        </CharString>
        <CharString name="dotaccent.cap">
          -452 770 125 hstem
          30 125 vstem
          30 832 -106 callsubr
        </CharString>
        <CharString name="dotbelow">
          -452 -28 callsubr
          hstem
          30 125 vstem
          30 -128 -106 callsubr
        </CharString>
        <CharString name="dotlessi">
          -30 callsubr
          hstemhm
          36 -34 callsubr
          hintmask 11010000
          -47 callsubr
          30 callgsubr
          480 -51 callsubr
          endchar
        </CharString>
        <CharString name="dotlessj">
          -353 -35 callgsubr
          578 -20 hstemhm
          -83 102 85 97 hintmask 10111000
          201 540 -86 callgsubr
          hintmask 01111000
          -91 callsubr
          endchar
        </CharString>
        <CharString name="e">
          -93 -10 54 callsubr
          250 101 vstem
          -106 callgsubr
          endchar
        </CharString>
        <CharString name="eacute">
          -48 callsubr
          245 -20 hstem
          47 102 250 101 vstem
          -106 callgsubr
          -23 143 -100 callgsubr
          endchar
        </CharString>
        <CharString name="ebreve">
          -48 callsubr
          79 33 callsubr
          47 102 -5 48 207 39 -39 101 hintmask 1110110010000000
          -106 callgsubr
          109 284 rmoveto
          hintmask 1111010100000000
          26 callsubr
          hintmask 1110101100000000
          -68 callgsubr
        </CharString>
        <CharString name="ecaron">
          -48 callsubr
          230 -20 hstem
          47 102 250 101 vstem
          -106 callgsubr
          140 284 -75 callsubr
        </CharString>
        <CharString name="ecircumflex">
          -48 callsubr
          240 -20 hstem
          47 102 250 101 vstem
          -106 callgsubr
          60 294 -90 callgsubr
        </CharString>
        <CharString name="edieresis">
          -48 callsubr
          97 117 hstemhm
          47 102 -35 -37 callgsubr
          -62 101 hintmask 11111001
          497 264 rmoveto
          3 26 0 8 13 vvcurveto
          149 -77 90 -136 -148 -92 -107 -187 -58 9 -51 20 -41 vhcurveto
          -76 37 74 -40 92 hhcurveto
          105 62 52 64 47 hvcurveto
          hintmask 11111010
          -32 24 rlineto
          -45 -41 -52 -28 -63 hhcurveto
          -58 -53 24 62 -26 hvcurveto
          -13 31 -7 40 50 vvcurveto
          133 232 rmoveto
          hintmask 11111001
          -90 callsubr
          hintmask 11110110
          -167 209 -105 callsubr
        </CharString>
        <CharString name="edotaccent">
          -48 callsubr
          89 125 hstem
          47 102 74 125 51 101 vstem
          -106 callgsubr
          -58 205 -106 callsubr
        </CharString>
        <CharString name="edotbelow">
          -93 -28 callsubr
          55 54 callsubr
          71 125 54 101 vstem
          -106 callgsubr
          -61 -624 -106 callsubr
        </CharString>
        <CharString name="egrave">
          -48 callsubr
          245 -20 hstem
          47 102 250 101 vstem
          -106 callgsubr
          10 219 -79 callgsubr
        </CharString>
        <CharString name="eight">
          -65 -10 54 633 54 hstemhm
          53 70 -37 85 250 65 -65 98 hintmask 11011000
          486 571 rmoveto
          100 -72 60 -120 -130 -78 -70 -115 -69 28 -46 74 -53 vhcurveto
          hintmask 11100100
          -93 -53 -42 -62 -85 vvcurveto
          -118 80 -70 136 150 100 83 125 80 -43 57 -99 54 vhcurveto
          hintmask 11101000
          69 41 40 66 75 vvcurveto
          -257 -219 rmoveto
          148 -79 44 -43 -63 vvcurveto
          -81 -52 -42 -99 -99 -48 44 91 76 33 54 73 43 vhcurveto
          105 63 rmoveto
          hintmask 11011000
          -120 54 -43 42 63 vvcurveto
          69 42 34 83 86 44 -37 -73 -65 -35 -59 -57 -28 vhcurveto
          endchar
        </CharString>
        <CharString name="eightinferior">
          -316 51 callgsubr
          hstemhm
          54 -4 callsubr
          hintmask 11011000
          257 251 -66 callsubr
        </CharString>
        <CharString name="eightsuperior">
          -316 397 30 273 30 hstemhm
          53 -4 callsubr
          hintmask 11011000
          256 658 -66 callsubr
        </CharString>
        <CharString name="ellipsis">
          79 -10 128 hstem
          57 127 116 127 106 127 vstem
          57 8 callsubr
          243 hmoveto
          -80 callsubr
          233 hmoveto
          -80 callsubr
          endchar
        </CharString>
        <CharString name="emacron">
          -48 callsubr
          115 65 hstem
          47 102 250 101 vstem
          -106 callgsubr
          -136 169 -51 callgsubr
        </CharString>
        <CharString name="emdash">
          290 249 58 hstem
          63 249 rmoveto
          801 58 -801 hlineto
          endchar
        </CharString>
        <CharString name="endash">
          -19 249 58 hstem
          62 249 rmoveto
          494 58 -494 hlineto
          endchar
        </CharString>
        <CharString name="eng">
          -8 -15 callsubr
          479 71 -10 -20 42 callgsubr
          62 102 85 97 hintmask 10110111
          459 -24 rmoveto
          -97 -15 -32 -47 -21 -16 6 9 -2 vhcurveto
          11 11 5 15 19 vvcurveto
          hintmask 01110111
          -91 callsubr
          196 vlineto
          114 -11 64 -26 37 vhcurveto
          34 -25 -45 20 -53 hhcurveto
          -78 -72 -42 -68 -40 hvcurveto
          -4 hlineto
          hintmask 10101111
          -22 100 rlineto
          -144 -41 hlineto
          77 -19 rlineto
          -420 vlineto
          -71 callsubr
          34 29 26 rrcurveto
          hintmask 10110111
          23 26 37 14 37 hhcurveto
          41 31 -17 -32 16 hvcurveto
          12 -24 4 -37 -86 vvcurveto
          endchar
        </CharString>
        <CharString name="eogonek">
          -93 49 callsubr
          54 callsubr
          15 72 163 101 vstem
          264 -92 callsubr
          32 18 33 34 30 hvcurveto
          99 3 60 51 46 62 -32 24 rcurveline
          -45 -41 -52 -28 -63 hhcurveto
          -58 -53 24 62 -26 hvcurveto
          -13 31 -7 40 50 vvcurveto
          349 hlineto
          3 26 0 8 13 vvcurveto
          149 -77 90 -136 -148 -92 -107 -187 -58 9 -51 20 -41 vhcurveto
          32 -66 59 -39 75 -9 rrcurveto
          -51 -36 -27 -39 -42 -28 callgsubr
          17 706 10 callgsubr
        </CharString>
        <CharString name="equal">
          -61 235 59 129 58 hstem
          74 423 rmoveto
          428 58 -428 hlineto
          -246 vmoveto
          428 59 -428 hlineto
          endchar
        </CharString>
        <CharString name="eth">
          -68 -10 55 328 57 300 -20 hstemhm
          32 107 266 116 -95 95 hintmask 11111000
          139 210 rmoveto
          54 callgsubr
          55 callgsubr
          vhcurveto
          283 141 rmoveto
          49 -37 -67 30 -73 hhcurveto
          -127 -86 -88 -131 -135 91 -86 145 163 90 109 195 120 -36 92 -93 115 hvcurveto
          75 33 -25 48 -89 -39 -35 36 -19 19 -17 12 rlinecurve
          -52 -19 24 -22 25 -28 18 -22 rlinecurve
          -121 -53 23 -51 133 58 rlineto
          hintmask 11110100
          53 -63 36 -88 5 -91 rrcurveto
          endchar
        </CharString>
        <CharString name="etilde">
          -48 callsubr
          78 -10 callgsubr
          47 102 250 101 hintmask 11101011
          -106 callgsubr
          -180 143 -70 callgsubr
          hintmask 11110111
          -96 callsubr
          hintmask 11101011
          -80 callgsubr
        </CharString>
        <CharString name="exclam">
          -352 -10 125 615 -20 hstemhm
          85 114 -85 56 hintmask 11010000
          170 205 rmoveto
          103 12 144 4 48 vhcurveto
          hintmask 11100000
          4 49 9 46 56 vvcurveto
          43 -14 36 -41 -40 -19 -33 -47 -55 9 -46 4 -49 vhcurveto
          hintmask 11010000
          4 -48 12 -144 -103 vvcurveto
          90 -153 rmoveto
          39 -23 24 -39 -39 -23 -25 -38 -39 24 -23 39 38 23 22 40 vhcurveto
          endchar
        </CharString>
        <CharString name="exclamdown">
          -372 -169 -21 615 125 hstemhm
          75 114 -85 56 hintmask 11010000
          104 335 rmoveto
          -103 -12 -144 -4 -48 vhcurveto
          hintmask 11100000
          -4 -49 -9 -46 -55 vvcurveto
          -47 19 -33 40 41 14 36 43 56 -9 46 -4 49 vhcurveto
          hintmask 11010000
          -4 48 -12 144 103 vvcurveto
          34 153 rmoveto
          40 -23 22 -38 -39 -24 -23 -39 -38 23 -25 39 39 23 24 39 vhcurveto
          endchar
        </CharString>
        <CharString name="f">
          -274 34 callgsubr
          92 158 -38 38 hstemhm
          115 97 115 103 hintmask 11011100
          39 callsubr
          282 25 callgsubr
          430 128 50 -128 50 vlineto
          63 0 62 45 27 7 callsubr
          hintmask 11101100
          36 callgsubr
          -113 -72 -87 -153 vhcurveto
          -27 callgsubr
          endchar
        </CharString>
        <CharString name="f_b">
          310 0 42 -31 -21 500 60 -10 -20 232 -44 callgsubr
          270 105 hintmask 1010011110000000
          901 275 rmoveto
          85 -24 76 -41 51 vhcurveto
          44 -35 -57 19 -68 hhcurveto
          -61 -49 -17 -51 -40 hvcurveto
          298 18 callgsubr
          hintmask 1010101110000000
          33 -28 -48 17 -60 hhcurveto
          -141 -86 -92 -148 hvcurveto
          hintmask 1001101110000000
          -27 callgsubr
          hintmask 1010101110000000
          -23 callgsubr
          -490 47 vlineto
          30 101 rlineto
          hintmask 0110101110000000
          -85 41 53 -26 68 hhcurveto
          70 54 22 43 37 hvcurveto
          45 52 27 81 87 vvcurveto
          -375 -1 rmoveto
          81 13 60 22 37 vhcurveto
          31 18 35 15 46 26 callgsubr
          22 hvcurveto
          23 -38 12 -60 -80 vvcurveto
          -80 -10 -64 -24 -34 vhcurveto
          hintmask 1001101110000000
          -22 callsubr
          endchar
        </CharString>
        <CharString name="f_f">
          40 34 callgsubr
          92 158 -68 38 -8 38 hstemhm
          115 97 217 97 115 103 hintmask 11001111
          39 callsubr
          242 41 vlineto
          -68 19 rlineto
          430 217 -430 vlineto
          -57 -65 callgsubr
          262 25 callgsubr
          430 128 50 -128 50 vlineto
          61 0 65 45 26 7 callsubr
          hintmask 11100111
          36 callgsubr
          -62 -49 -26 -48 -32 vhcurveto
          hintmask 11010111
          27 -31 -57 17 -63 hhcurveto
          -130 -75 -75 -135 hvcurveto
          -27 callgsubr
          411 14 rmoveto
          -217 50 hlineto
          86 36 46 76 75 30 -46 -113 vhcurveto
          endchar
        </CharString>
        <CharString name="f_f_b">
          624 0 42 -31 -21 500 60 -10 -20 202 38 -8 -44 callgsubr
          217 97 270 105 hintmask 1010001111100000
          1215 275 rmoveto
          85 -24 76 -41 51 vhcurveto
          44 -35 -57 19 -68 hhcurveto
          -61 -49 -17 -51 -40 hvcurveto
          298 18 callgsubr
          hintmask 1010010111100000
          33 -28 -48 17 -60 hhcurveto
          -83 -64 -32 -56 -39 hvcurveto
          hintmask 1010100111100000
          40 -36 -46 18 -64 hhcurveto
          -133 -76 -76 -134 hvcurveto
          hintmask 1001100111100000
          -27 callgsubr
          hintmask 1010100111100000
          -23 callgsubr
          -18 callsubr
          -490 47 vlineto
          30 101 rlineto
          hintmask 0110100111100000
          -85 41 53 -26 68 hhcurveto
          70 54 22 43 37 hvcurveto
          45 52 27 81 87 vvcurveto
          -375 -1 rmoveto
          81 13 60 22 37 vhcurveto
          31 18 35 15 46 26 callgsubr
          22 hvcurveto
          23 -38 12 -60 -80 vvcurveto
          -80 -10 -64 -24 -34 vhcurveto
          hintmask 1001010111100000
          -22 callsubr
          -314 50 rmoveto
          hintmask 1001100111100000
          -32 callgsubr
        </CharString>
        <CharString name="f_f_h">
          647 56 callsubr
          60 -10 -20 202 38 -8 -44 callgsubr
          216 97 249 97 hintmask 1100011111000000
          1088 -33 callsubr
          hintmask 1100101111000000
          37 callgsubr
          hintmask 1101001111000000
          43 -37 -47 19 -66 hhcurveto
          -133 -76 -76 -134 hvcurveto
          hintmask 1011001111000000
          -27 callgsubr
          hintmask 1100101111000000
          -23 callgsubr
          -430 vlineto
          -67 -65 callgsubr
          242 41 vlineto
          -78 19 rlineto
          430 216 -430 vlineto
          -77 -50 callsubr
          -67 19 rlineto
          271 vlineto
          48 15 37 30 26 vhcurveto
          23 26 37 14 37 hhcurveto
          41 31 -17 -32 16 hvcurveto
          12 -24 4 -37 -86 vvcurveto
          -562 307 rmoveto
          108 39 54 76 64 37 -39 -68 vhcurveto
          hintmask 1011001111000000
          -105 -216 vlineto
          -314 50 rmoveto
          -32 callgsubr
        </CharString>
        <CharString name="f_f_i">
          304 34 callgsubr
          82 168 -68 38 -8 38 hstemhm
          115 97 217 97 216 97 hintmask 11001111
          18 490 rmoveto
          97 -430 hlineto
          -69 callgsubr
          -430 vlineto
          -67 -65 callgsubr
          242 41 vlineto
          -78 19 rlineto
          430 216 -430 vlineto
          -67 -50 callsubr
          -77 19 rlineto
          480 -8 callgsubr
          hintmask 11100111
          9 callsubr
          hintmask 11010111
          -24 callsubr
        </CharString>
        <CharString name="f_f_j">
          285 -15 callsubr
          490 50 82 168 -68 38 -8 38 hstemhm
          115 97 217 97 30 102 85 96 hintmask 1011100111100000
          18 490 rmoveto
          97 -430 hlineto
          -69 callgsubr
          -430 vlineto
          -67 -65 callgsubr
          242 41 vlineto
          -78 19 rlineto
          430 217 -514 vlineto
          -97 -15 -32 -47 -21 -16 6 9 -2 vhcurveto
          11 11 5 15 19 vvcurveto
          hintmask 0111001111100000
          35 -18 20 -31 -32 -21 -22 -35 -55 52 -40 71 63 51 32 57 25 vhcurveto
          16 36 5 51 99 vvcurveto
          455 -8 callgsubr
          hintmask 1011100111100000
          9 callsubr
          hintmask 1011010111100000
          -24 callsubr
        </CharString>
        <CharString name="f_f_k">
          599 34 callgsubr
          182 38 -8 -44 callgsubr
          216 97 hintmask 11001111
          1010 -74 callgsubr
          529 18 callgsubr
          hintmask 11010111
          37 callgsubr
          hintmask 11100111
          43 -37 -47 19 -66 hhcurveto
          -133 -76 -76 -134 hvcurveto
          -27 callgsubr
          -23 callgsubr
          -430 vlineto
          -67 -65 callgsubr
          242 41 vlineto
          -78 19 rlineto
          430 216 -430 vlineto
          -45 callgsubr
          -543 530 rmoveto
          hintmask 11010111
          108 39 54 76 63 38 -38 -64 vhcurveto
          -110 -216 vlineto
          -314 50 rmoveto
          hintmask 11100111
          -32 callgsubr
        </CharString>
        <CharString name="f_f_l">
          308 34 callgsubr
          182 38 -8 -44 callgsubr
          216 97 hintmask 11010111
          657 790 rmoveto
          -83 -63 -32 -60 -37 hvcurveto
          hintmask 11001111
          43 -37 -47 19 -66 hhcurveto
          -133 -76 -76 -134 hvcurveto
          -27 callgsubr
          -23 callgsubr
          -430 vlineto
          -67 -65 callgsubr
          242 41 vlineto
          -78 19 rlineto
          430 216 -430 vlineto
          -67 -19 rlineto
          -41 241 -3 callgsubr
          18 callgsubr
          hintmask 11010111
          33 -29 -45 17 -60 hhcurveto
          -131 -200 rmoveto
          108 39 54 76 64 37 -39 -68 vhcurveto
          -105 -216 vlineto
          -314 50 rmoveto
          hintmask 11100111
          -32 callgsubr
        </CharString>
        <CharString name="f_h">
          334 56 callsubr
          60 -10 -20 232 -44 callgsubr
          249 97 hintmask 11001111
          775 -33 callsubr
          hintmask 11010111
          30 callsubr
          hintmask 10110111
          -27 callgsubr
          hintmask 11010111
          -23 callgsubr
          -430 vlineto
          -77 -50 callsubr
          -67 19 rlineto
          275 vlineto
          46 14 34 31 27 vhcurveto
          23 26 37 14 37 hhcurveto
          41 31 -17 -32 16 hvcurveto
          12 -24 4 -37 -86 vvcurveto
          -563 307 53 callgsubr
          hintmask 10110111
          -110 -217 vlineto
          endchar
        </CharString>
        <CharString name="f_i">
          -9 34 callgsubr
          82 168 -38 38 hstemhm
          115 97 217 97 hintmask 11011100
          18 490 rmoveto
          97 -430 hlineto
          -9 callgsubr
          480 -314 50 vlineto
          0 callgsubr
          hintmask 11101100
          1 callgsubr
          endchar
        </CharString>
        <CharString name="f_j">
          -28 -15 callsubr
          490 50 82 168 -38 38 hstemhm
          115 97 30 102 85 97 hintmask 1011011110000000
          526 540 rmoveto
          -314 50 hlineto
          0 callgsubr
          hintmask 1011101110000000
          1 callgsubr
          -23 callgsubr
          -514 vlineto
          -97 -15 -32 -47 -21 -16 6 9 -2 vhcurveto
          11 11 5 15 19 vvcurveto
          hintmask 0111101110000000
          -91 callsubr
          endchar
        </CharString>
        <CharString name="f_k">
          286 34 callgsubr
          212 -44 callgsubr
          hintmask 11011100
          697 -74 callgsubr
          529 18 callgsubr
          hintmask 11101100
          30 callsubr
          -27 callgsubr
          -23 callgsubr
          -430 vlineto
          -45 callgsubr
          -544 530 53 callgsubr
          -110 -217 vlineto
          endchar
        </CharString>
        <CharString name="f_l">
          -5 34 callgsubr
          212 -44 callgsubr
          hintmask 11101100
          342 790 rmoveto
          -141 -86 -92 -148 hvcurveto
          -27 callgsubr
          -36 97 -430 vlineto
          -9 callgsubr
          hintmask 11011100
          720 18 callgsubr
          hintmask 11101100
          33 -28 -48 17 -60 hhcurveto
          -130 -200 rmoveto
          108 39 54 75 65 38 -39 -68 vhcurveto
          -105 -217 vlineto
          endchar
        </CharString>
        <CharString name="five">
          -87 -10 52 354 55 174 95 32 -20 hstem
          45 134 218 108 vstem
          481 752 rmoveto
          -42 hlineto
          -18 -32 rlineto
          -288 hlineto
          -57 -354 48 -20 rlineto
          33 26 57 17 53 hhcurveto
          105 32 -68 -106 -108 -33 -72 -106 -77 -58 36 49 -11 hvcurveto
          42 25 30 32 32 -20 28 -40 -40 -34 -36 -60 -87 85 -76 128 148 99 95 142 137 -92 87 -139 -58 -44 -15 -29 -39 hvcurveto
          33 218 rlineto
          275 hlineto
          endchar
        </CharString>
        <CharString name="fiveeighths">
          -3 51 callgsubr
          69 29 -29 116 62 31 70 49 10 -20 24 -20 hstemhm
          39 61 94 56 127 -4 callsubr
          hintmask 1110101011011000
          99 -72 callsubr
          95 -479 -50 callgsubr
          hintmask 1110110011100100
          -64 callgsubr
          hintmask 1110110011101000
          -81 callsubr
          hintmask 1110100111011000
          -64 callsubr
          -270 551 rmoveto
          -22 hlineto
          hintmask 1110110011101000
          -8 -14 rlineto
          -130 hlineto
          -26 -163 25 -9 rlineto
          13 10 24 9 26 hhcurveto
          41 18 -23 -51 -52 -19 -23 -41 -31 -25 14 18 -4 hvcurveto
          14 12 12 16 hvcurveto
          hintmask 1101110011101000
          15 -11 12 -15 -20 -15 -18 -24 -43 41 -31 57 68 45 43 64 62 -41 40 -62 -26 -19 -7 -15 -18 vhcurveto
          13 92 rlineto
          119 hlineto
          endchar
        </CharString>
        <CharString name="fiveinferior">
          -327 -10 6 callsubr
          332 -59 callgsubr
        </CharString>
        <CharString name="fivesuperior">
          -329 392 6 callsubr
          734 -59 callgsubr
        </CharString>
        <CharString name="four">
          -78 21 -21 213 57 460 -20 hstem
          321 97 vstem
          321 60 rmoveto
          -97 -65 callgsubr
          271 -66 callgsubr
          153 99 vlineto
          10 57 rlineto
          -109 460 -79 hlineto
          -321 -473 11 -44 rlineto
          292 hlineto
          405 vmoveto
          -348 -234 vlineto
          endchar
        </CharString>
        <CharString name="fourinferior">
          -333 0 19 callgsubr
          34 rmoveto
          -50 -9 rlineto
          -25 137 25 vlineto
          -35 9 rlineto
          hintmask 01110000
          -60 callgsubr
          endchar
        </CharString>
        <CharString name="foursuperior">
          -333 392 19 callgsubr
          426 rmoveto
          -43 -9 rlineto
          -25 130 25 vlineto
          -35 9 rlineto
          hintmask 01110000
          -60 callgsubr
          endchar
        </CharString>
        <CharString name="fraction">
          -597 41 callsubr
          -200 -72 callsubr
          endchar
        </CharString>
        <CharString name="g">
          -40 callsubr
          13 callgsubr
          236 11 callgsubr
          hintmask 1111000100100000
          -73 callsubr
          hintmask 1111010010000000
          -45 callsubr
          hintmask 1110110001000000
          12 callgsubr
          hintmask 1111001010000000
          -75 callgsubr
          hintmask 1111010000100000
          -87 callgsubr
          vhcurveto
          hintmask 1111010010000000
          -31 callgsubr
          hvcurveto
          endchar
        </CharString>
        <CharString name="gbreve">
          -40 callsubr
          89 69 -69 151 13 callgsubr
          -17 48 205 41 -41 11 callgsubr
          hintmask 1111010001010010
          -73 callsubr
          hintmask 1111010100101000
          -45 callsubr
          hintmask 1110110100100100
          12 callgsubr
          hintmask 1111010010110010
          -75 callgsubr
          hintmask 1111001100110010
          -87 callgsubr
          -31 callgsubr
          vhcurveto
          219 398 rmoveto
          hintmask 1111010100110010
          26 callsubr
          hintmask 1111001100110010
          -68 callgsubr
        </CharString>
        <CharString name="gcircumflex">
          -40 callsubr
          250 -20 13 callgsubr
          236 11 callgsubr
          hintmask 1111010010010000
          -73 callsubr
          hintmask 1111011001000000
          -45 callsubr
          hintmask 1110111000100000
          12 callgsubr
          hintmask 1111010101000000
          -75 callgsubr
          hintmask 1111011000010000
          -87 callgsubr
          vhcurveto
          hintmask 1111011001000000
          -31 callgsubr
          hvcurveto
          161 408 -90 callgsubr
        </CharString>
        <CharString name="gcommaaccent">
          -40 callsubr
          98 95 96 -20 13 callgsubr
          70 110 56 11 callgsubr
          hintmask 1111011001100100
          -73 callsubr
          hintmask 1111011100110000
          -45 callsubr
          hintmask 1110111100101000
          12 callgsubr
          hintmask 1111011010110000
          -75 callgsubr
          hintmask 1111011100100100
          -87 callgsubr
          vhcurveto
          hintmask 1111011100110000
          -31 callgsubr
          hvcurveto
          114 256 rmoveto
          32 24 22 28 25 -17 20 -22 -7 -9 -3 -3 -2 hvcurveto
          -3 2 2 23 13 19 38 31 rlinecurve
          -22 27 rlineto
          -56 -34 -25 -40 -52 vvcurveto
          -41 20 -24 34 vhcurveto
          endchar
        </CharString>
        <CharString name="gdotaccent">
          -40 callsubr
          99 125 13 callgsubr
          62 125 49 11 callgsubr
          hintmask 1111010011001000
          -73 callsubr
          hintmask 1111011001100000
          -45 callsubr
          hintmask 1110111001010000
          12 callgsubr
          hintmask 1111010101100000
          -75 callgsubr
          hintmask 1111011001001000
          -87 callgsubr
          vhcurveto
          hintmask 1111011001100000
          -31 callgsubr
          hvcurveto
          52 319 -106 callsubr
        </CharString>
        <CharString name="germandbls">
          -7 -10 46 -46 192 -161 -21 750 40 hstemhm
          102 97 72 82 -82 103 50 85 9 87 hintmask 0011101110000000
          353 424 rmoveto
          31 20 24 59 38 vhcurveto
          56 35 21 33 53 vvcurveto
          93 -70 59 -112 -140 -85 -91 -149 vhcurveto
          -490 vlineto
          -77 -65 callgsubr
          174 590 vlineto
          107 39 53 79 68 39 -40 -71 -48 -17 -31 -44 -33 vhcurveto
          -76 -56 -16 -22 -48 vvcurveto
          -58 25 -28 110 -65 vhcurveto
          96 -58 16 -17 -46 vvcurveto
          hintmask 1001101110000000
          -59 -36 -34 -60 -38 -34 14 20 -12 vhcurveto
          20 10 16 27 24 vvcurveto
          hintmask 0101110110000000
          29 -24 22 -33 -35 -21 -25 -41 -73 67 -53 92 109 76 73 104 70 -30 36 -126 64 vhcurveto
          -79 40 -17 16 31 vvcurveto
          endchar
        </CharString>
        <CharString name="grave">
          -378 660 -21 156 -20 hstem
          170 715 -79 callgsubr
        </CharString>
        <CharString name="grave.cap">
          -378 791 -21 125 -20 hstem
          152 847 rmoveto
          -77 callgsubr
        </CharString>
        <CharString name="greater">
          -166 156 -21 449 -20 hstem
          436 331 rmoveto
          58 vlineto
          -369 195 rlineto
          -75 vlineto
          298 -149 -298 -149 rlineto
          -76 vlineto
          endchar
        </CharString>
        <CharString name="guillemotleft">
          -102 42 -21 464 -20 hstem
          141 255 -25 callgsubr
          78 201 -25 callgsubr
          endchar
        </CharString>
        <CharString name="guillemotright">
          -102 42 -21 464 -20 hstem
          261 54 -25 callsubr
          -344 -201 -25 callsubr
          endchar
        </CharString>
        <CharString name="guilsinglleft">
          -313 42 -21 464 -20 hstem
          141 255 -25 callgsubr
          endchar
        </CharString>
        <CharString name="guilsinglright">
          -313 42 -21 464 -20 hstem
          50 54 -25 callsubr
          endchar
        </CharString>
        <CharString name="h">
          7 21 35 callsubr
          230 22 callgsubr
          249 97 hintmask 11110100
          -61 callgsubr
          hintmask 11101100
          23 callsubr
          hintmask 11110100
          -57 callgsubr
          endchar
        </CharString>
        <CharString name="hbar">
          7 21 35 callsubr
          60 62 -62 170 40 callsubr
          249 97 hintmask 11100110
          24 610 rmoveto
          78 -550 hlineto
          hintmask 11101010
          -57 callgsubr
          -223 vlineto
          -67 -50 callsubr
          -77 19 rlineto
          221 vlineto
          114 -11 64 -26 37 vhcurveto
          34 -25 -45 20 -53 hhcurveto
          -76 -70 -40 -64 -40 hvcurveto
          164 106 62 -106 vlineto
          hintmask 11011010
          108 -51 callsubr
          hintmask 11100110
          77 -19 rlineto
          -48 -78 vlineto
          endchar
        </CharString>
        <CharString name="hcircumflex">
          7 21 35 callsubr
          230 -20 30 22 callgsubr
          249 97 hintmask 11101010
          -61 callgsubr
          hintmask 11100110
          23 callsubr
          hintmask 11011010
          -57 callgsubr
          -39 507 -90 callgsubr
        </CharString>
        <CharString name="hdotbelow">
          7 -28 callsubr
          86 35 callsubr
          230 22 callgsubr
          62 125 62 97 hintmask 11111011
          -61 callgsubr
          hintmask 11110111
          23 callsubr
          hintmask 11111011
          -57 callgsubr
          -187 -411 -106 callsubr
        </CharString>
        <CharString name="hungarumlaut">
          -212 639 156 hstem
          40 639 -100 callgsubr
          117 -76 -100 callgsubr
          endchar
        </CharString>
        <CharString name="hungarumlaut.cap">
          -212 770 125 hstem
          40 0 callsubr
          119 -77 -99 callsubr
          endchar
        </CharString>
        <CharString name="hyphen">
          -248 244 67 hstem
          69 244 rmoveto
          251 67 -251 hlineto
          endchar
        </CharString>
        <CharString name="i">
          -325 21 6 callgsubr
          36 174 -111 -13 callsubr
          hintmask 11100100
          -58 callgsubr
          hintmask 11100100
          hintmask 11101000
          4 callgsubr
          endchar
        </CharString>
        <CharString name="iacute">
          -30 callsubr
          275 -20 hstemhm
          36 -34 callsubr
          hintmask 11101000
          -58 callgsubr
          hintmask 11101000
          98 140 -100 callgsubr
          endchar
        </CharString>
        <CharString name="ibreve">
          -30 callsubr
          109 33 callsubr
          20 48 -32 -34 callsubr
          56 48 hintmask 11101011
          -47 callsubr
          hintmask 11100101
          -77 -65 callgsubr
          251 -66 callgsubr
          480 -51 callsubr
          hintmask 11011011
          230 281 rmoveto
          hintmask 11101011
          26 callsubr
          hintmask 11011011
          -68 callgsubr
        </CharString>
        <CharString name="icircumflex">
          -30 callsubr
          270 -20 hstemhm
          36 -34 callsubr
          hintmask 11101000
          -58 callgsubr
          hintmask 11101000
          172 291 -90 callgsubr
        </CharString>
        <CharString name="idieresis">
          -30 callsubr
          127 117 hstemhm
          -12 117 -69 -34 callsubr
          8 117 hintmask 11110110
          -47 callsubr
          hintmask 11101010
          -77 -65 callgsubr
          251 -66 callgsubr
          480 -51 callsubr
          hintmask 11110110
          -48 206 -105 callsubr
        </CharString>
        <CharString name="idotbelow">
          -325 -28 callsubr
          86 6 callgsubr
          36 174 -111 -13 callsubr
          hintmask 11110010
          -47 callsubr
          hintmask 11111000
          -77 -65 callgsubr
          251 -66 callgsubr
          480 -51 callsubr
          hintmask 11110010
          hintmask 11110100
          4 callgsubr
          2 -829 -106 callsubr
        </CharString>
        <CharString name="igrave">
          -30 callsubr
          275 -20 hstem
          113 97 vstem
          -47 callsubr
          -77 -19 rlineto
          -41 251 -66 callgsubr
          480 -51 callsubr
          104 216 -79 callgsubr
        </CharString>
        <CharString name="ij">
          -41 -190 37 -37 152 59 6 callgsubr
          36 174 -111 -13 callsubr
          19 102 71 -13 callsubr
          hintmask 1011100111000000
          -47 callsubr
          hintmask 1011110011000000
          -77 -65 callgsubr
          251 -66 callgsubr
          480 -51 callsubr
          hintmask 1011100111000000
          hintmask 1011101010100000
          4 callgsubr
          414 -161 -86 callgsubr
          hintmask 0111110010100000
          -91 callsubr
          hintmask 1011110011000000
          -111 616 -106 callsubr
        </CharString>
        <CharString name="imacron">
          -30 callsubr
          145 65 hstemhm
          36 -34 callsubr
          hintmask 11101000
          -58 callgsubr
          hintmask 11101000
          -15 166 -51 callgsubr
        </CharString>
        <CharString name="iogonek">
          -325 -210 58 173 6 callgsubr
          45 72 -18 -13 callsubr
          hintmask 11111000
          145 -92 callsubr
          35 22 37 42 33 hvcurveto
          106 41 hlineto
          hintmask 11110010
          -77 19 rlineto
          480 48 callsubr
          -14 callgsubr
          99 vlineto
          hintmask 11111000
          -60 -38 -30 -42 -45 -28 callgsubr
          hintmask 11110100
          -46 911 -106 callsubr
        </CharString>
        <CharString name="itilde">
          -30 callsubr
          108 -10 callgsubr
          36 -34 callsubr
          hintmask 11101010
          -47 callsubr
          hintmask 11101100
          -77 -65 callgsubr
          251 -66 callgsubr
          480 -51 callsubr
          hintmask 11010010
          -59 140 -70 callgsubr
          hintmask 11101100
          -96 callsubr
          hintmask 11010100
          -80 callgsubr
        </CharString>
        <CharString name="j">
          -353 -35 callgsubr
          578 -20 119 125 hstemhm
          -83 102 71 -13 callsubr
          hintmask 10111010
          201 540 -86 callgsubr
          hintmask 01111010
          -91 callsubr
          hintmask 10111100
          -111 616 -106 callsubr
        </CharString>
        <CharString name="jcircumflex">
          -353 -35 callgsubr
          578 -20 270 -20 hstemhm
          -83 102 85 97 hintmask 10111100
          201 540 -86 callgsubr
          hintmask 01111100
          -91 callsubr
          -2 705 -90 callgsubr
        </CharString>
        <CharString name="k">
          -41 21 -7 callsubr
          260 22 callgsubr
          hintmask 11110000
          370 -74 callgsubr
          529 -51 callsubr
          hintmask 11101000
          23 callsubr
          hintmask 11110000
          -45 callgsubr
          endchar
        </CharString>
        <CharString name="kcommaaccent">
          -41 -27 callsubr
          65 -7 callsubr
          260 22 callgsubr
          61 110 hintmask 11111101
          370 -74 callgsubr
          529 -51 callsubr
          hintmask 11111011
          23 callsubr
          hintmask 11111101
          -45 callgsubr
          -113 -104 rmoveto
          -103 callgsubr
        </CharString>
        <CharString name="kgreenlandic">
          -30 21 -7 callsubr
          hstemhm
          36 -34 callsubr
          hintmask 11100000
          381 -74 callgsubr
          289 -51 callsubr
          hintmask 11010000
          77 -19 rlineto
          -420 vlineto
          hintmask 11100000
          -45 callgsubr
          endchar
        </CharString>
        <CharString name="l">
          -329 21 -21 780 -20 hstemhm
          28 -34 callsubr
          hintmask 11010000
          105 60 rmoveto
          30 callgsubr
          720 -19 callsubr
          vlineto
          hintmask 11010000
          77 -19 rlineto
          endchar
        </CharString>
        <CharString name="lacute">
          -329 -58 callsubr
          195 -20 hstemhm
          28 -34 callsubr
          hintmask 11101000
          117 0 callsubr
          -73 -787 rmoveto
          hintmask 11110000
          -77 -65 callgsubr
          251 -66 callgsubr
          660 -51 callsubr
          hintmask 11101000
          77 -19 rlineto
          endchar
        </CharString>
        <CharString name="lcaron">
          -329 21 -21 780 -20 30 -20 hstemhm
          28 -34 callsubr
          59 59 -40 60 hintmask 11001100
          105 60 rmoveto
          hintmask 11010100
          -77 -65 callgsubr
          251 -23 callsubr
          hintmask 11001100
          77 -19 rlineto
          215 -115 rmoveto
          hintmask 10110010
          -2 callgsubr
          hintmask 11010100
          -12 callsubr
        </CharString>
        <CharString name="lcommaaccent">
          -329 -27 callsubr
          65 -21 780 -20 hstemhm
          28 -34 callsubr
          hintmask 11110100
          105 60 rmoveto
          hintmask 11111000
          -77 -65 callgsubr
          251 -23 callsubr
          hintmask 11110100
          77 -19 rlineto
          48 -764 rmoveto
          -103 callgsubr
        </CharString>
        <CharString name="ldot">
          -290 21 -21 295 128 357 -20 hstemhm
          28 -34 callsubr
          71 127 hintmask 11101100
          105 60 rmoveto
          hintmask 11110100
          -77 -65 callgsubr
          251 -23 callsubr
          hintmask 11101100
          77 -19 rlineto
          168 -362 14 callgsubr
          endchar
        </CharString>
        <CharString name="less">
          -166 156 -21 449 -20 hstem
          404 135 rmoveto
          76 vlineto
          -298 149 298 149 rlineto
          75 vlineto
          -369 -195 rlineto
          -58 vlineto
          endchar
        </CharString>
        <CharString name="logicalnot">
          -61 189 209 -70 70 hstemhm
          438 60 hintmask 01100000
          74 328 rmoveto
          364 hlineto
          hintmask 10100000
          -139 60 209 -424 vlineto
          endchar
        </CharString>
        <CharString name="lslash">
          -323 21 -21 780 -20 hstemhm
          31 -34 callsubr
          -97 185 hintmask 11010000
          25 289 rmoveto
          83 52 rlineto
          -281 vlineto
          30 callgsubr
          342 vlineto
          hintmask 11001000
          88 56 rlineto
          69 vlineto
          hintmask 11100000
          -88 -56 rlineto
          309 -51 callsubr
          hintmask 11010000
          77 -19 rlineto
          -311 vlineto
          -83 -52 rlineto
          endchar
        </CharString>
        <CharString name="m">
          338 -14 callsubr
          42 callgsubr
          237 97 237 97 cntrmask 00011100
          hintmask 11011100
          113 60 rmoveto
          -77 -19 rlineto
          -41 241 -26 callgsubr
          231 -26 callgsubr
          241 -66 callgsubr
          185 vlineto
          145 -8 64 -24 38 vhcurveto
          36 -23 -45 22 -53 hhcurveto
          -77 -73 -45 -75 -42 hvcurveto
          -6 26 -10 25 -10 15 rrcurveto
          30 -20 -45 24 -55 hhcurveto
          -73 -70 -43 -67 -38 hvcurveto
          -4 hlineto
          hintmask 10111100
          -22 100 -63 callgsubr
          endchar
        </CharString>
        <CharString name="macron">
          -308 665 65 hstem
          25 665 -51 callgsubr
        </CharString>
        <CharString name="macron.cap">
          -308 796 65 hstem
          25 796 -51 callgsubr
        </CharString>
        <CharString name="minus">
          -91 328 68 hstem
          74 328 rmoveto
          398 68 -398 hlineto
          endchar
        </CharString>
        <CharString name="mu">
          31 53 callsubr
          113 92 246 97 vstem
          113 -62 callgsubr
        </CharString>
        <CharString name="multiply">
          -131 180 -21 386 -20 hstem
          60 497 rmoveto
          145 -145 -145 -145 48 -48 145 145 145 -145 48 48 -145 145 145 145 -48 48 -145 -145 -145 145 rlineto
          endchar
        </CharString>
        <CharString name="n">
          18 -14 callsubr
          42 callgsubr
          249 97 hintmask 11011000
          113 -104 callgsubr
          hintmask 10111000
          -22 100 -63 callgsubr
          endchar
        </CharString>
        <CharString name="nacute">
          18 -14 callsubr
          275 -20 hstemhm
          459 97 hintmask 11011000
          113 -104 callgsubr
          hintmask 10111000
          -22 100 -63 callgsubr
          182 159 -100 callgsubr
          endchar
        </CharString>
        <CharString name="napostrophe">
          114 -14 callsubr
          175 95 hstemhm
          24 110 75 97 249 97 hintmask 11011110
          209 -104 callgsubr
          hintmask 10111110
          -22 100 -63 callgsubr
          -129 310 -26 callsubr
        </CharString>
        <CharString name="ncaron">
          18 -14 callsubr
          260 -20 42 callgsubr
          249 97 hintmask 11011100
          113 -104 callgsubr
          hintmask 10111100
          -22 100 -63 callgsubr
          370 300 -75 callsubr
        </CharString>
        <CharString name="ncommaaccent">
          18 -27 callsubr
          65 -1 callgsubr
          42 callgsubr
          69 110 70 97 hintmask 11110111
          113 -104 callgsubr
          hintmask 11101111
          -22 100 -63 callgsubr
          222 -524 rmoveto
          -103 callgsubr
        </CharString>
        <CharString name="ndotaccent">
          18 -14 callsubr
          119 125 42 callgsubr
          57 125 67 97 hintmask 11011110
          113 -104 callgsubr
          hintmask 10111110
          -22 100 -63 callgsubr
          154 221 -106 callsubr
        </CharString>
        <CharString name="nine">
          -34 -10 55 -55 249 52 57 328 55 hstemhm
          55 107 -83 83 -83 132 217 116 -93 93 hintmask 1011001010000000
          449 370 rmoveto
          2 -14 0 -9 -24 vvcurveto
          -199 -53 -79 -134 -72 -40 25 47 -7 vhcurveto
          41 25 24 37 hvcurveto
          hintmask 0111010100000000
          38 -25 23 -39 -44 -24 -30 -55 -100 77 -64 120 176 92 134 256 239 -80 112 -170 vhcurveto
          hintmask 1011100100000000
          -147 -92 -84 -136 -132 86 -88 127 73 67 30 49 37 hvcurveto
          -283 141 rmoveto
          109 45 56 88 88 45 -56 -109 -108 -45 -55 -88 -88 -45 55 108 vhcurveto
          endchar
        </CharString>
        <CharString name="nineinferior">
          -301 -10 31 -31 113 22 31 137 30 hstemhm
          62 46 -46 60 108 50 hintmask 10110110
          229 161 3 callgsubr
          hintmask 01111010
          -12 callgsubr
          32 27 13 23 16 vhcurveto
          38 callgsubr
          47 callsubr
        </CharString>
        <CharString name="ninesuperior">
          -300 397 31 -31 113 22 31 5 -20 152 30 hstemhm
          62 46 -46 60 108 50 hintmask 10011011
          229 568 3 callgsubr
          hintmask 01101101
          -12 callgsubr
          vhcurveto
          hintmask 10011101
          32 27 13 23 16 hvcurveto
          38 callgsubr
          vhcurveto
          hintmask 10101101
          47 callsubr
        </CharString>
        <CharString name="ntilde">
          18 -14 callsubr
          108 -10 callgsubr
          113 97 249 97 hintmask 11010111
          113 -104 callgsubr
          hintmask 10101011
          -22 100 -63 callgsubr
          50 159 -70 callgsubr
          hintmask 11010111
          -96 callsubr
          hintmask 11001011
          -80 callgsubr
        </CharString>
        <CharString name="numbersign">
          99 11 -21 212 53 206 53 216 -20 hstem
          398 -10 rmoveto
          57 hlineto
          42 212 rlineto
          155 53 -145 hlineto
          41 206 rlineto
          153 53 -143 46 callsubr
          -203 46 callsubr
          -157 -53 147 hlineto
          -41 -206 rlineto
          -155 -53 145 hlineto
          -42 -212 rlineto
          57 hlineto
          42 212 rlineto
          203 hlineto
          -152 259 rmoveto
          203 hlineto
          -41 -206 rlineto
          -203 hlineto
          endchar
        </CharString>
        <CharString name="o">
          -2 callsubr
          hstem
          46 107 276 107 vstem
          -107 callsubr
          endchar
        </CharString>
        <CharString name="oacute">
          -2 callsubr
          245 -20 hstem
          46 107 276 107 vstem
          -107 callsubr
          111 365 -100 callgsubr
          endchar
        </CharString>
        <CharString name="obreve">
          -2 callsubr
          79 33 callsubr
          46 107 -3 52 callsubr
          -15 107 hintmask 11011001
          -107 callsubr
          hintmask 11011010
          243 506 rmoveto
          hintmask 11101010
          26 callsubr
          hintmask 11010110
          -68 callgsubr
        </CharString>
        <CharString name="ocircumflex">
          -2 callsubr
          240 -20 hstem
          46 107 276 107 vstem
          -107 callsubr
          185 516 -90 callgsubr
        </CharString>
        <CharString name="odieresis">
          -2 callsubr
          97 117 hstemhm
          46 107 -35 -37 callgsubr
          -36 107 hintmask 11110010
          -19 callgsubr
          hintmask 11110100
          85 -25 78 -46 49 vhcurveto
          42 -40 -60 21 -73 hhcurveto
          -74 -56 -20 -45 -42 hvcurveto
          -48 -51 -26 -84 -6 callgsubr
          -76 45 -49 vhcurveto
          -43 40 58 -20 73 hhcurveto
          75 59 21 44 40 hvcurveto
          hintmask 11110010
          3 callsubr
          51 30 -19 -34 22 hvcurveto
          23 -38 13 -60 -80 vvcurveto
          38 callsubr
          -51 -52 callsubr
          38 -13 60 81 vvcurveto
          hintmask 11101100
          -35 431 -105 callsubr
        </CharString>
        <CharString name="odotbelow">
          -55 -28 callsubr
          55 -16 callgsubr
          hstem
          46 107 74 125 77 107 vstem
          -107 callsubr
          74 -402 -106 callsubr
        </CharString>
        <CharString name="oe">
          283 -10 52 -52 67 207 49 185 52 hstemhm
          52 callgsubr
          96 250 101 hintmask 10111110
          292 550 rmoveto
          -74 -56 -20 -45 -42 hvcurveto
          -48 -51 -26 -84 -6 callgsubr
          -76 45 -49 vhcurveto
          -43 40 58 -20 73 hhcurveto
          78 79 33 62 32 hvcurveto
          4 hlineto
          -63 20 81 -32 73 hhcurveto
          105 62 52 64 47 hvcurveto
          -32 24 rlineto
          hintmask 01111110
          -45 -41 -52 -28 -63 hhcurveto
          -58 -53 24 62 -26 hvcurveto
          -13 31 -7 40 50 vvcurveto
          349 hlineto
          3 26 0 8 13 vvcurveto
          149 -77 90 -136 -88 -61 -36 -65 -33 vhcurveto
          -4 hlineto
          69 -25 -83 32 -77 hhcurveto
          -139 -276 rmoveto
          81 13 61 23 36 vhcurveto
          30 20 34 16 47 hhcurveto
          51 30 -19 -34 22 hvcurveto
          23 -38 13 -60 -80 vvcurveto
          -80 -11 -64 -24 -34 vhcurveto
          hintmask 10111110
          -30 -22 -35 -17 -46 hhcurveto
          -51 -52 callsubr
          38 -13 60 81 vvcurveto
          504 222 10 callgsubr
        </CharString>
        <CharString name="ogonek">
          -362 -210 58 166 -20 hstem
          35 72 vstem
          135 -92 callsubr
          40 29 42 54 37 hvcurveto
          -41 hlineto
          -75 -42 -39 -47 -50 40 callgsubr
        </CharString>
        <CharString name="ograve">
          -2 callsubr
          245 -20 hstem
          46 107 276 107 vstem
          -107 callsubr
          117 441 -79 callgsubr
        </CharString>
        <CharString name="ohungarumlaut">
          -2 callsubr
          89 156 hstem
          46 107 276 107 vstem
          -107 callsubr
          24 365 -100 callgsubr
          117 -76 -100 callgsubr
          endchar
        </CharString>
        <CharString name="omacron">
          -2 callsubr
          115 65 hstem
          46 107 276 107 vstem
          -107 callsubr
          -2 391 -51 callgsubr
        </CharString>
        <CharString name="one">
          -237 21 -21 633 51 46 -20 hstemhm
          45 224 -97 97 hintmask 11101000
          172 60 rmoveto
          hintmask 11110000
          -127 -65 callgsubr
          331 41 vlineto
          -107 19 rlineto
          670 -68 vlineto
          -30 -23 -85 -16 -48 hhcurveto
          -51 vlineto
          hintmask 11101000
          127 hlineto
          endchar
        </CharString>
        <CharString name="oneeighth">
          -1 51 callgsubr
          397 21 callsubr
          220 -4 callsubr
          hintmask 1101110100000000
          -60 callsubr
          hintmask 1110101100000000
          -43 callgsubr
          475 -418 -50 callgsubr
          hintmask 1101110010000000
          -64 callgsubr
          hintmask 1101110100000000
          -81 callsubr
          hintmask 1101101100000000
          -64 callsubr
          endchar
        </CharString>
        <CharString name="onehalf">
          4 0 48 -37 -21 216 123 -32 32 391 21 callsubr
          219 49 -49 65 95 53 hintmask 0110011101000000
          -60 callsubr
          hintmask 1010101101000000
          -43 callgsubr
          320 -621 -46 callsubr
          hintmask 1001011011000000
          -69 callsubr
        </CharString>
        <CharString name="oneinferior">
          -340 21 45 callsubr
          35 rmoveto
          -60 -9 rlineto
          -26 160 26 vlineto
          -48 9 rlineto
          -43 callgsubr
          endchar
        </CharString>
        <CharString name="onequarter">
          -26 0 125 -114 -21 102 33 595 21 callsubr
          315 52 hintmask 01101110
          -60 callsubr
          hintmask 10010110
          -43 callgsubr
          367 -635 rmoveto
          -50 -9 rlineto
          -25 137 25 vlineto
          -35 9 rlineto
          hintmask 01101110
          -60 callgsubr
          endchar
        </CharString>
        <CharString name="onesuperior">
          -340 413 45 callsubr
          427 rmoveto
          -60 -9 rlineto
          -26 160 26 vlineto
          -48 9 rlineto
          -43 callgsubr
          endchar
        </CharString>
        <CharString name="onethird">
          1 -10 -36 callgsubr
          397 21 callsubr
          226 62 91 58 hintmask 1011001111000000
          -60 callsubr
          hintmask 1011010111000000
          -43 callgsubr
          484 -430 -67 callsubr
          hintmask 1010101111000000
          -83 callgsubr
          hintmask 0111001111000000
          -77 callsubr
          endchar
        </CharString>
        <CharString name="oogonek">
          -55 49 callsubr
          -16 callgsubr
          hstem
          46 107 18 72 186 107 vstem
          271 -92 callsubr
          32 18 33 34 30 hvcurveto
          71 2 57 20 39 43 rrcurveto
          -38 callsubr
          85 -25 78 -46 49 vhcurveto
          42 -40 -60 21 -73 hhcurveto
          -74 -56 -20 -45 -42 hvcurveto
          -48 -51 -26 -84 -6 callgsubr
          -76 45 -49 vhcurveto
          32 -35 45 -20 55 -6 rrcurveto
          -51 -36 -27 -39 -42 -28 callgsubr
          -118 484 rmoveto
          81 13 61 23 36 vhcurveto
          30 20 34 16 47 hhcurveto
          51 30 -19 -34 22 hvcurveto
          23 -38 13 -60 -80 vvcurveto
          38 callsubr
          -51 -52 callsubr
          38 -13 60 81 vvcurveto
          endchar
        </CharString>
        <CharString name="ordfeminine">
          -266 422 32 171 105 -29 29 hstemhm
          64 52 -52 67 102 50 hintmask 11001100
          54 492 rmoveto
          -44 28 -26 47 41 38 23 37 21 vhcurveto
          4 hlineto
          -47 5 -13 27 15 21 5 11 26 vhcurveto
          16 -25 vlineto
          -16 -3 12 36 hvcurveto
          80 vlineto
          58 -11 40 -23 23 vhcurveto
          18 -18 -26 9 -30 hhcurveto
          -52 -59 -26 -46 -21 13 -12 17 21 16 11 19 hvcurveto
          hintmask 10110100
          8 -5 11 -10 6 vhcurveto
          13 5 19 8 21 hhcurveto
          19 17 -10 -18 10 hvcurveto
          8 -14 4 -21 4 -40 rrcurveto
          -120 -19 -49 -30 -57 vvcurveto
          103 -33 rmoveto
          -26 -15 16 28 39 25 17 81 17 hvcurveto
          1 -11 1 -12 -12 vvcurveto
          -26 -6 -18 -11 -13 vhcurveto
          -16 -13 -21 -9 -16 hhcurveto
          endchar
        </CharString>
        <CharString name="ordmasculine">
          -268 422 34 240 34 hstem
          50 64 142 64 vstem
          320 579 rmoveto
          46 -14 43 -25 27 vhcurveto
          23 -22 -33 12 -40 hhcurveto
          -42 -31 -12 -24 -22 hvcurveto
          -26 -28 -15 -46 -48 vvcurveto
          -46 14 -42 25 -27 vhcurveto
          -23 21 32 -12 41 hhcurveto
          42 32 12 24 22 hvcurveto
          26 28 15 46 47 vvcurveto
          -206 -1 rmoveto
          40 7 32 13 21 vhcurveto
          17 11 16 8 23 hhcurveto
          24 16 -9 -20 12 hvcurveto
          13 -22 7 -33 -38 vvcurveto
          -44 -6 -32 -13 -17 vhcurveto
          -16 -12 -18 -9 -22 hhcurveto
          -25 -15 9 20 -11 hvcurveto
          -13 22 -7 32 39 vvcurveto
          endchar
        </CharString>
        <CharString name="oslash">
          -55 -39 -21 50 -16 callgsubr
          32 8 callgsubr
          -14 13 43 82 rlineto
          -64 hlineto
          -27 -53 rlineto
          14 -32 -38 7 -41 hhcurveto
          -74 -56 -20 -45 -42 hvcurveto
          -48 -51 -26 -84 -6 callgsubr
          -76 45 -49 vhcurveto
          8 -9 8 -7 10 -7 -47 -90 rcurveline
          64 hlineto
          33 64 rlineto
          -9 28 32 -5 35 -10 callsubr
          36 26 -10 -18 20 hvcurveto
          -189 -364 rlineto
          -19 38 -11 56 74 vvcurveto
          276 -7 rmoveto
          38 callsubr
          -29 -23 6 11 -17 hvcurveto
          185 356 rlineto
          14 -37 8 -50 -61 vvcurveto
          endchar
        </CharString>
        <CharString name="oslashacute">
          -55 -39 -21 50 -16 callgsubr
          245 8 callgsubr
          -14 13 43 82 rlineto
          -64 hlineto
          -27 -53 rlineto
          14 -32 -38 7 -41 hhcurveto
          -74 -56 -20 -45 -42 hvcurveto
          -48 -51 -26 -84 -6 callgsubr
          -76 45 -49 vhcurveto
          8 -9 8 -7 10 -7 -47 -90 rcurveline
          64 hlineto
          33 64 rlineto
          -9 28 32 -5 35 -10 callsubr
          36 26 -10 -18 20 hvcurveto
          -189 -364 rlineto
          -19 38 -11 56 74 vvcurveto
          276 -7 rmoveto
          38 callsubr
          -29 -23 6 11 -17 hvcurveto
          185 356 rlineto
          14 -37 8 -50 -61 vvcurveto
          -168 372 -100 callgsubr
          endchar
        </CharString>
        <CharString name="otilde">
          -2 callsubr
          78 -10 callgsubr
          52 callgsubr
          107 hintmask 11010110
          -107 callsubr
          -46 365 -70 callgsubr
          hintmask 11101110
          -96 callsubr
          hintmask 11010110
          -80 callgsubr
        </CharString>
        <CharString name="p">
          -18 20 callsubr
          -10 -20 hstemhm
          102 97 269 105 hintmask 01101100
          199 -120 rmoveto
          194 vlineto
          -55 38 46 -19 57 hhcurveto
          70 54 22 43 37 hvcurveto
          44 51 28 79 85 vvcurveto
          83 -25 73 -40 51 vhcurveto
          44 -35 -57 19 -68 hhcurveto
          -68 -54 -21 -66 -42 hvcurveto
          hintmask 10011100
          -15 77 -63 callgsubr
          -600 vlineto
          -77 -65 callgsubr
          271 41 vlineto
          -98 418 rmoveto
          79 13 58 22 36 vhcurveto
          hintmask 10101100
          31 18 35 15 46 26 callgsubr
          22 hvcurveto
          23 -37 12 -58 -78 vvcurveto
          -78 -10 -62 -24 -33 vhcurveto
          -20 callsubr
          36 -12 59 79 vvcurveto
          endchar
        </CharString>
        <CharString name="paragraph">
          41 -75 -21 702 64 hstem
          344 70 70 70 vstem
          484 -96 rmoveto
          70 702 hlineto
          -47 callgsubr
          -361 vlineto
          -158 -88 -85 -153 -150 85 -79 162 hvcurveto
          66 -299 70 702 70 hlineto
          endchar
        </CharString>
        <CharString name="parenleft">
          -266 -138 -21 1024 -20 hstem
          44 101 vstem
          44 353 rmoveto
          -278 118 -200 167 -34 vhcurveto
          26 55 rlineto
          -126 26 -84 176 253 vvcurveto
          249 86 186 129 30 vhcurveto
          -21 49 rlineto
          -177 -44 -118 -205 -263 vvcurveto
          endchar
        </CharString>
        <CharString name="parenright">
          -266 -138 -21 1024 -20 hstem
          226 101 vstem
          327 353 rmoveto
          263 -118 205 -177 44 vhcurveto
          -21 -49 rlineto
          129 -30 86 -186 -249 vvcurveto
          -253 -84 -176 -126 -26 vhcurveto
          26 -55 rlineto
          167 34 118 200 278 vvcurveto
          endchar
        </CharString>
        <CharString name="percent">
          42 1 callsubr
          hintmask 1110111110000000
          120 -72 callsubr
          -470 -166 -86 callsubr
          hintmask 1111011110000000
          -101 callsubr
          160 -405 -86 callsubr
          -101 callsubr
          endchar
        </CharString>
        <CharString name="period">
          -397 -10 128 hstem
          57 127 vstem
          57 8 callsubr
          endchar
        </CharString>
        <CharString name="periodcentered">
          -377 235 128 hstem
          67 127 vstem
          67 298 14 callgsubr
          endchar
        </CharString>
        <CharString name="perthousand">
          351 1 callsubr
          61 58 136 58 hintmask 1110111111100000
          120 -72 callsubr
          -470 -166 -86 callsubr
          hintmask 1111011111100000
          -101 callsubr
          160 -405 -86 callsubr
          -101 callsubr
          119 1 -86 callsubr
          -101 callsubr
          endchar
        </CharString>
        <CharString name="plus">
          -149 184 -21 165 68 165 -20 hstem
          210 68 vstem
          45 328 rmoveto
          165 -165 68 165 165 68 -165 165 -68 -165 -165 hlineto
          endchar
        </CharString>
        <CharString name="plusminus">
          -115 67 58 242 58 155 -20 hstem
          232 58 vstem
          72 367 rmoveto
          160 -155 58 155 160 58 -160 155 -58 -155 -160 hlineto
          -358 vmoveto
          378 58 -378 hlineto
          endchar
        </CharString>
        <CharString name="q">
          -36 20 callsubr
          -10 -20 hstemhm
          51 callsubr
          hintmask 10011100
          421 -120 rmoveto
          -97 -65 callgsubr
          271 -66 callgsubr
          660 -47 vlineto
          -30 -103 rlineto
          hintmask 01101100
          85 -42 -54 28 -70 hhcurveto
          -70 -56 -22 -43 -35 hvcurveto
          -42 -51 -26 -79 -85 vvcurveto
          -83 27 -73 42 -51 vhcurveto
          -44 36 56 -19 68 hhcurveto
          59 48 16 51 39 hvcurveto
          204 vmoveto
          -79 -13 -58 -22 -36 vhcurveto
          -31 -18 -35 -15 -46 hhcurveto
          -50 -52 callsubr
          37 -12 58 78 vvcurveto
          78 10 62 24 33 vhcurveto
          30 21 35 17 45 26 callgsubr
          21 hvcurveto
          23 -36 12 -59 -79 vvcurveto
          endchar
        </CharString>
        <CharString name="question">
          -156 -10 125 376 240 -55 55 hstemhm
          34 139 -25 124 -90 56 112 101 hintmask 11010110
          238 205 rmoveto
          59 24 37 94 86 vhcurveto
          69 63 26 47 60 vvcurveto
          102 -86 72 -123 -117 -91 -67 -86 -51 30 -36 43 38 28 27 37 29 -17 28 -26 15 vhcurveto
          hintmask 10110110
          26 49 23 54 75 42 -45 -80 -53 -18 -39 -47 -47 vhcurveto
          -80 -80 -23 -46 -81 vvcurveto
          hintmask 11001010
          90 -153 rmoveto
          39 -23 24 -39 -38 -24 -24 -39 -39 24 -23 39 39 22 23 39 vhcurveto
          endchar
        </CharString>
        <CharString name="questiondown">
          -161 -190 55 -55 240 376 125 hstemhm
          28 101 78 124 -90 56 9 139 hintmask 01110110
          241 336 rmoveto
          -59 -24 -37 -94 -86 vhcurveto
          -69 -63 -26 -47 -60 vvcurveto
          -102 86 -72 123 117 91 67 86 51 -30 36 -43 -38 -28 -27 -37 -29 17 -28 26 -15 vhcurveto
          hintmask 10110110
          -26 -49 -23 -54 -75 -42 45 80 53 18 39 47 47 vhcurveto
          80 80 23 46 81 vvcurveto
          hintmask 10111000
          -90 153 rmoveto
          -39 23 -24 39 38 24 24 39 39 -24 23 -39 -39 -22 -23 -39 vhcurveto
          endchar
        </CharString>
        <CharString name="quotedbl">
          -260 506 -21 275 -20 hstemhm
          55 99 -73 47 95 99 -73 47 hintmask 11011000
          128 485 rmoveto
          hintmask 11101000
          -3 callsubr
          hintmask 11010100
          -38 26 -92 -89 vvcurveto
          215 hmoveto
          hintmask 11101000
          -3 callsubr
          hintmask 11100100
          -38 26 -92 -89 vvcurveto
          endchar
        </CharString>
        <CharString name="quotedblbase">
          -190 -128 24 callsubr
          56 134 66 134 vstem
          121 118 rmoveto
          -95 callgsubr
          200 hmoveto
          -95 callgsubr
          endchar
        </CharString>
        <CharString name="quotedblleft">
          -195 45 callgsubr
          66 134 vstem
          317 493 rmoveto
          -54 callgsubr
          -200 hmoveto
          -54 callgsubr
          endchar
        </CharString>
        <CharString name="quotedblright">
          -197 514 24 callsubr
          64 134 66 134 vstem
          129 760 rmoveto
          -95 callgsubr
          200 hmoveto
          -95 callgsubr
          endchar
        </CharString>
        <CharString name="quoteleft">
          -395 45 callgsubr
          vstem
          117 493 rmoveto
          -54 callgsubr
          endchar
        </CharString>
        <CharString name="quoteright">
          -397 514 24 callsubr
          64 134 vstem
          129 760 rmoveto
          -95 callgsubr
          endchar
        </CharString>
        <CharString name="quotesinglbase">
          -390 -128 24 callsubr
          56 134 vstem
          121 118 rmoveto
          -95 callgsubr
          endchar
        </CharString>
        <CharString name="quotesingle">
          -428 506 -21 275 -20 hstemhm
          55 99 -73 47 hintmask 11010000
          128 485 rmoveto
          hintmask 11100000
          -3 callsubr
          hintmask 11010000
          -38 26 -92 -89 vvcurveto
          endchar
        </CharString>
        <CharString name="r">
          4 callsubr
          42 callgsubr
          122 113 hintmask 11001100
          -74 callsubr
          hintmask 10011100
          -76 callsubr
          hintmask 10101100
          -32 callsubr
          endchar
        </CharString>
        <CharString name="racute">
          4 callsubr
          275 20 callgsubr
          hintmask 11001110
          -74 callsubr
          hintmask 10011110
          -76 callsubr
          hintmask 10101110
          -32 callsubr
          -120 157 -100 callgsubr
          endchar
        </CharString>
        <CharString name="rcaron">
          4 callsubr
          260 20 callgsubr
          hintmask 11001110
          -74 callsubr
          hintmask 10011110
          -76 callsubr
          hintmask 10101110
          -32 callsubr
          43 298 -75 callsubr
        </CharString>
        <CharString name="rcommaaccent">
          -179 -27 callsubr
          65 -21 395 155 -62 62 -10 20 callgsubr
          hintmask 11110011
          -74 callsubr
          hintmask 11100111
          -76 callsubr
          hintmask 11101011
          -32 callsubr
          -175 -526 rmoveto
          -103 callgsubr
        </CharString>
        <CharString name="rdotbelow">
          -179 -28 callsubr
          86 -21 395 155 -62 62 -10 -20 hstemhm
          99 -13 callsubr
          122 113 hintmask 11100101
          -74 callsubr
          hintmask 11001011
          -76 callsubr
          hintmask 11010101
          -32 callsubr
          -238 -610 -106 callsubr
        </CharString>
        <CharString name="registered">
          -9 230 37 89 141 90 26 80 37 hstem
          64 42 128 41 93 45 109 42 vstem
          314 230 rmoveto
          142 108 108 143 144 -108 105 -142 -142 -108 -105 -144 -143 108 -108 142 hvcurveto
          37 vmoveto
          -128 -80 84 130 129 80 83 128 130 78 -83 -129 -130 -78 -84 -130 hvcurveto
          72 225 rmoveto
          16 13 11 21 20 vvcurveto
          38 -31 29 -50 vhcurveto
          -128 -15 hlineto
          30 -8 rlineto
          -211 vlineto
          -30 -8 rlineto
          -15 114 15 vlineto
          -43 8 rlineto
          92 38 vlineto
          51 -100 rlineto
          -15 79 15 vlineto
          -32 7 -47 80 -14 20 16 3 11 5 9 6 rlinecurve
          -111 5 rmoveto
          90 44 vlineto
          34 15 -17 -26 -29 -20 -18 -27 hvcurveto
          endchar
        </CharString>
        <CharString name="ring">
          -397 629 42 86 42 hstem
          35 42 86 42 vstem
          35 713 -57 callsubr
        </CharString>
        <CharString name="ring.cap">
          -397 750 150 -97 -20 hstemhm
          44 151 hintmask 10100000
          44 824 -42 callgsubr
          hintmask 01100000
          -6 callsubr
        </CharString>
        <CharString name="s">
          -134 -10 19 callsubr
          183 107 -65 87 hintmask 10101010
          -54 callsubr
          hintmask 01011001
          -88 callgsubr
          hintmask 10100110
          -83 callsubr
          hintmask 10101001
          -39 callgsubr
          vhcurveto
          endchar
        </CharString>
        <CharString name="sacute">
          -134 -10 -30 callgsubr
          245 -95 callsubr
          -9 603 -100 callgsubr
          endchar
        </CharString>
        <CharString name="scaron">
          -134 -10 -30 callgsubr
          230 -95 callsubr
          154 744 -75 callsubr
        </CharString>
        <CharString name="schwa">
          -93 -10 54 183 49 207 67 hstem
          44 101 250 102 vstem
          47 276 rmoveto
          -3 -26 0 -8 -13 vvcurveto
          -149 77 -90 136 148 92 107 187 58 -9 51 -20 41 vhcurveto
          76 -37 -74 40 -92 hhcurveto
          -105 -62 -52 -64 -47 hvcurveto
          32 -24 rlineto
          45 41 52 28 63 hhcurveto
          58 53 -24 -62 26 hvcurveto
          13 -31 7 -40 -50 vvcurveto
          -133 -232 rmoveto
          -76 -42 54 96 hvcurveto
          33 250 vlineto
          -121 -8 -44 -62 -80 hhcurveto
          endchar
        </CharString>
        <CharString name="scircumflex">
          -134 -10 -30 callgsubr
          240 -95 callsubr
          65 754 -90 callgsubr
        </CharString>
        <CharString name="sdotbelow">
          -134 -28 callsubr
          55 19 callsubr
          32 125 26 107 -65 87 hintmask 1101010110000000
          -54 callsubr
          hintmask 1010110101000000
          -88 callgsubr
          hintmask 1101001110000000
          -83 callsubr
          hintmask 1101010101000000
          -39 callgsubr
          vhcurveto
          -66 -164 -106 callsubr
        </CharString>
        <CharString name="section">
          -107 -190 46 -46 193 534 193 -46 46 hstemhm
          48 87 -65 100 -82 82 190 82 -82 100 -65 87 hintmask 1001001001000000
          482 250 rmoveto
          111 -93 51 -93 46 vhcurveto
          -79 39 -47 24 71 vvcurveto
          63 37 29 80 52 29 -12 -28 21 vhcurveto
          -21 -10 -15 -23 -24 vvcurveto
          hintmask 1010001010000000
          -29 22 -21 31 34 20 26 42 77 -67 48 -109 -123 -73 -61 -105 -49 16 -38 38 -33 vhcurveto
          hintmask 1010100100000000
          -58 -31 -36 -54 -69 vvcurveto
          -111 94 -51 92 -46 vhcurveto
          85 -42 41 -22 -69 vvcurveto
          -64 -37 -29 -81 -52 -29 12 28 -20 vhcurveto
          21 9 15 23 25 vvcurveto
          hintmask 0110010100000000
          29 -22 21 -31 -34 -20 -26 -42 -77 67 -48 109 122 74 61 104 49 -17 38 -38 34 vhcurveto
          hintmask 1010100001000000
          59 30 36 55 69 vvcurveto
          -229 127 rmoveto
          100 -50 42 -39 -67 vvcurveto
          -39 -14 -41 -26 -20 vhcurveto
          -43 24 -22 10 -13 7 rrcurveto
          -98 49 -44 42 65 vvcurveto
          40 17 43 27 16 vhcurveto
          33 -20 27 -13 14 -7 rrcurveto
          endchar
        </CharString>
        <CharString name="semicolon">
          -350 -128 -21 140 127 223 128 hstem
          79 134 vstem
          144 118 rmoveto
          -95 callgsubr
          -63 286 14 callgsubr
          endchar
        </CharString>
        <CharString name="servicemark">
          148 406 30 275 29 -5 -20 hstemhm
          74 26 -26 51 123 26 -26 41 74 34 239 50 hintmask 1100101110000000
          188 406 rmoveto
          62 39 34 54 47 -22 26 -77 31 hvcurveto
          -54 22 -11 10 29 vvcurveto
          38 16 14 40 48 19 -22 -56 vhcurveto
          hintmask 1011010110000000
          26 102 -25 hlineto
          -4 -20 rlineto
          hintmask 1101010110000000
          17 -19 -24 8 -29 hhcurveto
          -61 -38 -35 -56 -45 20 -21 68 -27 hvcurveto
          57 -22 19 -20 -34 vvcurveto
          -32 -16 -12 -42 -54 -22 22 55 -4 vhcurveto
          -27 -102 25 hlineto
          5 26 rlineto
          -20 19 30 -11 36 hhcurveto
          340 51 rmoveto
          -4 hlineto
          hintmask 1011010110000000
          -82 278 rlineto
          -112 -19 hlineto
          33 -10 rlineto
          -266 vlineto
          -33 -10 rlineto
          -19 100 19 vlineto
          -33 10 rlineto
          266 vlineto
          93 -295 rlineto
          54 hlineto
          92 295 rlineto
          -266 vlineto
          -33 16 callgsubr
          -110 vlineto
          endchar
        </CharString>
        <CharString name="seven">
          -124 11 -21 635 95 hstem
          159 103 vstem
          262 54 rmoveto
          198 103 250 134 157 vhcurveto
          61 -459 -212 52 vlineto
          19 117 rlineto
          295 hlineto
          -131 -153 -116 -277 -140 vvcurveto
          -42 14 -23 38 36 15 25 39 vhcurveto
          endchar
        </CharString>
        <CharString name="seveneighths">
          -21 51 callgsubr
          346 51 10 -20 hstemhm
          87 54 218 -4 callsubr
          hintmask 1101101100000000
          81 -72 callsubr
          95 -479 -50 callgsubr
          hintmask 1110110010000000
          -64 callgsubr
          hintmask 1110110100000000
          -81 callsubr
          hintmask 1110101010000000
          -64 callsubr
          -347 242 -55 callsubr
        </CharString>
        <CharString name="seveninferior">
          -353 11 55 callsubr
          23 -55 callsubr
        </CharString>
        <CharString name="sevensuperior">
          -354 413 55 callsubr
          425 -55 callsubr
        </CharString>
        <CharString name="six">
          -34 -10 55 328 57 246 55 hstemhm
          59 93 -93 116 215 132 -81 107 hintmask 11110100
          154 351 rmoveto
          -2 17 0 11 19 vvcurveto
          195 52 83 121 74 47 -26 -49 10 vhcurveto
          -41 -25 -24 -37 -38 25 -23 39 44 24 29 55 100 -84 68 -122 -167 -90 -136 -255 -238 80 -112 170 hvcurveto
          hintmask 11101010
          147 92 84 136 132 -86 88 -127 -73 -67 -30 -49 -37 hvcurveto
          283 -141 rmoveto
          55 callgsubr
          54 callgsubr
          vhcurveto
          endchar
        </CharString>
        <CharString name="sixinferior">
          -300 -10 30 137 31 22 113 -31 31 hstemhm
          56 50 103 60 -41 57 hintmask 11011100
          107 152 2 callgsubr
          hintmask 11101100
          2 callsubr
          hintmask 11101010
          -21 callgsubr
        </CharString>
        <CharString name="sixsuperior">
          -299 397 30 132 -20 25 31 22 113 -31 31 hstemhm
          57 50 103 60 -41 57 hintmask 11101110
          108 559 2 callgsubr
          hintmask 11110110
          2 callsubr
          hintmask 11110101
          -21 callgsubr
        </CharString>
        <CharString name="slash">
          -327 41 callsubr
          54 -10 rmoveto
          57 hlineto
          146 740 rlineto
          -57 hlineto
          endchar
        </CharString>
        <CharString name="space">
          -383 endchar
        </CharString>
        <CharString name="sterling">
          -31 -10 51 -51 85 50 50 151 63 119 193 -46 46 hstemhm
          35 58 66 87 0 70 113 107 hintmask 1011101011000000
          75 326 rmoveto
          152 hlineto
          14 -34 5 -28 -39 vvcurveto
          -26 -2 -25 -4 -16 vhcurveto
          10 -29 -40 7 -28 hhcurveto
          -65 -43 -38 -58 -54 39 -35 59 51 42 27 59 41 hvcurveto
          -70 102 32 -16 41 hhcurveto
          69 36 46 109 15 hvcurveto
          -45 hlineto
          hintmask 0111011011000000
          -50 -11 -24 -20 -47 hhcurveto
          -35 -33 12 39 -73 hvcurveto
          14 41 8 41 37 vvcurveto
          20 -2 21 -7 40 vhcurveto
          154 63 -173 hlineto
          -29 71 -13 53 42 vvcurveto
          69 37 31 81 50 30 -12 -28 21 vhcurveto
          -21 -11 -15 -23 -23 vvcurveto
          hintmask 1011101101000000
          -29 22 -21 31 34 20 26 42 77 -67 48 -108 -125 -77 -64 -105 -42 12 -43 28 -58 vhcurveto
          -124 hlineto
          63 -348 rmoveto
          -29 -16 14 26 27 18 17 30 20 32 -8 -10 22 hvcurveto
          -45 -18 -25 -21 -34 hhcurveto
          endchar
        </CharString>
        <CharString name="t">
          -296 -10 64 436 50 138 -20 hstem
          106 97 vstem
          -85 callsubr
          endchar
        </CharString>
        <CharString name="tbar">
          -288 -10 64 277 60 99 50 138 -20 hstem
          110 97 vstem
          13 490 rmoveto
          97 -99 -97 -60 97 -217 hlineto
          -50 2 -21 6 -16 vhcurveto
          -25 9 19 -12 30 hhcurveto
          29 50 11 24 64 hvcurveto
          29 -70 vlineto
          -24 -9 2 10 -4 hvcurveto
          -4 10 -1 12 45 vvcurveto
          198 127 60 -127 99 -53 callgsubr
          endchar
        </CharString>
        <CharString name="tcaron">
          -296 -10 64 436 50 250 -20 hstemhm
          106 97 63 59 -40 60 hintmask 11111000
          -85 callsubr
          316 79 rmoveto
          hintmask 11110100
          -2 callgsubr
          hintmask 11111000
          -12 callsubr
        </CharString>
        <CharString name="tdotbelow">
          -296 -28 callsubr
          55 64 21 callgsubr
          -97 120 hintmask 11111000
          -85 callsubr
          92 -654 rmoveto
          -39 23 -23 39 vhcurveto
          hintmask 11110100
          39 24 24 38 38 -25 25 -38 -38 -24 -24 -39 hvcurveto
          endchar
        </CharString>
        <CharString name="thorn">
          -37 20 callsubr
          230 -20 hstemhm
          6 -34 callsubr
          269 105 hintmask 10111010
          554 275 rmoveto
          85 -23 76 -41 51 vhcurveto
          42 -34 -54 21 -72 hhcurveto
          -67 -46 -21 -47 -37 hvcurveto
          298 -51 callsubr
          hintmask 10110110
          77 -19 rlineto
          -840 vlineto
          hintmask 10111010
          -77 -65 callgsubr
          271 41 vlineto
          -97 19 rlineto
          195 vlineto
          hintmask 01111010
          -52 34 45 -23 63 hhcurveto
          70 54 22 43 37 hvcurveto
          44 50 27 81 79 vvcurveto
          -374 -1 rmoveto
          78 12 61 23 39 vhcurveto
          30 17 34 16 48 hhcurveto
          46 32 -16 -37 23 hvcurveto
          24 -38 10 -60 -80 vvcurveto
          -77 -12 -61 -21 -30 vhcurveto
          -31 -21 -36 -16 -44 hhcurveto
          -47 -31 16 37 -22 hvcurveto
          -24 39 -11 52 78 vvcurveto
          endchar
        </CharString>
        <CharString name="three">
          -57 -10 54 305 48 71 122 87 54 hstemhm
          61 124 -124 138 212 111 hintmask 11110110
          511 543 rmoveto
          112 -91 76 -132 -134 -93 -71 -103 -55 28 -34 46 39 25 24 38 38 -25 22 -41 vhcurveto
          58 11 49 29 84 hhcurveto
          86 48 -43 -77 -96 -72 -64 -107 hvcurveto
          -48 vlineto
          113 69 -65 -102 -90 -50 -48 -98 -85 -50 33 64 -12 hvcurveto
          hintmask 11111010
          40 26 24 36 38 -24 24 -38 -47 -23 -28 -57 -111 92 -77 133 146 98 83 122 97 -50 58 -103 22 hvcurveto
          4 vlineto
          88 15 54 64 88 vvcurveto
          endchar
        </CharString>
        <CharString name="threeeighths">
          11 51 callgsubr
          74 5 callsubr
          46 62 91 58 135 -4 callsubr
          hintmask 1110110111010000
          104 -72 callsubr
          -238 -84 -67 callsubr
          hintmask 1110101111010000
          -83 callgsubr
          hintmask 1101110110110000
          -77 callsubr
          343 -395 -50 callgsubr
          hintmask 1110110111001000
          -64 callgsubr
          hintmask 1110110111010000
          -81 callsubr
          hintmask 1110110110110000
          -64 callsubr
          endchar
        </CharString>
        <CharString name="threeinferior">
          -321 -10 5 callsubr
          52 62 91 58 hintmask 10110110
          258 239 -67 callsubr
          hintmask 10101110
          -83 callgsubr
          hintmask 01110110
          -77 callsubr
          endchar
        </CharString>
        <CharString name="threequarters">
          -14 0 125 -114 -21 102 33 272 5 callsubr
          46 62 91 58 230 52 hintmask 0111011011100000
          104 -72 callsubr
          -3 -696 rmoveto
          -50 -9 rlineto
          hintmask 1001011011100000
          -25 137 25 vlineto
          -35 9 rlineto
          hintmask 0111011011100000
          -60 callgsubr
          -139 521 -67 callsubr
          hintmask 1001010111100000
          -83 callgsubr
          hintmask 1000111011100000
          -77 callsubr
          endchar
        </CharString>
        <CharString name="threesuperior">
          -321 397 5 callsubr
          52 62 91 58 hintmask 10110110
          258 646 -67 callsubr
          hintmask 10101110
          -83 callgsubr
          hintmask 01110110
          -77 callsubr
          endchar
        </CharString>
        <CharString name="tilde">
          -239 628 -10 callgsubr
          hintmask 01000000
          15 639 -70 callgsubr
          hintmask 10100000
          -96 callsubr
          hintmask 01000000
          -80 callgsubr
        </CharString>
        <CharString name="tilde.cap">
          -239 759 71 -15 70 hstemhm
          hintmask 01000000
          15 770 -70 callgsubr
          hintmask 10000000
          -96 callsubr
          hintmask 01000000
          -80 callgsubr
        </CharString>
        <CharString name="trademark">
          206 427 -21 292 32 hstemhm
          72 162 -54 54 -54 161 81 34 234 51 hintmask 11100110
          72 730 rmoveto
          -95 24 vlineto
          14 63 rlineto
          hintmask 11010110
          70 -262 hlineto
          -44 -11 rlineto
          -19 141 19 vlineto
          -43 11 rlineto
          262 69 vlineto
          14 -63 rlineto
          hintmask 11001110
          24 95 hlineto
          hintmask 11100110
          241 -278 rmoveto
          -4 hlineto
          -82 278 rlineto
          -112 -19 hlineto
          38 -10 rlineto
          -266 vlineto
          -38 -10 rlineto
          -19 100 19 vlineto
          -28 10 rlineto
          261 vlineto
          89 -290 rlineto
          53 hlineto
          92 290 rlineto
          -261 vlineto
          -32 16 callgsubr
          -111 vlineto
          endchar
        </CharString>
        <CharString name="two">
          -48 0 95 363 122 97 54 hstemhm
          51 81 -68 132 220 101 hintmask 11110100
          132 95 rmoveto
          145 385 51 246 vvcurveto
          118 -89 76 -136 vhcurveto
          hintmask 11101100
          -137 -91 -76 -114 -56 22 -27 45 41 24 23 38 38 -24 23 -42 hvcurveto
          65 14 47 32 81 hhcurveto
          93 51 -41 -74 hvcurveto
          hintmask 11110100
          -200 -365 -86 -210 vvcurveto
          -66 475 223 -55 vlineto
          -24 -128 rlineto
          endchar
        </CharString>
        <CharString name="twoinferior">
          -320 0 15 callsubr
          48 -46 callsubr
          hintmask 10101100
          -69 callsubr
        </CharString>
        <CharString name="twosuperior">
          -319 401 15 callsubr
          449 -46 callsubr
          hintmask 10101100
          -69 callsubr
        </CharString>
        <CharString name="twothirds">
          19 -10 -36 callgsubr
          78 48 158 123 -32 32 hstemhm
          44 49 -49 65 95 53 147 62 91 58 hintmask 1011011010111000
          110 -72 callsubr
          114 -491 -67 callsubr
          hintmask 1010111010111000
          -83 callgsubr
          hintmask 0111011010111000
          -77 callsubr
          -517 210 -46 callsubr
          hintmask 1011010101111000
          -69 callsubr
        </CharString>
        <CharString name="u">
          -17 callgsubr
          hstem
          96 97 241 97 vstem
          -107 callgsubr
          endchar
        </CharString>
        <CharString name="uacute">
          -17 callgsubr
          275 -20 hstem
          96 97 241 97 vstem
          -107 callgsubr
          91 382 -100 callgsubr
          endchar
        </CharString>
        <CharString name="ubreve">
          -17 callgsubr
          109 33 callsubr
          96 97 -23 52 callsubr
          -30 97 hintmask 11011001
          -107 callgsubr
          hintmask 11011010
          223 523 rmoveto
          hintmask 11101010
          26 callsubr
          hintmask 11010110
          -68 callgsubr
        </CharString>
        <CharString name="ucircumflex">
          -17 callgsubr
          270 -20 hstem
          96 97 241 97 vstem
          -107 callgsubr
          165 533 -90 callgsubr
        </CharString>
        <CharString name="udieresis">
          -17 callgsubr
          127 117 hstemhm
          96 97 -55 -37 callgsubr
          -51 97 hintmask 11110010
          -107 callgsubr
          hintmask 11101100
          -55 448 -105 callsubr
        </CharString>
        <CharString name="udotbelow">
          -4 -28 callsubr
          55 28 callsubr
          hstem
          96 97 37 125 79 97 vstem
          -107 callgsubr
          37 -385 -106 callsubr
        </CharString>
        <CharString name="ugrave">
          -17 callgsubr
          275 -20 hstem
          96 97 241 97 vstem
          -107 callgsubr
          97 458 -79 callgsubr
        </CharString>
        <CharString name="uhungarumlaut">
          -17 callgsubr
          119 156 hstem
          96 97 241 97 vstem
          -107 callgsubr
          4 382 -100 callgsubr
          117 -76 -100 callgsubr
          endchar
        </CharString>
        <CharString name="umacron">
          -17 callgsubr
          145 65 hstem
          96 97 241 97 vstem
          -107 callgsubr
          -22 408 -51 callgsubr
        </CharString>
        <CharString name="underscore">
          -5 -58 58 hstem
          69 -58 rmoveto
          494 58 -494 hlineto
          endchar
        </CharString>
        <CharString name="uni00A0">
          -383 endchar
        </CharString>
        <CharString name="uni015E">
          -38 27 callgsubr
          51 -39 callsubr
          -11 -20 hstemhm
          69 58 -58 101 170 71 45 57 -57 90 hintmask 1110010011010000
          298 -55 callgsubr
          29 48 rlineto
          126 5 85 71 119 vvcurveto
          105 -65 55 -166 71 vhcurveto
          -117 50 -28 20 67 vvcurveto
          83 47 42 90 103 46 -56 -128 vhcurveto
          hintmask 1110001101100000
          -22 callgsubr
          hintmask 1110010101100000
          -87 callsubr
          hintmask 1101010101100000
          -38 callgsubr
          hintmask 1100110101100000
          -227 56 vlineto
          11 58 36 -38 54 -23 64 -6 rlinecurve
          -56 -74 -35 callsubr
          -76 callgsubr
        </CharString>
        <CharString name="uni015F">
          -134 27 callgsubr
          53 45 -45 201 165 193 -46 46 hstemhm
          44 102 -82 82 126 71 -14 107 -65 87 hintmask 1110010110100000
          230 -55 callgsubr
          30 50 rlineto
          113 8 77 58 95 vvcurveto
          107 -96 30 -90 28 vhcurveto
          -82 26 -44 16 60 vvcurveto
          56 40 29 80 49 30 -12 -28 20 vhcurveto
          hintmask 1110100101000000
          -83 callsubr
          hintmask 1110101010100000
          -39 callgsubr
          -57 -49 18 26 -17 vhcurveto
          20 10 16 26 25 vvcurveto
          hintmask 1101101010100000
          30 -25 21 -32 -36 -20 -27 -42 -77 69 -50 106 -5 vhcurveto
          -56 -74 -35 callsubr
          -76 callgsubr
        </CharString>
        <CharString name="uni0162">
          21 27 callgsubr
          83 47 callgsubr
          -33 71 hintmask 11110010
          304 -55 callgsubr
          35 59 rlineto
          138 43 hlineto
          hintmask 11101100
          -106 24 rlineto
          593 164 vlineto
          hintmask 11110100
          -5 callgsubr
          -596 -210 52 hlineto
          hintmask 11101100
          31 150 rlineto
          165 -593 hlineto
          -106 -24 rlineto
          -43 128 vlineto
          -64 -83 -35 callsubr
          hintmask 11110010
          -76 callgsubr
        </CharString>
        <CharString name="uni0163">
          -296 27 callgsubr
          -37 153 21 callgsubr
          15 71 hintmask 11011110
          176 -55 callgsubr
          33 55 26 5 34 9 38 15 rlinecurve
          hintmask 10111110
          29 -70 vlineto
          -24 -9 2 10 -4 hvcurveto
          -4 10 -1 12 45 vvcurveto
          357 -53 callgsubr
          -36 97 -376 vlineto
          -50 2 -21 6 -16 vhcurveto
          8 -23 17 -12 26 -2 -56 -73 rcurveline
          -35 callsubr
          -76 callgsubr
        </CharString>
        <CharString name="uni01C4">
          776 34 callsubr
          -60 230 hstemhm
          132 100 366 115 hintmask 11011000
          -103 callsubr
          893 -660 -91 callgsubr
          hintmask 10111000
          -48 667 -88 callsubr
        </CharString>
        <CharString name="uni01C5">
          667 32 callsubr
          120 60 60 -20 -84 callgsubr
          792 -664 -93 callsubr
          -56 443 192 -57 vlineto
          -24 588 -75 callsubr
        </CharString>
        <CharString name="uni01C6">
          -89 callgsubr
          hintmask 0101001110000000
          -24 588 -75 callsubr
        </CharString>
        <CharString name="uni01C7">
          575 0 47 -47 60 -50 -21 731 -20 28 callgsubr
          410 10 callsubr
          hintmask 10011101
          237 656 rmoveto
          104 -62 callsubr
          -298 -43 vlineto
          94 -21 rlineto
          -592 27 callsubr
          555 233 -55 vlineto
          hintmask 01011101
          -34 -173 rlineto
          -272 hlineto
          757 147 rmoveto
          hintmask 10011101
          -11 callsubr
          hintmask 00111011
          -82 callsubr
          endchar
        </CharString>
        <CharString name="uni01C8">
          270 -35 callgsubr
          38 60 480 -20 119 125 -44 -20 28 callgsubr
          303 102 71 -13 callsubr
          hintmask 1011011101000000
          -84 callsubr
          587 480 -86 callgsubr
          hintmask 0111101101000000
          -91 callsubr
          hintmask 1011101110000000
          -111 616 -106 callsubr
        </CharString>
        <CharString name="uni01C9">
          -45 -190 37 -37 152 59 32 callgsubr
          16 -20 hstemhm
          28 -34 callsubr
          23 102 71 -13 callsubr
          hintmask 1011100111000000
          105 60 rmoveto
          hintmask 1011011011000000
          -77 -65 callgsubr
          251 -23 callsubr
          hintmask 1011100110100000
          77 -19 rlineto
          404 -180 -86 callgsubr
          hintmask 0111101010100000
          -91 callsubr
          hintmask 1011101011000000
          -111 616 -106 callsubr
        </CharString>
        <CharString name="uni01CA">
          739 0 47 -37 -21 731 -20 hstemhm
          132 65 416 65 133 10 callsubr
          hintmask 10111101
          -100 callsubr
          1026 -449 rmoveto
          -11 callsubr
          hintmask 01111011
          -82 callsubr
          endchar
        </CharString>
</ttFont>
